<?xml version="1.0" encoding="UTF-8" standalone="no"?>
<!DOCTYPE svg PUBLIC "-//W3C//DTD SVG 1.1//EN"
 "http://www.w3.org/Graphics/SVG/1.1/DTD/svg11.dtd">
<!-- Generated by graphviz version 2.44.1 (20200629.0846)
 -->
<!-- Title: G Pages: 1 -->
<svg width="675pt" height="476pt"
 viewBox="0.00 0.00 675.20 476.20" xmlns="http://www.w3.org/2000/svg" xmlns:xlink="http://www.w3.org/1999/xlink">
<g id="graph0" class="graph" transform="scale(1 1) rotate(0) translate(21.6 454.6)">
<title>G</title>
<polygon fill="#111111" stroke="transparent" points="-21.6,21.6 -21.6,-454.6 653.6,-454.6 653.6,21.6 -21.6,21.6"/>
<!-- ../disconnect&#45;tracking&#45;protection/services.json -->
<g id="node1" class="node">
<title>../disconnect&#45;tracking&#45;protection/services.json</title>
<path fill="none" stroke="#cfffac" d="M624.33,-23C624.33,-23 349.67,-23 349.67,-23 345.83,-23 342,-19.17 342,-15.33 342,-15.33 342,-7.67 342,-7.67 342,-3.83 345.83,0 349.67,0 349.67,0 624.33,0 624.33,0 628.17,0 632,-3.83 632,-7.67 632,-7.67 632,-15.33 632,-15.33 632,-19.17 628.17,-23 624.33,-23"/>
<text text-anchor="middle" x="487" y="-7.8" font-family="Arial" font-size="14.00" fill="#cfffac">../disconnect&#45;tracking&#45;protection/services.json</text>
</g>
<!-- index.js -->
<g id="node2" class="node">
<title>index.js</title>
<path fill="none" stroke="#c6c5fe" d="M54.33,-228C54.33,-228 7.67,-228 7.67,-228 3.83,-228 0,-224.17 0,-220.33 0,-220.33 0,-212.67 0,-212.67 0,-208.83 3.83,-205 7.67,-205 7.67,-205 54.33,-205 54.33,-205 58.17,-205 62,-208.83 62,-212.67 62,-212.67 62,-220.33 62,-220.33 62,-224.17 58.17,-228 54.33,-228"/>
<text text-anchor="middle" x="31" y="-212.8" font-family="Arial" font-size="14.00" fill="#c6c5fe">index.js</text>
</g>
<!-- modules/export&#45;attacks.js -->
<g id="node3" class="node">
<title>modules/export&#45;attacks.js</title>
<path fill="none" stroke="#c6c5fe" d="M279.33,-433C279.33,-433 124.67,-433 124.67,-433 120.83,-433 117,-429.17 117,-425.33 117,-425.33 117,-417.67 117,-417.67 117,-413.83 120.83,-410 124.67,-410 124.67,-410 279.33,-410 279.33,-410 283.17,-410 287,-413.83 287,-417.67 287,-417.67 287,-425.33 287,-425.33 287,-429.17 283.17,-433 279.33,-433"/>
<text text-anchor="middle" x="202" y="-417.8" font-family="Arial" font-size="14.00" fill="#c6c5fe">modules/export&#45;attacks.js</text>
</g>
<!-- index.js&#45;&gt;modules/export&#45;attacks.js -->
<g id="edge1" class="edge">
<title>index.js&#45;&gt;modules/export&#45;attacks.js</title>
<path fill="none" stroke="#757575" d="M32.39,-228.22C34.16,-261.14 43.95,-355.05 98,-401.5 101.06,-404.13 104.36,-406.45 107.84,-408.51"/>
<polygon fill="#757575" stroke="#757575" points="106.31,-411.66 116.81,-413.07 109.48,-405.42 106.31,-411.66"/>
</g>
<!-- modules/export&#45;badges.js -->
<g id="node4" class="node">
<title>modules/export&#45;badges.js</title>
<path fill="none" stroke="#c6c5fe" d="M280.33,-392C280.33,-392 123.67,-392 123.67,-392 119.83,-392 116,-388.17 116,-384.33 116,-384.33 116,-376.67 116,-376.67 116,-372.83 119.83,-369 123.67,-369 123.67,-369 280.33,-369 280.33,-369 284.17,-369 288,-372.83 288,-376.67 288,-376.67 288,-384.33 288,-384.33 288,-388.17 284.17,-392 280.33,-392"/>
<text text-anchor="middle" x="202" y="-376.8" font-family="Arial" font-size="14.00" fill="#c6c5fe">modules/export&#45;badges.js</text>
</g>
<!-- index.js&#45;&gt;modules/export&#45;badges.js -->
<g id="edge2" class="edge">
<title>index.js&#45;&gt;modules/export&#45;badges.js</title>
<path fill="none" stroke="#757575" d="M33.67,-228.02C38.33,-255.66 54.12,-325.99 98,-360.5 100.81,-362.71 103.79,-364.69 106.9,-366.48"/>
<polygon fill="#757575" stroke="#757575" points="105.46,-369.67 115.97,-371 108.58,-363.41 105.46,-369.67"/>
</g>
<!-- modules/export&#45;consumables.js -->
<g id="node5" class="node">
<title>modules/export&#45;consumables.js</title>
<path fill="none" stroke="#c6c5fe" d="M298.33,-351C298.33,-351 105.67,-351 105.67,-351 101.83,-351 98,-347.17 98,-343.33 98,-343.33 98,-335.67 98,-335.67 98,-331.83 101.83,-328 105.67,-328 105.67,-328 298.33,-328 298.33,-328 302.17,-328 306,-331.83 306,-335.67 306,-335.67 306,-343.33 306,-343.33 306,-347.17 302.17,-351 298.33,-351"/>
<text text-anchor="middle" x="202" y="-335.8" font-family="Arial" font-size="14.00" fill="#c6c5fe">modules/export&#45;consumables.js</text>
</g>
<!-- index.js&#45;&gt;modules/export&#45;consumables.js -->
<g id="edge3" class="edge">
<title>index.js&#45;&gt;modules/export&#45;consumables.js</title>
<path fill="none" stroke="#757575" d="M35.99,-228.3C44.01,-250.11 64.26,-296.6 98,-319.5 100.14,-320.95 102.37,-322.31 104.65,-323.57"/>
<polygon fill="#757575" stroke="#757575" points="103.23,-326.77 113.76,-327.99 106.29,-320.47 103.23,-326.77"/>
</g>
<!-- modules/export&#45;dialogue.js -->
<g id="node6" class="node">
<title>modules/export&#45;dialogue.js</title>
<path fill="none" stroke="#c6c5fe" d="M283.83,-310C283.83,-310 120.17,-310 120.17,-310 116.33,-310 112.5,-306.17 112.5,-302.33 112.5,-302.33 112.5,-294.67 112.5,-294.67 112.5,-290.83 116.33,-287 120.17,-287 120.17,-287 283.83,-287 283.83,-287 287.67,-287 291.5,-290.83 291.5,-294.67 291.5,-294.67 291.5,-302.33 291.5,-302.33 291.5,-306.17 287.67,-310 283.83,-310"/>
<text text-anchor="middle" x="202" y="-294.8" font-family="Arial" font-size="14.00" fill="#c6c5fe">modules/export&#45;dialogue.js</text>
</g>
<!-- index.js&#45;&gt;modules/export&#45;dialogue.js -->
<g id="edge4" class="edge">
<title>index.js&#45;&gt;modules/export&#45;dialogue.js</title>
<path fill="none" stroke="#757575" d="M40.88,-228.17C52.41,-242.43 73.93,-266.18 98,-278.5 101.59,-280.34 105.33,-282.01 109.17,-283.52"/>
<polygon fill="#757575" stroke="#757575" points="108.29,-286.92 118.88,-286.99 110.64,-280.33 108.29,-286.92"/>
</g>
<!-- modules/export&#45;disguises.js -->
<g id="node7" class="node">
<title>modules/export&#45;disguises.js</title>
<path fill="none" stroke="#c6c5fe" d="M286.33,-269C286.33,-269 117.67,-269 117.67,-269 113.83,-269 110,-265.17 110,-261.33 110,-261.33 110,-253.67 110,-253.67 110,-249.83 113.83,-246 117.67,-246 117.67,-246 286.33,-246 286.33,-246 290.17,-246 294,-249.83 294,-253.67 294,-253.67 294,-261.33 294,-261.33 294,-265.17 290.17,-269 286.33,-269"/>
<text text-anchor="middle" x="202" y="-253.8" font-family="Arial" font-size="14.00" fill="#c6c5fe">modules/export&#45;disguises.js</text>
</g>
<!-- index.js&#45;&gt;modules/export&#45;disguises.js -->
<g id="edge5" class="edge">
<title>index.js&#45;&gt;modules/export&#45;disguises.js</title>
<path fill="none" stroke="#757575" d="M62.01,-226.86C73.22,-230.52 86.12,-234.47 98,-237.5 106.88,-239.77 116.25,-241.91 125.57,-243.9"/>
<polygon fill="#757575" stroke="#757575" points="125.13,-247.39 135.63,-246 126.56,-240.53 125.13,-247.39"/>
</g>
<!-- modules/export&#45;facts.js -->
<g id="node8" class="node">
<title>modules/export&#45;facts.js</title>
<path fill="none" stroke="#c6c5fe" d="M272.33,-228C272.33,-228 131.67,-228 131.67,-228 127.83,-228 124,-224.17 124,-220.33 124,-220.33 124,-212.67 124,-212.67 124,-208.83 127.83,-205 131.67,-205 131.67,-205 272.33,-205 272.33,-205 276.17,-205 280,-208.83 280,-212.67 280,-212.67 280,-220.33 280,-220.33 280,-224.17 276.17,-228 272.33,-228"/>
<text text-anchor="middle" x="202" y="-212.8" font-family="Arial" font-size="14.00" fill="#c6c5fe">modules/export&#45;facts.js</text>
</g>
<!-- index.js&#45;&gt;modules/export&#45;facts.js -->
<g id="edge6" class="edge">
<title>index.js&#45;&gt;modules/export&#45;facts.js</title>
<path fill="none" stroke="#757575" d="M62.21,-216.5C76.86,-216.5 95.28,-216.5 113.87,-216.5"/>
<polygon fill="#757575" stroke="#757575" points="113.89,-220 123.89,-216.5 113.89,-213 113.89,-220"/>
</g>
<!-- modules/export&#45;gradients.js -->
<g id="node9" class="node">
<title>modules/export&#45;gradients.js</title>
<path fill="none" stroke="#c6c5fe" d="M285.83,-187C285.83,-187 118.17,-187 118.17,-187 114.33,-187 110.5,-183.17 110.5,-179.33 110.5,-179.33 110.5,-171.67 110.5,-171.67 110.5,-167.83 114.33,-164 118.17,-164 118.17,-164 285.83,-164 285.83,-164 289.67,-164 293.5,-167.83 293.5,-171.67 293.5,-171.67 293.5,-179.33 293.5,-179.33 293.5,-183.17 289.67,-187 285.83,-187"/>
<text text-anchor="middle" x="202" y="-171.8" font-family="Arial" font-size="14.00" fill="#c6c5fe">modules/export&#45;gradients.js</text>
</g>
<!-- index.js&#45;&gt;modules/export&#45;gradients.js -->
<g id="edge7" class="edge">
<title>index.js&#45;&gt;modules/export&#45;gradients.js</title>
<path fill="none" stroke="#757575" d="M62.06,-206.75C73.28,-203.28 86.16,-199.49 98,-196.5 108.3,-193.9 119.23,-191.39 129.99,-189.08"/>
<polygon fill="#757575" stroke="#757575" points="130.73,-192.5 139.79,-187 129.28,-185.65 130.73,-192.5"/>
</g>
<!-- modules/export&#45;monsters.js -->
<g id="node10" class="node">
<title>modules/export&#45;monsters.js</title>
<path fill="none" stroke="#c6c5fe" d="M286.33,-146C286.33,-146 117.67,-146 117.67,-146 113.83,-146 110,-142.17 110,-138.33 110,-138.33 110,-130.67 110,-130.67 110,-126.83 113.83,-123 117.67,-123 117.67,-123 286.33,-123 286.33,-123 290.17,-123 294,-126.83 294,-130.67 294,-130.67 294,-138.33 294,-138.33 294,-142.17 290.17,-146 286.33,-146"/>
<text text-anchor="middle" x="202" y="-130.8" font-family="Arial" font-size="14.00" fill="#c6c5fe">modules/export&#45;monsters.js</text>
</g>
<!-- index.js&#45;&gt;modules/export&#45;monsters.js -->
<g id="edge8" class="edge">
<title>index.js&#45;&gt;modules/export&#45;monsters.js</title>
<path fill="none" stroke="#757575" d="M41.35,-204.57C53.04,-190.53 74.39,-167.6 98,-155.5 102.5,-153.19 107.24,-151.14 112.1,-149.31"/>
<polygon fill="#757575" stroke="#757575" points="113.26,-152.61 121.59,-146.06 111,-145.99 113.26,-152.61"/>
</g>
<!-- modules/export&#45;palettes.js -->
<g id="node11" class="node">
<title>modules/export&#45;palettes.js</title>
<path fill="none" stroke="#c6c5fe" d="M281.83,-105C281.83,-105 122.17,-105 122.17,-105 118.33,-105 114.5,-101.17 114.5,-97.33 114.5,-97.33 114.5,-89.67 114.5,-89.67 114.5,-85.83 118.33,-82 122.17,-82 122.17,-82 281.83,-82 281.83,-82 285.67,-82 289.5,-85.83 289.5,-89.67 289.5,-89.67 289.5,-97.33 289.5,-97.33 289.5,-101.17 285.67,-105 281.83,-105"/>
<text text-anchor="middle" x="202" y="-89.8" font-family="Arial" font-size="14.00" fill="#c6c5fe">modules/export&#45;palettes.js</text>
</g>
<!-- index.js&#45;&gt;modules/export&#45;palettes.js -->
<g id="edge9" class="edge">
<title>index.js&#45;&gt;modules/export&#45;palettes.js</title>
<path fill="none" stroke="#757575" d="M36.04,-204.84C44.15,-183.29 64.55,-137.33 98,-114.5 100.75,-112.62 103.63,-110.91 106.61,-109.34"/>
<polygon fill="#757575" stroke="#757575" points="108.23,-112.45 115.82,-105.06 105.28,-106.1 108.23,-112.45"/>
</g>
<!-- modules/export&#45;skins.js -->
<g id="node12" class="node">
<title>modules/export&#45;skins.js</title>
<path fill="none" stroke="#c6c5fe" d="M273.33,-64C273.33,-64 130.67,-64 130.67,-64 126.83,-64 123,-60.17 123,-56.33 123,-56.33 123,-48.67 123,-48.67 123,-44.83 126.83,-41 130.67,-41 130.67,-41 273.33,-41 273.33,-41 277.17,-41 281,-44.83 281,-48.67 281,-48.67 281,-56.33 281,-56.33 281,-60.17 277.17,-64 273.33,-64"/>
<text text-anchor="middle" x="202" y="-48.8" font-family="Arial" font-size="14.00" fill="#c6c5fe">modules/export&#45;skins.js</text>
</g>
<!-- index.js&#45;&gt;modules/export&#45;skins.js -->
<g id="edge10" class="edge">
<title>index.js&#45;&gt;modules/export&#45;skins.js</title>
<path fill="none" stroke="#757575" d="M33.79,-204.67C38.64,-177 54.7,-107.79 98,-73.5 102.72,-69.76 107.93,-66.64 113.44,-64.03"/>
<polygon fill="#757575" stroke="#757575" points="115.02,-67.17 122.93,-60.12 112.35,-60.69 115.02,-67.17"/>
</g>
<!-- modules/export&#45;trackers.js -->
<g id="node13" class="node">
<title>modules/export&#45;trackers.js</title>
<path fill="none" stroke="#c6c5fe" d="M282.33,-23C282.33,-23 121.67,-23 121.67,-23 117.83,-23 114,-19.17 114,-15.33 114,-15.33 114,-7.67 114,-7.67 114,-3.83 117.83,0 121.67,0 121.67,0 282.33,0 282.33,0 286.17,0 290,-3.83 290,-7.67 290,-7.67 290,-15.33 290,-15.33 290,-19.17 286.17,-23 282.33,-23"/>
<text text-anchor="middle" x="202" y="-7.8" font-family="Arial" font-size="14.00" fill="#c6c5fe">modules/export&#45;trackers.js</text>
</g>
<!-- index.js&#45;&gt;modules/export&#45;trackers.js -->
<g id="edge11" class="edge">
<title>index.js&#45;&gt;modules/export&#45;trackers.js</title>
<path fill="none" stroke="#757575" d="M32.44,-204.87C34.32,-172.19 44.38,-78.94 98,-32.5 100.05,-30.72 102.21,-29.08 104.46,-27.57"/>
<polygon fill="#757575" stroke="#757575" points="106.64,-30.35 113.55,-22.32 103.14,-24.29 106.64,-30.35"/>
</g>
<!-- modules/globals.js -->
<g id="node14" class="node">
<title>modules/globals.js</title>
<path fill="none" stroke="#cfffac" d="M543.33,-228C543.33,-228 430.67,-228 430.67,-228 426.83,-228 423,-224.17 423,-220.33 423,-220.33 423,-212.67 423,-212.67 423,-208.83 426.83,-205 430.67,-205 430.67,-205 543.33,-205 543.33,-205 547.17,-205 551,-208.83 551,-212.67 551,-212.67 551,-220.33 551,-220.33 551,-224.17 547.17,-228 543.33,-228"/>
<text text-anchor="middle" x="487" y="-212.8" font-family="Arial" font-size="14.00" fill="#cfffac">modules/globals.js</text>
</g>
<!-- modules/export&#45;attacks.js&#45;&gt;modules/globals.js -->
<g id="edge12" class="edge">
<title>modules/export&#45;attacks.js&#45;&gt;modules/globals.js</title>
<path fill="none" stroke="#757575" d="M286.35,-409.94C293.19,-407.62 299.83,-404.83 306,-401.5 382.28,-360.28 446.08,-275.69 472.69,-236.83"/>
<polygon fill="#757575" stroke="#757575" points="475.67,-238.66 478.36,-228.41 469.87,-234.75 475.67,-238.66"/>
</g>
<!-- modules/export&#45;badges.js&#45;&gt;modules/globals.js -->
<g id="edge13" class="edge">
<title>modules/export&#45;badges.js&#45;&gt;modules/globals.js</title>
<path fill="none" stroke="#757575" d="M282.95,-368.99C290.91,-366.66 298.73,-363.86 306,-360.5 373.68,-329.19 438.21,-267.16 468.31,-235.73"/>
<polygon fill="#757575" stroke="#757575" points="471.21,-237.75 475.53,-228.07 466.12,-232.94 471.21,-237.75"/>
</g>
<!-- modules/export&#45;consumables.js&#45;&gt;modules/globals.js -->
<g id="edge14" class="edge">
<title>modules/export&#45;consumables.js&#45;&gt;modules/globals.js</title>
<path fill="none" stroke="#757575" d="M277.79,-327.99C287.42,-325.64 297.04,-322.83 306,-319.5 365.48,-297.4 428.38,-256.91 461.8,-233.82"/>
<polygon fill="#757575" stroke="#757575" points="463.83,-236.67 470.02,-228.08 459.82,-230.93 463.83,-236.67"/>
</g>
<!-- modules/export&#45;dialogue.js&#45;&gt;modules/globals.js -->
<g id="edge15" class="edge">
<title>modules/export&#45;dialogue.js&#45;&gt;modules/globals.js</title>
<path fill="none" stroke="#757575" d="M269.8,-286.94C281.92,-284.45 294.39,-281.61 306,-278.5 355.32,-265.29 410.66,-245.45 446.8,-231.78"/>
<polygon fill="#757575" stroke="#757575" points="448.36,-234.94 456.46,-228.11 445.87,-228.39 448.36,-234.94"/>
</g>
<!-- modules/export&#45;disguises.js&#45;&gt;modules/globals.js -->
<g id="edge16" class="edge">
<title>modules/export&#45;disguises.js&#45;&gt;modules/globals.js</title>
<path fill="none" stroke="#757575" d="M282.58,-245.97C323.43,-240.05 372.84,-232.89 412.74,-227.11"/>
<polygon fill="#757575" stroke="#757575" points="413.27,-230.57 422.67,-225.68 412.27,-223.65 413.27,-230.57"/>
</g>
<!-- modules/export&#45;facts.js&#45;&gt;modules/globals.js -->
<g id="edge17" class="edge">
<title>modules/export&#45;facts.js&#45;&gt;modules/globals.js</title>
<path fill="none" stroke="#757575" d="M280.33,-216.5C321.52,-216.5 371.91,-216.5 412.5,-216.5"/>
<polygon fill="#757575" stroke="#757575" points="412.6,-220 422.6,-216.5 412.6,-213 412.6,-220"/>
</g>
<!-- modules/export&#45;gradients.js&#45;&gt;modules/globals.js -->
<g id="edge18" class="edge">
<title>modules/export&#45;gradients.js&#45;&gt;modules/globals.js</title>
<path fill="none" stroke="#757575" d="M282.58,-187.03C323.43,-192.95 372.84,-200.11 412.74,-205.89"/>
<polygon fill="#757575" stroke="#757575" points="412.27,-209.35 422.67,-207.32 413.27,-202.43 412.27,-209.35"/>
</g>
<!-- modules/export&#45;monsters.js&#45;&gt;modules/globals.js -->
<g id="edge19" class="edge">
<title>modules/export&#45;monsters.js&#45;&gt;modules/globals.js</title>
<path fill="none" stroke="#757575" d="M265.93,-146.02C279.24,-148.82 293.14,-152.02 306,-155.5 354.91,-168.72 409.91,-188.03 446.1,-201.36"/>
<polygon fill="#757575" stroke="#757575" points="445.19,-204.76 455.78,-204.96 447.63,-198.2 445.19,-204.76"/>
</g>
<!-- modules/export&#45;palettes.js&#45;&gt;modules/globals.js -->
<g id="edge20" class="edge">
<title>modules/export&#45;palettes.js&#45;&gt;modules/globals.js</title>
<path fill="none" stroke="#757575" d="M274.47,-105.03C285.19,-107.63 296,-110.76 306,-114.5 364.98,-136.59 427.6,-176.27 461.21,-199.08"/>
<polygon fill="#757575" stroke="#757575" points="459.28,-202 469.51,-204.77 463.24,-196.22 459.28,-202"/>
</g>
<!-- modules/export&#45;skins.js&#45;&gt;modules/globals.js -->
<g id="edge21" class="edge">
<title>modules/export&#45;skins.js&#45;&gt;modules/globals.js</title>
<path fill="none" stroke="#757575" d="M280.23,-64.08C289.12,-66.62 297.9,-69.72 306,-73.5 373.36,-104.9 437.97,-166.29 468.18,-197.42"/>
<polygon fill="#757575" stroke="#757575" points="465.66,-199.84 475.11,-204.64 470.72,-195 465.66,-199.84"/>
</g>
<!-- modules/export&#45;trackers.js&#45;&gt;../disconnect&#45;tracking&#45;protection/services.json -->
<g id="edge22" class="edge">
<title>modules/export&#45;trackers.js&#45;&gt;../disconnect&#45;tracking&#45;protection/services.json</title>
<path fill="none" stroke="#757575" d="M290.22,-11.5C303.42,-11.5 317.36,-11.5 331.48,-11.5"/>
<polygon fill="#757575" stroke="#757575" points="331.78,-15 341.78,-11.5 331.78,-8 331.78,-15"/>
</g>
<!-- modules/export&#45;trackers.js&#45;&gt;modules/globals.js -->
<g id="edge23" class="edge">
<title>modules/export&#45;trackers.js&#45;&gt;modules/globals.js</title>
<path fill="none" stroke="#757575" d="M283.68,-23.04C291.45,-25.59 299.03,-28.7 306,-32.5 381.93,-73.86 445.91,-157.81 472.63,-196.34"/>
<polygon fill="#757575" stroke="#757575" points="469.79,-198.4 478.32,-204.69 475.58,-194.46 469.79,-198.4"/>
</g>
</g>
</svg>
