<?xml version="1.0" encoding="UTF-8" standalone="no"?>
<!DOCTYPE svg PUBLIC "-//W3C//DTD SVG 1.1//EN"
 "http://www.w3.org/Graphics/SVG/1.1/DTD/svg11.dtd">
<!-- Generated by graphviz version 2.44.1 (20200629.0846)
 -->
<!-- Title: G Pages: 1 -->
<svg width="2075pt" height="2509pt"
 viewBox="0.00 0.00 2075.20 2509.11" xmlns="http://www.w3.org/2000/svg" xmlns:xlink="http://www.w3.org/1999/xlink">
<g id="graph0" class="graph" transform="scale(1 1) rotate(0) translate(21.6 2487.51)">
<title>G</title>
<polygon fill="#111111" stroke="transparent" points="-21.6,21.6 -21.6,-2487.51 2053.6,-2487.51 2053.6,21.6 -21.6,21.6"/>
<!-- app.js -->
<g id="node1" class="node">
<title>app.js</title>
<path fill="none" stroke="#c6c5fe" d="M46.33,-2072C46.33,-2072 7.67,-2072 7.67,-2072 3.83,-2072 0,-2068.17 0,-2064.33 0,-2064.33 0,-2056.67 0,-2056.67 0,-2052.83 3.83,-2049 7.67,-2049 7.67,-2049 46.33,-2049 46.33,-2049 50.17,-2049 54,-2052.83 54,-2056.67 54,-2056.67 54,-2064.33 54,-2064.33 54,-2068.17 50.17,-2072 46.33,-2072"/>
<text text-anchor="middle" x="27" y="-2056.8" font-family="Arial" font-size="14.00" fill="#c6c5fe">app.js</text>
</g>
<!-- app/config/index.js -->
<g id="node2" class="node">
<title>app/config/index.js</title>
<path fill="none" stroke="#cfffac" d="M1469.33,-2254C1469.33,-2254 1356.67,-2254 1356.67,-2254 1352.83,-2254 1349,-2250.17 1349,-2246.33 1349,-2246.33 1349,-2238.67 1349,-2238.67 1349,-2234.83 1352.83,-2231 1356.67,-2231 1356.67,-2231 1469.33,-2231 1469.33,-2231 1473.17,-2231 1477,-2234.83 1477,-2238.67 1477,-2238.67 1477,-2246.33 1477,-2246.33 1477,-2250.17 1473.17,-2254 1469.33,-2254"/>
<text text-anchor="middle" x="1413" y="-2238.8" font-family="Arial" font-size="14.00" fill="#cfffac">app/config/index.js</text>
</g>
<!-- app.js&#45;&gt;app/config/index.js -->
<g id="edge1" class="edge">
<title>app.js&#45;&gt;app/config/index.js</title>
<path fill="none" stroke="#757575" d="M33.72,-2072.3C43.2,-2090.81 63.74,-2126.9 90,-2149.5 203.29,-2247.01 242.03,-2298.5 391.5,-2298.5 391.5,-2298.5 391.5,-2298.5 916.5,-2298.5 957.64,-2298.5 1210.92,-2267.62 1338.58,-2251.72"/>
<polygon fill="#757575" stroke="#757575" points="1339.18,-2255.17 1348.67,-2250.46 1338.32,-2248.23 1339.18,-2255.17"/>
</g>
<!-- app/controllers/passport.js -->
<g id="node3" class="node">
<title>app/controllers/passport.js</title>
<path fill="none" stroke="#c6c5fe" d="M994.83,-2168C994.83,-2168 836.17,-2168 836.17,-2168 832.33,-2168 828.5,-2164.17 828.5,-2160.33 828.5,-2160.33 828.5,-2152.67 828.5,-2152.67 828.5,-2148.83 832.33,-2145 836.17,-2145 836.17,-2145 994.83,-2145 994.83,-2145 998.67,-2145 1002.5,-2148.83 1002.5,-2152.67 1002.5,-2152.67 1002.5,-2160.33 1002.5,-2160.33 1002.5,-2164.17 998.67,-2168 994.83,-2168"/>
<text text-anchor="middle" x="915.5" y="-2152.8" font-family="Arial" font-size="14.00" fill="#c6c5fe">app/controllers/passport.js</text>
</g>
<!-- app.js&#45;&gt;app/controllers/passport.js -->
<g id="edge2" class="edge">
<title>app.js&#45;&gt;app/controllers/passport.js</title>
<path fill="none" stroke="#757575" d="M37.56,-2072.09C48.68,-2084.62 68.31,-2103.95 90,-2112.5 342.57,-2212.09 672.71,-2188.41 827.4,-2169.34"/>
<polygon fill="#757575" stroke="#757575" points="828.3,-2172.75 837.79,-2168.03 827.43,-2165.81 828.3,-2172.75"/>
</g>
<!-- app/middleware/auth.js -->
<g id="node4" class="node">
<title>app/middleware/auth.js</title>
<path fill="none" stroke="#cfffac" d="M1733.33,-1469C1733.33,-1469 1592.67,-1469 1592.67,-1469 1588.83,-1469 1585,-1465.17 1585,-1461.33 1585,-1461.33 1585,-1453.67 1585,-1453.67 1585,-1449.83 1588.83,-1446 1592.67,-1446 1592.67,-1446 1733.33,-1446 1733.33,-1446 1737.17,-1446 1741,-1449.83 1741,-1453.67 1741,-1453.67 1741,-1461.33 1741,-1461.33 1741,-1465.17 1737.17,-1469 1733.33,-1469"/>
<text text-anchor="middle" x="1663" y="-1453.8" font-family="Arial" font-size="14.00" fill="#cfffac">app/middleware/auth.js</text>
</g>
<!-- app.js&#45;&gt;app/middleware/auth.js -->
<g id="edge3" class="edge">
<title>app.js&#45;&gt;app/middleware/auth.js</title>
<path fill="none" stroke="#757575" d="M28.22,-2048.69C30.32,-1936.59 47.97,-1058.59 90,-799.5 147.39,-445.69 33.07,-51.5 391.5,-51.5 391.5,-51.5 391.5,-51.5 1149.5,-51.5 1328.13,-51.5 1420.69,-30.42 1534,-168.5 1617.94,-270.79 1655.72,-1274.45 1661.27,-1435.69"/>
<polygon fill="#757575" stroke="#757575" points="1657.78,-1435.95 1661.62,-1445.82 1664.78,-1435.71 1657.78,-1435.95"/>
</g>
<!-- app/middleware/debugger.js -->
<g id="node5" class="node">
<title>app/middleware/debugger.js</title>
<path fill="none" stroke="#c6c5fe" d="M1748.33,-1698C1748.33,-1698 1577.67,-1698 1577.67,-1698 1573.83,-1698 1570,-1694.17 1570,-1690.33 1570,-1690.33 1570,-1682.67 1570,-1682.67 1570,-1678.83 1573.83,-1675 1577.67,-1675 1577.67,-1675 1748.33,-1675 1748.33,-1675 1752.17,-1675 1756,-1678.83 1756,-1682.67 1756,-1682.67 1756,-1690.33 1756,-1690.33 1756,-1694.17 1752.17,-1698 1748.33,-1698"/>
<text text-anchor="middle" x="1663" y="-1682.8" font-family="Arial" font-size="14.00" fill="#c6c5fe">app/middleware/debugger.js</text>
</g>
<!-- app.js&#45;&gt;app/middleware/debugger.js -->
<g id="edge4" class="edge">
<title>app.js&#45;&gt;app/middleware/debugger.js</title>
<path fill="none" stroke="#757575" d="M28.81,-2072.3C32.52,-2123.26 49.54,-2323.84 90,-2369.5 182.17,-2473.52 252.52,-2452.5 391.5,-2452.5 391.5,-2452.5 391.5,-2452.5 1149.5,-2452.5 1322.81,-2452.5 1410.65,-2509.24 1534,-2387.5 1633.72,-2289.08 1657.18,-1816.08 1661.26,-1708.36"/>
<polygon fill="#757575" stroke="#757575" points="1664.77,-1708.2 1661.64,-1698.08 1657.78,-1707.95 1664.77,-1708.2"/>
</g>
<!-- app/middleware/functions.js -->
<g id="node6" class="node">
<title>app/middleware/functions.js</title>
<path fill="none" stroke="#c6c5fe" d="M1497.33,-1565C1497.33,-1565 1328.67,-1565 1328.67,-1565 1324.83,-1565 1321,-1561.17 1321,-1557.33 1321,-1557.33 1321,-1549.67 1321,-1549.67 1321,-1545.83 1324.83,-1542 1328.67,-1542 1328.67,-1542 1497.33,-1542 1497.33,-1542 1501.17,-1542 1505,-1545.83 1505,-1549.67 1505,-1549.67 1505,-1557.33 1505,-1557.33 1505,-1561.17 1501.17,-1565 1497.33,-1565"/>
<text text-anchor="middle" x="1413" y="-1549.8" font-family="Arial" font-size="14.00" fill="#c6c5fe">app/middleware/functions.js</text>
</g>
<!-- app.js&#45;&gt;app/middleware/functions.js -->
<g id="edge5" class="edge">
<title>app.js&#45;&gt;app/middleware/functions.js</title>
<path fill="none" stroke="#757575" d="M54.24,-2059.03C96.07,-2056.44 180.38,-2050.19 251,-2038.5 591.84,-1982.1 738,-2068.74 1005,-1849.5 1031.73,-1827.55 1012.92,-1800.69 1041,-1780.5 1119.55,-1724.02 1172.23,-1794.9 1256,-1746.5 1328.72,-1704.48 1381.14,-1614.55 1402.02,-1574.04"/>
<polygon fill="#757575" stroke="#757575" points="1405.16,-1575.58 1406.53,-1565.08 1398.91,-1572.43 1405.16,-1575.58"/>
</g>
<!-- app/middleware/sessionManagement.js -->
<g id="node7" class="node">
<title>app/middleware/sessionManagement.js</title>
<path fill="none" stroke="#c6c5fe" d="M782.33,-2424C782.33,-2424 541.67,-2424 541.67,-2424 537.83,-2424 534,-2420.17 534,-2416.33 534,-2416.33 534,-2408.67 534,-2408.67 534,-2404.83 537.83,-2401 541.67,-2401 541.67,-2401 782.33,-2401 782.33,-2401 786.17,-2401 790,-2404.83 790,-2408.67 790,-2408.67 790,-2416.33 790,-2416.33 790,-2420.17 786.17,-2424 782.33,-2424"/>
<text text-anchor="middle" x="662" y="-2408.8" font-family="Arial" font-size="14.00" fill="#c6c5fe">app/middleware/sessionManagement.js</text>
</g>
<!-- app.js&#45;&gt;app/middleware/sessionManagement.js -->
<g id="edge6" class="edge">
<title>app.js&#45;&gt;app/middleware/sessionManagement.js</title>
<path fill="none" stroke="#757575" d="M29.19,-2072.04C34.03,-2116.88 53.79,-2278.66 90,-2312.5 218.79,-2432.83 438.6,-2435.32 564.62,-2424.89"/>
<polygon fill="#757575" stroke="#757575" points="564.99,-2428.37 574.65,-2424.02 564.38,-2421.4 564.99,-2428.37"/>
</g>
<!-- app/models/index.js -->
<g id="node8" class="node">
<title>app/models/index.js</title>
<path fill="none" stroke="#c6c5fe" d="M1209.33,-1738C1209.33,-1738 1087.67,-1738 1087.67,-1738 1083.83,-1738 1080,-1734.17 1080,-1730.33 1080,-1730.33 1080,-1722.67 1080,-1722.67 1080,-1718.83 1083.83,-1715 1087.67,-1715 1087.67,-1715 1209.33,-1715 1209.33,-1715 1213.17,-1715 1217,-1718.83 1217,-1722.67 1217,-1722.67 1217,-1730.33 1217,-1730.33 1217,-1734.17 1213.17,-1738 1209.33,-1738"/>
<text text-anchor="middle" x="1148.5" y="-1722.8" font-family="Arial" font-size="14.00" fill="#c6c5fe">app/models/index.js</text>
</g>
<!-- app.js&#45;&gt;app/models/index.js -->
<g id="edge7" class="edge">
<title>app.js&#45;&gt;app/models/index.js</title>
<path fill="none" stroke="#757575" d="M54.13,-2053.62C154.08,-2027.34 521.84,-1931.05 826,-1856.5 905.37,-1837.05 939.34,-1863.14 1005,-1814.5 1030.6,-1795.53 1015.48,-1771.58 1041,-1752.5 1049.69,-1746 1059.8,-1741.1 1070.26,-1737.42"/>
<polygon fill="#757575" stroke="#757575" points="1071.45,-1740.72 1079.93,-1734.37 1069.34,-1734.04 1071.45,-1740.72"/>
</g>
<!-- app/routes/api.js -->
<g id="node9" class="node">
<title>app/routes/api.js</title>
<path fill="none" stroke="#c6c5fe" d="M220.83,-1632C220.83,-1632 120.17,-1632 120.17,-1632 116.33,-1632 112.5,-1628.17 112.5,-1624.33 112.5,-1624.33 112.5,-1616.67 112.5,-1616.67 112.5,-1612.83 116.33,-1609 120.17,-1609 120.17,-1609 220.83,-1609 220.83,-1609 224.67,-1609 228.5,-1612.83 228.5,-1616.67 228.5,-1616.67 228.5,-1624.33 228.5,-1624.33 228.5,-1628.17 224.67,-1632 220.83,-1632"/>
<text text-anchor="middle" x="170.5" y="-1616.8" font-family="Arial" font-size="14.00" fill="#c6c5fe">app/routes/api.js</text>
</g>
<!-- app.js&#45;&gt;app/routes/api.js -->
<g id="edge8" class="edge">
<title>app.js&#45;&gt;app/routes/api.js</title>
<path fill="none" stroke="#757575" d="M30.66,-2048.73C38.54,-2014.34 62.9,-1911.12 90,-1827.5 112.45,-1758.21 145.15,-1678.26 160.67,-1641.27"/>
<polygon fill="#757575" stroke="#757575" points="163.92,-1642.59 164.58,-1632.02 157.47,-1639.87 163.92,-1642.59"/>
</g>
<!-- app/routes/dashboard.js -->
<g id="node10" class="node">
<title>app/routes/dashboard.js</title>
<path fill="none" stroke="#c6c5fe" d="M243.33,-1860C243.33,-1860 97.67,-1860 97.67,-1860 93.83,-1860 90,-1856.17 90,-1852.33 90,-1852.33 90,-1844.67 90,-1844.67 90,-1840.83 93.83,-1837 97.67,-1837 97.67,-1837 243.33,-1837 243.33,-1837 247.17,-1837 251,-1840.83 251,-1844.67 251,-1844.67 251,-1852.33 251,-1852.33 251,-1856.17 247.17,-1860 243.33,-1860"/>
<text text-anchor="middle" x="170.5" y="-1844.8" font-family="Arial" font-size="14.00" fill="#c6c5fe">app/routes/dashboard.js</text>
</g>
<!-- app.js&#45;&gt;app/routes/dashboard.js -->
<g id="edge9" class="edge">
<title>app.js&#45;&gt;app/routes/dashboard.js</title>
<path fill="none" stroke="#757575" d="M35.81,-2048.8C58.91,-2014.2 127.08,-1912.05 156.14,-1868.52"/>
<polygon fill="#757575" stroke="#757575" points="159.07,-1870.42 161.71,-1860.16 153.25,-1866.54 159.07,-1870.42"/>
</g>
<!-- app/routes/error.js -->
<g id="node11" class="node">
<title>app/routes/error.js</title>
<path fill="none" stroke="#cfffac" d="M225.33,-23C225.33,-23 115.67,-23 115.67,-23 111.83,-23 108,-19.17 108,-15.33 108,-15.33 108,-7.67 108,-7.67 108,-3.83 111.83,0 115.67,0 115.67,0 225.33,0 225.33,0 229.17,0 233,-3.83 233,-7.67 233,-7.67 233,-15.33 233,-15.33 233,-19.17 229.17,-23 225.33,-23"/>
<text text-anchor="middle" x="170.5" y="-7.8" font-family="Arial" font-size="14.00" fill="#cfffac">app/routes/error.js</text>
</g>
<!-- app.js&#45;&gt;app/routes/error.js -->
<g id="edge10" class="edge">
<title>app.js&#45;&gt;app/routes/error.js</title>
<path fill="none" stroke="#757575" d="M27.97,-2048.65C27.66,-1886.94 25.7,-123.38 90,-37.5 92.64,-33.97 95.78,-30.91 99.25,-28.26"/>
<polygon fill="#757575" stroke="#757575" points="101.32,-31.1 107.9,-22.79 97.58,-25.18 101.32,-31.1"/>
</g>
<!-- app/routes/public.js -->
<g id="node12" class="node">
<title>app/routes/public.js</title>
<path fill="none" stroke="#c6c5fe" d="M229.33,-832C229.33,-832 111.67,-832 111.67,-832 107.83,-832 104,-828.17 104,-824.33 104,-824.33 104,-816.67 104,-816.67 104,-812.83 107.83,-809 111.67,-809 111.67,-809 229.33,-809 229.33,-809 233.17,-809 237,-812.83 237,-816.67 237,-816.67 237,-824.33 237,-824.33 237,-828.17 233.17,-832 229.33,-832"/>
<text text-anchor="middle" x="170.5" y="-816.8" font-family="Arial" font-size="14.00" fill="#c6c5fe">app/routes/public.js</text>
</g>
<!-- app.js&#45;&gt;app/routes/public.js -->
<g id="edge11" class="edge">
<title>app.js&#45;&gt;app/routes/public.js</title>
<path fill="none" stroke="#757575" d="M29.36,-2048.62C42.63,-1932.32 149.29,-997.58 167.01,-842.32"/>
<polygon fill="#757575" stroke="#757575" points="170.51,-842.48 168.17,-832.15 163.56,-841.69 170.51,-842.48"/>
</g>
<!-- app/controllers/passport.js&#45;&gt;app/config/index.js -->
<g id="edge62" class="edge">
<title>app/controllers/passport.js&#45;&gt;app/config/index.js</title>
<path fill="none" stroke="#757575" d="M945.19,-2168.08C970.12,-2177.67 1007.4,-2190.93 1041,-2198.5 1142.83,-2221.45 1263.24,-2232.94 1338.64,-2238.3"/>
<polygon fill="#757575" stroke="#757575" points="1338.75,-2241.82 1348.97,-2239.02 1339.23,-2234.83 1338.75,-2241.82"/>
</g>
<!-- app/controllers/passport.js&#45;&gt;app/middleware/auth.js -->
<g id="edge63" class="edge">
<title>app/controllers/passport.js&#45;&gt;app/middleware/auth.js</title>
<path fill="none" stroke="#757575" d="M959.13,-2144.99C983.04,-2138.94 1013.49,-2131.88 1041,-2127.5 1095.3,-2118.85 1495.14,-2123.41 1534,-2084.5 1600.04,-2018.38 1546.78,-1756.02 1570,-1665.5 1588.47,-1593.48 1629.54,-1514.88 1649.98,-1478.34"/>
<polygon fill="#757575" stroke="#757575" points="1653.27,-1479.61 1655.16,-1469.19 1647.18,-1476.17 1653.27,-1479.61"/>
</g>
<!-- app/controllers/passport.js&#45;&gt;app/middleware/debugger.js -->
<g id="edge65" class="edge">
<title>app/controllers/passport.js&#45;&gt;app/middleware/debugger.js</title>
<path fill="none" stroke="#757575" d="M1002.64,-2159.23C1136.37,-2158.48 1393.17,-2136.3 1534,-1988.5 1614.13,-1904.4 1647.83,-1762.57 1658.22,-1708.42"/>
<polygon fill="#757575" stroke="#757575" points="1661.72,-1708.71 1660.09,-1698.24 1654.84,-1707.45 1661.72,-1708.71"/>
</g>
<!-- app/controllers/passport.js&#45;&gt;app/middleware/functions.js -->
<g id="edge66" class="edge">
<title>app/controllers/passport.js&#45;&gt;app/middleware/functions.js</title>
<path fill="none" stroke="#757575" d="M939.94,-2144.87C1008.9,-2110.29 1209.17,-2007.03 1256,-1951.5 1356.65,-1832.14 1397.22,-1640.19 1408.49,-1575.55"/>
<polygon fill="#757575" stroke="#757575" points="1412,-1575.77 1410.21,-1565.33 1405.1,-1574.61 1412,-1575.77"/>
</g>
<!-- app/controllers/passport.js&#45;&gt;app/models/index.js -->
<g id="edge67" class="edge">
<title>app/controllers/passport.js&#45;&gt;app/models/index.js</title>
<path fill="none" stroke="#757575" d="M941.34,-2144.96C961,-2134.7 987.91,-2118.01 1005,-2096.5 1016.65,-2081.83 1111.59,-1824.4 1139.69,-1747.82"/>
<polygon fill="#757575" stroke="#757575" points="1143.04,-1748.85 1143.2,-1738.26 1136.47,-1746.44 1143.04,-1748.85"/>
</g>
<!-- app/middleware/data.js -->
<g id="node15" class="node">
<title>app/middleware/data.js</title>
<path fill="none" stroke="#c6c5fe" d="M1218.83,-1276C1218.83,-1276 1078.17,-1276 1078.17,-1276 1074.33,-1276 1070.5,-1272.17 1070.5,-1268.33 1070.5,-1268.33 1070.5,-1260.67 1070.5,-1260.67 1070.5,-1256.83 1074.33,-1253 1078.17,-1253 1078.17,-1253 1218.83,-1253 1218.83,-1253 1222.67,-1253 1226.5,-1256.83 1226.5,-1260.67 1226.5,-1260.67 1226.5,-1268.33 1226.5,-1268.33 1226.5,-1272.17 1222.67,-1276 1218.83,-1276"/>
<text text-anchor="middle" x="1148.5" y="-1260.8" font-family="Arial" font-size="14.00" fill="#c6c5fe">app/middleware/data.js</text>
</g>
<!-- app/controllers/passport.js&#45;&gt;app/middleware/data.js -->
<g id="edge64" class="edge">
<title>app/controllers/passport.js&#45;&gt;app/middleware/data.js</title>
<path fill="none" stroke="#757575" d="M945.55,-2144.91C965.83,-2135.18 991.6,-2119.2 1005,-2096.5 1049.37,-2021.37 1026.72,-1791.58 1041,-1705.5 1068.11,-1542.07 1122.56,-1349.5 1141.13,-1285.99"/>
<polygon fill="#757575" stroke="#757575" points="1144.52,-1286.88 1143.98,-1276.3 1137.8,-1284.9 1144.52,-1286.88"/>
</g>
<!-- app/middleware/functions/datetime.js -->
<g id="node33" class="node">
<title>app/middleware/functions/datetime.js</title>
<path fill="none" stroke="#cfffac" d="M2024.33,-1698C2024.33,-1698 1799.67,-1698 1799.67,-1698 1795.83,-1698 1792,-1694.17 1792,-1690.33 1792,-1690.33 1792,-1682.67 1792,-1682.67 1792,-1678.83 1795.83,-1675 1799.67,-1675 1799.67,-1675 2024.33,-1675 2024.33,-1675 2028.17,-1675 2032,-1678.83 2032,-1682.67 2032,-1682.67 2032,-1690.33 2032,-1690.33 2032,-1694.17 2028.17,-1698 2024.33,-1698"/>
<text text-anchor="middle" x="1912" y="-1682.8" font-family="Arial" font-size="14.00" fill="#cfffac">app/middleware/functions/datetime.js</text>
</g>
<!-- app/middleware/debugger.js&#45;&gt;app/middleware/functions/datetime.js -->
<g id="edge102" class="edge">
<title>app/middleware/debugger.js&#45;&gt;app/middleware/functions/datetime.js</title>
<path fill="none" stroke="#757575" d="M1756.32,-1686.5C1764.51,-1686.5 1772.89,-1686.5 1781.3,-1686.5"/>
<polygon fill="#757575" stroke="#757575" points="1781.58,-1690 1791.58,-1686.5 1781.58,-1683 1781.58,-1690"/>
</g>
<!-- app/middleware/functions.js&#45;&gt;app/middleware/auth.js -->
<g id="edge103" class="edge">
<title>app/middleware/functions.js&#45;&gt;app/middleware/auth.js</title>
<path fill="none" stroke="#757575" d="M1443.91,-1541.92C1488.6,-1524.62 1572.84,-1492.01 1622.52,-1472.78"/>
<polygon fill="#757575" stroke="#757575" points="1623.92,-1475.99 1631.98,-1469.12 1621.39,-1469.47 1623.92,-1475.99"/>
</g>
<!-- app/middleware/functions.js&#45;&gt;app/middleware/debugger.js -->
<g id="edge104" class="edge">
<title>app/middleware/functions.js&#45;&gt;app/middleware/debugger.js</title>
<path fill="none" stroke="#757575" d="M1435.57,-1565.07C1479.73,-1588.75 1580.52,-1642.8 1631.4,-1670.09"/>
<polygon fill="#757575" stroke="#757575" points="1629.83,-1673.22 1640.3,-1674.86 1633.14,-1667.05 1629.83,-1673.22"/>
</g>
<!-- app/middleware/sessionManagement.js&#45;&gt;app/config/index.js -->
<g id="edge105" class="edge">
<title>app/middleware/sessionManagement.js&#45;&gt;app/config/index.js</title>
<path fill="none" stroke="#757575" d="M786.04,-2400.99C907.46,-2387.5 1097.39,-2360.6 1256,-2312.5 1301.57,-2298.68 1351.28,-2274.7 1382.05,-2258.71"/>
<polygon fill="#757575" stroke="#757575" points="1383.74,-2261.78 1390.97,-2254.03 1380.49,-2255.58 1383.74,-2261.78"/>
</g>
<!-- app/models/index.js&#45;&gt;app/config/index.js -->
<g id="edge109" class="edge">
<title>app/models/index.js&#45;&gt;app/config/index.js</title>
<path fill="none" stroke="#757575" d="M1155.48,-1738.25C1189.39,-1804.91 1357.69,-2135.75 1401.54,-2221.94"/>
<polygon fill="#757575" stroke="#757575" points="1398.49,-2223.67 1406.15,-2231 1404.73,-2220.5 1398.49,-2223.67"/>
</g>
<!-- app/controllers/apiCtl.js -->
<g id="node13" class="node">
<title>app/controllers/apiCtl.js</title>
<path fill="none" stroke="#c6c5fe" d="M986.33,-1660C986.33,-1660 844.67,-1660 844.67,-1660 840.83,-1660 837,-1656.17 837,-1652.33 837,-1652.33 837,-1644.67 837,-1644.67 837,-1640.83 840.83,-1637 844.67,-1637 844.67,-1637 986.33,-1637 986.33,-1637 990.17,-1637 994,-1640.83 994,-1644.67 994,-1644.67 994,-1652.33 994,-1652.33 994,-1656.17 990.17,-1660 986.33,-1660"/>
<text text-anchor="middle" x="915.5" y="-1644.8" font-family="Arial" font-size="14.00" fill="#c6c5fe">app/controllers/apiCtl.js</text>
</g>
<!-- app/routes/api.js&#45;&gt;app/controllers/apiCtl.js -->
<g id="edge110" class="edge">
<title>app/routes/api.js&#45;&gt;app/controllers/apiCtl.js</title>
<path fill="none" stroke="#757575" d="M204.93,-1632.09C298.16,-1662.84 568.71,-1741.28 790,-1698.5 823.31,-1692.06 859.02,-1676.76 883.62,-1664.77"/>
<polygon fill="#757575" stroke="#757575" points="885.4,-1667.79 892.79,-1660.2 882.28,-1661.52 885.4,-1667.79"/>
</g>
<!-- app/controllers/attack.js -->
<g id="node16" class="node">
<title>app/controllers/attack.js</title>
<path fill="none" stroke="#c6c5fe" d="M463.83,-1860C463.83,-1860 321.17,-1860 321.17,-1860 317.33,-1860 313.5,-1856.17 313.5,-1852.33 313.5,-1852.33 313.5,-1844.67 313.5,-1844.67 313.5,-1840.83 317.33,-1837 321.17,-1837 321.17,-1837 463.83,-1837 463.83,-1837 467.67,-1837 471.5,-1840.83 471.5,-1844.67 471.5,-1844.67 471.5,-1852.33 471.5,-1852.33 471.5,-1856.17 467.67,-1860 463.83,-1860"/>
<text text-anchor="middle" x="392.5" y="-1844.8" font-family="Arial" font-size="14.00" fill="#c6c5fe">app/controllers/attack.js</text>
</g>
<!-- app/routes/api.js&#45;&gt;app/controllers/attack.js -->
<g id="edge111" class="edge">
<title>app/routes/api.js&#45;&gt;app/controllers/attack.js</title>
<path fill="none" stroke="#757575" d="M177.37,-1632.23C192.35,-1661.27 234.56,-1737.72 287,-1786.5 307.45,-1805.52 334.7,-1821.45 356.25,-1832.4"/>
<polygon fill="#757575" stroke="#757575" points="354.88,-1835.63 365.4,-1836.93 357.99,-1829.36 354.88,-1835.63"/>
</g>
<!-- app/controllers/authCtl.js -->
<g id="node17" class="node">
<title>app/controllers/authCtl.js</title>
<path fill="none" stroke="#c6c5fe" d="M990.33,-2008C990.33,-2008 840.67,-2008 840.67,-2008 836.83,-2008 833,-2004.17 833,-2000.33 833,-2000.33 833,-1992.67 833,-1992.67 833,-1988.83 836.83,-1985 840.67,-1985 840.67,-1985 990.33,-1985 990.33,-1985 994.17,-1985 998,-1988.83 998,-1992.67 998,-1992.67 998,-2000.33 998,-2000.33 998,-2004.17 994.17,-2008 990.33,-2008"/>
<text text-anchor="middle" x="915.5" y="-1992.8" font-family="Arial" font-size="14.00" fill="#c6c5fe">app/controllers/authCtl.js</text>
</g>
<!-- app/routes/api.js&#45;&gt;app/controllers/authCtl.js -->
<g id="edge112" class="edge">
<title>app/routes/api.js&#45;&gt;app/controllers/authCtl.js</title>
<path fill="none" stroke="#757575" d="M175.43,-1632.16C190.65,-1676.68 246.89,-1835.21 287,-1868.5 361.49,-1930.32 406.56,-1890.73 498,-1922.5 514.54,-1928.25 517.19,-1933.61 534,-1938.5 644.46,-1970.6 676.32,-1958.93 790,-1976.5 804.15,-1978.69 819.2,-1981.06 833.76,-1983.39"/>
<polygon fill="#757575" stroke="#757575" points="833.32,-1986.86 843.75,-1984.98 834.42,-1979.95 833.32,-1986.86"/>
</g>
<!-- app/controllers/totalCtl.js -->
<g id="node19" class="node">
<title>app/controllers/totalCtl.js</title>
<path fill="none" stroke="#c6c5fe" d="M989.83,-1580C989.83,-1580 841.17,-1580 841.17,-1580 837.33,-1580 833.5,-1576.17 833.5,-1572.33 833.5,-1572.33 833.5,-1564.67 833.5,-1564.67 833.5,-1560.83 837.33,-1557 841.17,-1557 841.17,-1557 989.83,-1557 989.83,-1557 993.67,-1557 997.5,-1560.83 997.5,-1564.67 997.5,-1564.67 997.5,-1572.33 997.5,-1572.33 997.5,-1576.17 993.67,-1580 989.83,-1580"/>
<text text-anchor="middle" x="915.5" y="-1564.8" font-family="Arial" font-size="14.00" fill="#c6c5fe">app/controllers/totalCtl.js</text>
</g>
<!-- app/routes/api.js&#45;&gt;app/controllers/totalCtl.js -->
<g id="edge117" class="edge">
<title>app/routes/api.js&#45;&gt;app/controllers/totalCtl.js</title>
<path fill="none" stroke="#757575" d="M228.57,-1616.51C356.67,-1607.54 667.98,-1585.75 823.27,-1574.88"/>
<polygon fill="#757575" stroke="#757575" points="823.54,-1578.37 833.27,-1574.19 823.05,-1571.39 823.54,-1578.37"/>
</g>
<!-- app/controllers/feedCtl.js -->
<g id="node20" class="node">
<title>app/controllers/feedCtl.js</title>
<path fill="none" stroke="#c6c5fe" d="M736.83,-1364C736.83,-1364 587.17,-1364 587.17,-1364 583.33,-1364 579.5,-1360.17 579.5,-1356.33 579.5,-1356.33 579.5,-1348.67 579.5,-1348.67 579.5,-1344.83 583.33,-1341 587.17,-1341 587.17,-1341 736.83,-1341 736.83,-1341 740.67,-1341 744.5,-1344.83 744.5,-1348.67 744.5,-1348.67 744.5,-1356.33 744.5,-1356.33 744.5,-1360.17 740.67,-1364 736.83,-1364"/>
<text text-anchor="middle" x="662" y="-1348.8" font-family="Arial" font-size="14.00" fill="#c6c5fe">app/controllers/feedCtl.js</text>
</g>
<!-- app/routes/api.js&#45;&gt;app/controllers/feedCtl.js -->
<g id="edge113" class="edge">
<title>app/routes/api.js&#45;&gt;app/controllers/feedCtl.js</title>
<path fill="none" stroke="#757575" d="M183.73,-1608.86C204.19,-1589.68 247.07,-1550.75 287,-1522.5 390.74,-1449.11 415.29,-1423.84 534,-1378.5 546.77,-1373.62 560.64,-1369.59 574.35,-1366.29"/>
<polygon fill="#757575" stroke="#757575" points="575.33,-1369.65 584.3,-1364.01 573.77,-1362.83 575.33,-1369.65"/>
</g>
<!-- app/controllers/leaderboardCtl.js -->
<g id="node21" class="node">
<title>app/controllers/leaderboardCtl.js</title>
<path fill="none" stroke="#c6c5fe" d="M490.33,-918C490.33,-918 294.67,-918 294.67,-918 290.83,-918 287,-914.17 287,-910.33 287,-910.33 287,-902.67 287,-902.67 287,-898.83 290.83,-895 294.67,-895 294.67,-895 490.33,-895 490.33,-895 494.17,-895 498,-898.83 498,-902.67 498,-902.67 498,-910.33 498,-910.33 498,-914.17 494.17,-918 490.33,-918"/>
<text text-anchor="middle" x="392.5" y="-902.8" font-family="Arial" font-size="14.00" fill="#c6c5fe">app/controllers/leaderboardCtl.js</text>
</g>
<!-- app/routes/api.js&#45;&gt;app/controllers/leaderboardCtl.js -->
<g id="edge114" class="edge">
<title>app/routes/api.js&#45;&gt;app/controllers/leaderboardCtl.js</title>
<path fill="none" stroke="#757575" d="M174.6,-1608.84C187.55,-1560.37 238.84,-1370.12 287,-1215.5 320.89,-1106.7 366.07,-978.01 383.85,-927.94"/>
<polygon fill="#757575" stroke="#757575" points="387.25,-928.82 387.31,-918.22 380.66,-926.47 387.25,-928.82"/>
</g>
<!-- app/controllers/monsterCtl.js -->
<g id="node27" class="node">
<title>app/controllers/monsterCtl.js</title>
<path fill="none" stroke="#c6c5fe" d="M478.83,-747C478.83,-747 306.17,-747 306.17,-747 302.33,-747 298.5,-743.17 298.5,-739.33 298.5,-739.33 298.5,-731.67 298.5,-731.67 298.5,-727.83 302.33,-724 306.17,-724 306.17,-724 478.83,-724 478.83,-724 482.67,-724 486.5,-727.83 486.5,-731.67 486.5,-731.67 486.5,-739.33 486.5,-739.33 486.5,-743.17 482.67,-747 478.83,-747"/>
<text text-anchor="middle" x="392.5" y="-731.8" font-family="Arial" font-size="14.00" fill="#c6c5fe">app/controllers/monsterCtl.js</text>
</g>
<!-- app/routes/api.js&#45;&gt;app/controllers/monsterCtl.js -->
<g id="edge115" class="edge">
<title>app/routes/api.js&#45;&gt;app/controllers/monsterCtl.js</title>
<path fill="none" stroke="#757575" d="M171.41,-1608.76C171.22,-1538.03 175.72,-1162.36 287,-885.5 307.92,-833.46 349.75,-781.79 373.66,-754.77"/>
<polygon fill="#757575" stroke="#757575" points="376.38,-756.99 380.46,-747.21 371.17,-752.31 376.38,-756.99"/>
</g>
<!-- app/controllers/profileCtl.js -->
<g id="node29" class="node">
<title>app/controllers/profileCtl.js</title>
<path fill="none" stroke="#c6c5fe" d="M472.83,-1248C472.83,-1248 312.17,-1248 312.17,-1248 308.33,-1248 304.5,-1244.17 304.5,-1240.33 304.5,-1240.33 304.5,-1232.67 304.5,-1232.67 304.5,-1228.83 308.33,-1225 312.17,-1225 312.17,-1225 472.83,-1225 472.83,-1225 476.67,-1225 480.5,-1228.83 480.5,-1232.67 480.5,-1232.67 480.5,-1240.33 480.5,-1240.33 480.5,-1244.17 476.67,-1248 472.83,-1248"/>
<text text-anchor="middle" x="392.5" y="-1232.8" font-family="Arial" font-size="14.00" fill="#c6c5fe">app/controllers/profileCtl.js</text>
</g>
<!-- app/routes/api.js&#45;&gt;app/controllers/profileCtl.js -->
<g id="edge116" class="edge">
<title>app/routes/api.js&#45;&gt;app/controllers/profileCtl.js</title>
<path fill="none" stroke="#757575" d="M175.6,-1608.85C188.87,-1571.85 232.9,-1454.36 287,-1366.5 313.05,-1324.19 351.13,-1280.19 373.41,-1255.78"/>
<polygon fill="#757575" stroke="#757575" points="376.12,-1258 380.32,-1248.28 370.97,-1253.26 376.12,-1258"/>
</g>
<!-- app/routes/dashboard.js&#45;&gt;app/controllers/attack.js -->
<g id="edge118" class="edge">
<title>app/routes/dashboard.js&#45;&gt;app/controllers/attack.js</title>
<path fill="none" stroke="#757575" d="M251.24,-1848.5C268.09,-1848.5 285.98,-1848.5 303.14,-1848.5"/>
<polygon fill="#757575" stroke="#757575" points="303.14,-1852 313.14,-1848.5 303.14,-1845 303.14,-1852"/>
</g>
<!-- app/routes/dashboard.js&#45;&gt;app/controllers/authCtl.js -->
<g id="edge119" class="edge">
<title>app/routes/dashboard.js&#45;&gt;app/controllers/authCtl.js</title>
<path fill="none" stroke="#757575" d="M185.44,-1860.05C206.21,-1876.62 247.1,-1906.84 287,-1922.5 375.7,-1957.31 406.92,-1932.5 498,-1960.5 514.74,-1965.64 516.97,-1972.42 534,-1976.5 630.5,-1999.64 744.56,-2002.53 822.47,-2000.95"/>
<polygon fill="#757575" stroke="#757575" points="822.82,-2004.45 832.74,-2000.72 822.66,-1997.45 822.82,-2004.45"/>
</g>
<!-- app/controllers/cronCtl.js -->
<g id="node18" class="node">
<title>app/controllers/cronCtl.js</title>
<path fill="none" stroke="#c6c5fe" d="M736.83,-2090C736.83,-2090 587.17,-2090 587.17,-2090 583.33,-2090 579.5,-2086.17 579.5,-2082.33 579.5,-2082.33 579.5,-2074.67 579.5,-2074.67 579.5,-2070.83 583.33,-2067 587.17,-2067 587.17,-2067 736.83,-2067 736.83,-2067 740.67,-2067 744.5,-2070.83 744.5,-2074.67 744.5,-2074.67 744.5,-2082.33 744.5,-2082.33 744.5,-2086.17 740.67,-2090 736.83,-2090"/>
<text text-anchor="middle" x="662" y="-2074.8" font-family="Arial" font-size="14.00" fill="#c6c5fe">app/controllers/cronCtl.js</text>
</g>
<!-- app/routes/dashboard.js&#45;&gt;app/controllers/cronCtl.js -->
<g id="edge120" class="edge">
<title>app/routes/dashboard.js&#45;&gt;app/controllers/cronCtl.js</title>
<path fill="none" stroke="#757575" d="M179.89,-1860.12C197.17,-1883.14 239.12,-1934.54 287,-1960.5 371.55,-2006.34 416.23,-1957.87 498,-2008.5 519.48,-2021.8 512.37,-2039.43 534,-2052.5 544.79,-2059.02 556.94,-2063.93 569.34,-2067.63"/>
<polygon fill="#757575" stroke="#757575" points="568.75,-2071.09 579.31,-2070.34 570.58,-2064.34 568.75,-2071.09"/>
</g>
<!-- app/routes/dashboard.js&#45;&gt;app/controllers/totalCtl.js -->
<g id="edge123" class="edge">
<title>app/routes/dashboard.js&#45;&gt;app/controllers/totalCtl.js</title>
<path fill="none" stroke="#757575" d="M202.48,-1836.83C320.51,-1792.35 742.02,-1633.5 874.41,-1583.61"/>
<polygon fill="#757575" stroke="#757575" points="875.68,-1586.87 883.8,-1580.07 873.21,-1580.32 875.68,-1586.87"/>
</g>
<!-- app/routes/dashboard.js&#45;&gt;app/controllers/leaderboardCtl.js -->
<g id="edge121" class="edge">
<title>app/routes/dashboard.js&#45;&gt;app/controllers/leaderboardCtl.js</title>
<path fill="none" stroke="#757575" d="M177.38,-1836.68C192.59,-1805.51 233.25,-1718.13 251,-1640.5 293.25,-1455.7 248.35,-1401.08 287,-1215.5 310.28,-1103.7 361.73,-976.3 382.52,-927.25"/>
<polygon fill="#757575" stroke="#757575" points="385.76,-928.57 386.47,-918 379.32,-925.82 385.76,-928.57"/>
</g>
<!-- app/routes/dashboard.js&#45;&gt;app/controllers/profileCtl.js -->
<g id="edge122" class="edge">
<title>app/routes/dashboard.js&#45;&gt;app/controllers/profileCtl.js</title>
<path fill="none" stroke="#757575" d="M176.27,-1836.88C189.08,-1805.47 225.02,-1716.19 251,-1640.5 268.8,-1588.64 269.58,-1574.49 287,-1522.5 320.48,-1422.54 365.21,-1304.77 383.35,-1257.59"/>
<polygon fill="#757575" stroke="#757575" points="386.66,-1258.72 386.99,-1248.13 380.13,-1256.21 386.66,-1258.72"/>
</g>
<!-- app/controllers/uploadCtl.js -->
<g id="node30" class="node">
<title>app/controllers/uploadCtl.js</title>
<path fill="none" stroke="#c6c5fe" d="M997.33,-2088C997.33,-2088 833.67,-2088 833.67,-2088 829.83,-2088 826,-2084.17 826,-2080.33 826,-2080.33 826,-2072.67 826,-2072.67 826,-2068.83 829.83,-2065 833.67,-2065 833.67,-2065 997.33,-2065 997.33,-2065 1001.17,-2065 1005,-2068.83 1005,-2072.67 1005,-2072.67 1005,-2080.33 1005,-2080.33 1005,-2084.17 1001.17,-2088 997.33,-2088"/>
<text text-anchor="middle" x="915.5" y="-2072.8" font-family="Arial" font-size="14.00" fill="#c6c5fe">app/controllers/uploadCtl.js</text>
</g>
<!-- app/routes/dashboard.js&#45;&gt;app/controllers/uploadCtl.js -->
<g id="edge124" class="edge">
<title>app/routes/dashboard.js&#45;&gt;app/controllers/uploadCtl.js</title>
<path fill="none" stroke="#757575" d="M177.69,-1860.35C192.78,-1888.16 234.13,-1958.34 287,-1998.5 381.31,-2070.14 417.75,-2075.86 534,-2098.5 643.71,-2119.87 774.3,-2103.46 850.45,-2089.82"/>
<polygon fill="#757575" stroke="#757575" points="851.17,-2093.25 860.37,-2088.01 849.9,-2086.36 851.17,-2093.25"/>
</g>
<!-- app/controllers/userCtl.js -->
<g id="node31" class="node">
<title>app/controllers/userCtl.js</title>
<path fill="none" stroke="#c6c5fe" d="M467.33,-1555C467.33,-1555 317.67,-1555 317.67,-1555 313.83,-1555 310,-1551.17 310,-1547.33 310,-1547.33 310,-1539.67 310,-1539.67 310,-1535.83 313.83,-1532 317.67,-1532 317.67,-1532 467.33,-1532 467.33,-1532 471.17,-1532 475,-1535.83 475,-1539.67 475,-1539.67 475,-1547.33 475,-1547.33 475,-1551.17 471.17,-1555 467.33,-1555"/>
<text text-anchor="middle" x="392.5" y="-1539.8" font-family="Arial" font-size="14.00" fill="#c6c5fe">app/controllers/userCtl.js</text>
</g>
<!-- app/routes/dashboard.js&#45;&gt;app/controllers/userCtl.js -->
<g id="edge125" class="edge">
<title>app/routes/dashboard.js&#45;&gt;app/controllers/userCtl.js</title>
<path fill="none" stroke="#757575" d="M179.48,-1836.72C198.02,-1809.4 245.64,-1739.68 287,-1682.5 318,-1639.64 355.51,-1590.35 376.1,-1563.49"/>
<polygon fill="#757575" stroke="#757575" points="379.09,-1565.35 382.41,-1555.29 373.54,-1561.09 379.09,-1565.35"/>
</g>
<!-- app/routes/public.js&#45;&gt;app/middleware/functions.js -->
<g id="edge136" class="edge">
<title>app/routes/public.js&#45;&gt;app/middleware/functions.js</title>
<path fill="none" stroke="#757575" d="M174.33,-808.96C183.5,-774.33 216.06,-671.28 287,-631.5 475.14,-525.99 1107.7,-531.86 1256,-688.5 1301.61,-736.68 1276.23,-1220.06 1292,-1284.5 1316.01,-1382.63 1374.43,-1489.5 1399.85,-1533.19"/>
<polygon fill="#757575" stroke="#757575" points="1396.93,-1535.14 1405.02,-1541.98 1402.97,-1531.59 1396.93,-1535.14"/>
</g>
<!-- app/data/consumables.js -->
<g id="node14" class="node">
<title>app/data/consumables.js</title>
<path fill="none" stroke="#cfffac" d="M1224.33,-991C1224.33,-991 1072.67,-991 1072.67,-991 1068.83,-991 1065,-987.17 1065,-983.33 1065,-983.33 1065,-975.67 1065,-975.67 1065,-971.83 1068.83,-968 1072.67,-968 1072.67,-968 1224.33,-968 1224.33,-968 1228.17,-968 1232,-971.83 1232,-975.67 1232,-975.67 1232,-983.33 1232,-983.33 1232,-987.17 1228.17,-991 1224.33,-991"/>
<text text-anchor="middle" x="1148.5" y="-975.8" font-family="Arial" font-size="14.00" fill="#cfffac">app/data/consumables.js</text>
</g>
<!-- app/routes/public.js&#45;&gt;app/data/consumables.js -->
<g id="edge132" class="edge">
<title>app/routes/public.js&#45;&gt;app/data/consumables.js</title>
<path fill="none" stroke="#757575" d="M179.71,-808.8C196.65,-785.75 238.03,-734.95 287,-714.5 581.48,-591.54 737.31,-546.77 1005,-720.5 1092.23,-777.11 1130.65,-906.37 1142.88,-957.81"/>
<polygon fill="#757575" stroke="#757575" points="1139.52,-958.84 1145.15,-967.81 1146.35,-957.28 1139.52,-958.84"/>
</g>
<!-- app/routes/public.js&#45;&gt;app/controllers/feedCtl.js -->
<g id="edge126" class="edge">
<title>app/routes/public.js&#45;&gt;app/controllers/feedCtl.js</title>
<path fill="none" stroke="#757575" d="M173.04,-832.3C181.51,-895.43 224.29,-1192.7 287,-1256.5 360.6,-1331.38 484.15,-1350.57 568.97,-1354.18"/>
<polygon fill="#757575" stroke="#757575" points="568.99,-1357.69 579.11,-1354.55 569.25,-1350.69 568.99,-1357.69"/>
</g>
<!-- app/routes/public.js&#45;&gt;app/controllers/leaderboardCtl.js -->
<g id="edge127" class="edge">
<title>app/routes/public.js&#45;&gt;app/controllers/leaderboardCtl.js</title>
<path fill="none" stroke="#757575" d="M201.17,-832.1C240.32,-847.4 309.3,-874.37 352.59,-891.29"/>
<polygon fill="#757575" stroke="#757575" points="351.36,-894.57 361.95,-894.95 353.91,-888.05 351.36,-894.57"/>
</g>
<!-- app/data/attacks.js -->
<g id="node22" class="node">
<title>app/data/attacks.js</title>
<path fill="none" stroke="#cfffac" d="M1469.83,-934C1469.83,-934 1356.17,-934 1356.17,-934 1352.33,-934 1348.5,-930.17 1348.5,-926.33 1348.5,-926.33 1348.5,-918.67 1348.5,-918.67 1348.5,-914.83 1352.33,-911 1356.17,-911 1356.17,-911 1469.83,-911 1469.83,-911 1473.67,-911 1477.5,-914.83 1477.5,-918.67 1477.5,-918.67 1477.5,-926.33 1477.5,-926.33 1477.5,-930.17 1473.67,-934 1469.83,-934"/>
<text text-anchor="middle" x="1413" y="-918.8" font-family="Arial" font-size="14.00" fill="#cfffac">app/data/attacks.js</text>
</g>
<!-- app/routes/public.js&#45;&gt;app/data/attacks.js -->
<g id="edge130" class="edge">
<title>app/routes/public.js&#45;&gt;app/data/attacks.js</title>
<path fill="none" stroke="#757575" d="M171.85,-808.88C174.38,-732.69 192.7,-305.21 287,-227.5 373.26,-156.42 679.83,-208.6 790,-227.5 889.89,-244.64 936.93,-228.41 1005,-303.5 1049.89,-353.02 1000.37,-396.44 1041,-449.5 1107.4,-536.21 1182.34,-487.86 1256,-568.5 1350.25,-671.69 1394.35,-841.02 1407.56,-900.79"/>
<polygon fill="#757575" stroke="#757575" points="1404.21,-901.88 1409.73,-910.93 1411.06,-900.42 1404.21,-901.88"/>
</g>
<!-- app/data/badges.js -->
<g id="node23" class="node">
<title>app/data/badges.js</title>
<path fill="none" stroke="#cfffac" d="M719.83,-1056C719.83,-1056 604.17,-1056 604.17,-1056 600.33,-1056 596.5,-1052.17 596.5,-1048.33 596.5,-1048.33 596.5,-1040.67 596.5,-1040.67 596.5,-1036.83 600.33,-1033 604.17,-1033 604.17,-1033 719.83,-1033 719.83,-1033 723.67,-1033 727.5,-1036.83 727.5,-1040.67 727.5,-1040.67 727.5,-1048.33 727.5,-1048.33 727.5,-1052.17 723.67,-1056 719.83,-1056"/>
<text text-anchor="middle" x="662" y="-1040.8" font-family="Arial" font-size="14.00" fill="#cfffac">app/data/badges.js</text>
</g>
<!-- app/routes/public.js&#45;&gt;app/data/badges.js -->
<g id="edge131" class="edge">
<title>app/routes/public.js&#45;&gt;app/data/badges.js</title>
<path fill="none" stroke="#757575" d="M176.78,-832.3C190.42,-861.33 229.8,-936.45 287,-972.5 378.55,-1030.19 505.89,-1043.55 585.85,-1045.67"/>
<polygon fill="#757575" stroke="#757575" points="586.25,-1049.18 596.32,-1045.9 586.4,-1042.18 586.25,-1049.18"/>
</g>
<!-- app/data/disconnect/services&#45;by&#45;url.js -->
<g id="node24" class="node">
<title>app/data/disconnect/services&#45;by&#45;url.js</title>
<path fill="none" stroke="#cfffac" d="M1526.33,-291C1526.33,-291 1299.67,-291 1299.67,-291 1295.83,-291 1292,-287.17 1292,-283.33 1292,-283.33 1292,-275.67 1292,-275.67 1292,-271.83 1295.83,-268 1299.67,-268 1299.67,-268 1526.33,-268 1526.33,-268 1530.17,-268 1534,-271.83 1534,-275.67 1534,-275.67 1534,-283.33 1534,-283.33 1534,-287.17 1530.17,-291 1526.33,-291"/>
<text text-anchor="middle" x="1413" y="-275.8" font-family="Arial" font-size="14.00" fill="#cfffac">app/data/disconnect/services&#45;by&#45;url.js</text>
</g>
<!-- app/routes/public.js&#45;&gt;app/data/disconnect/services&#45;by&#45;url.js -->
<g id="edge133" class="edge">
<title>app/routes/public.js&#45;&gt;app/data/disconnect/services&#45;by&#45;url.js</title>
<path fill="none" stroke="#757575" d="M171.67,-808.95C173.11,-728.29 185.87,-249.69 287,-157.5 410.24,-45.16 494.24,-127.5 661,-127.5 661,-127.5 661,-127.5 916.5,-127.5 1099.87,-127.5 1305.28,-223.82 1381.45,-263.11"/>
<polygon fill="#757575" stroke="#757575" points="1380.02,-266.31 1390.5,-267.83 1383.25,-260.1 1380.02,-266.31"/>
</g>
<!-- app/data/disguises.js -->
<g id="node25" class="node">
<title>app/data/disguises.js</title>
<path fill="none" stroke="#cfffac" d="M725.83,-1015C725.83,-1015 598.17,-1015 598.17,-1015 594.33,-1015 590.5,-1011.17 590.5,-1007.33 590.5,-1007.33 590.5,-999.67 590.5,-999.67 590.5,-995.83 594.33,-992 598.17,-992 598.17,-992 725.83,-992 725.83,-992 729.67,-992 733.5,-995.83 733.5,-999.67 733.5,-999.67 733.5,-1007.33 733.5,-1007.33 733.5,-1011.17 729.67,-1015 725.83,-1015"/>
<text text-anchor="middle" x="662" y="-999.8" font-family="Arial" font-size="14.00" fill="#cfffac">app/data/disguises.js</text>
</g>
<!-- app/routes/public.js&#45;&gt;app/data/disguises.js -->
<g id="edge134" class="edge">
<title>app/routes/public.js&#45;&gt;app/data/disguises.js</title>
<path fill="none" stroke="#757575" d="M180.55,-832.25C198.34,-854.47 240.24,-902.57 287,-926.5 380.47,-974.34 501.44,-992.46 580.11,-999.32"/>
<polygon fill="#757575" stroke="#757575" points="580.19,-1002.84 590.44,-1000.18 580.77,-995.86 580.19,-1002.84"/>
</g>
<!-- app/data/monsters&#45;by&#45;id.js -->
<g id="node26" class="node">
<title>app/data/monsters&#45;by&#45;id.js</title>
<path fill="none" stroke="#cfffac" d="M1493.33,-557C1493.33,-557 1332.67,-557 1332.67,-557 1328.83,-557 1325,-553.17 1325,-549.33 1325,-549.33 1325,-541.67 1325,-541.67 1325,-537.83 1328.83,-534 1332.67,-534 1332.67,-534 1493.33,-534 1493.33,-534 1497.17,-534 1501,-537.83 1501,-541.67 1501,-541.67 1501,-549.33 1501,-549.33 1501,-553.17 1497.17,-557 1493.33,-557"/>
<text text-anchor="middle" x="1413" y="-541.8" font-family="Arial" font-size="14.00" fill="#cfffac">app/data/monsters&#45;by&#45;id.js</text>
</g>
<!-- app/routes/public.js&#45;&gt;app/data/monsters&#45;by&#45;id.js -->
<g id="edge135" class="edge">
<title>app/routes/public.js&#45;&gt;app/data/monsters&#45;by&#45;id.js</title>
<path fill="none" stroke="#757575" d="M171.69,-808.88C173.28,-729.78 186.74,-271.13 287,-187.5 359.02,-127.43 404.22,-187.02 498,-187.5 724.1,-188.66 796.7,-141.56 1005,-229.5 1178.6,-302.79 1342.07,-469.41 1394.55,-526.16"/>
<polygon fill="#757575" stroke="#757575" points="1392.13,-528.7 1401.47,-533.71 1397.29,-523.97 1392.13,-528.7"/>
</g>
<!-- app/routes/public.js&#45;&gt;app/controllers/monsterCtl.js -->
<g id="edge128" class="edge">
<title>app/routes/public.js&#45;&gt;app/controllers/monsterCtl.js</title>
<path fill="none" stroke="#757575" d="M201.63,-808.86C240.71,-793.76 308.99,-767.38 352.14,-750.71"/>
<polygon fill="#757575" stroke="#757575" points="353.67,-753.87 361.74,-747 351.15,-747.34 353.67,-753.87"/>
</g>
<!-- app/routes/public.js&#45;&gt;app/controllers/profileCtl.js -->
<g id="edge129" class="edge">
<title>app/routes/public.js&#45;&gt;app/controllers/profileCtl.js</title>
<path fill="none" stroke="#757575" d="M177.44,-832.15C194.36,-865.3 244.35,-962.97 287,-1043.5 320.42,-1106.6 360.9,-1180.73 380.2,-1215.93"/>
<polygon fill="#757575" stroke="#757575" points="377.18,-1217.71 385.06,-1224.79 383.32,-1214.34 377.18,-1217.71"/>
</g>
<!-- app/controllers/apiCtl.js&#45;&gt;app/middleware/auth.js -->
<g id="edge13" class="edge">
<title>app/controllers/apiCtl.js&#45;&gt;app/middleware/auth.js</title>
<path fill="none" stroke="#757575" d="M994.13,-1654.68C1115.75,-1661.05 1355.72,-1660.03 1534,-1573.5 1581.96,-1550.22 1625.03,-1503.34 1646.88,-1476.86"/>
<polygon fill="#757575" stroke="#757575" points="1649.64,-1479.01 1653.21,-1469.03 1644.2,-1474.61 1649.64,-1479.01"/>
</g>
<!-- app/controllers/apiCtl.js&#45;&gt;app/middleware/debugger.js -->
<g id="edge15" class="edge">
<title>app/controllers/apiCtl.js&#45;&gt;app/middleware/debugger.js</title>
<path fill="none" stroke="#757575" d="M994.12,-1658.12C1009.63,-1659.79 1025.82,-1661.35 1041,-1662.5 1223.34,-1676.26 1436.44,-1682.32 1559.64,-1684.84"/>
<polygon fill="#757575" stroke="#757575" points="1559.75,-1688.35 1569.82,-1685.05 1559.89,-1681.35 1559.75,-1688.35"/>
</g>
<!-- app/controllers/apiCtl.js&#45;&gt;app/middleware/functions.js -->
<g id="edge16" class="edge">
<title>app/controllers/apiCtl.js&#45;&gt;app/middleware/functions.js</title>
<path fill="none" stroke="#757575" d="M982.64,-1636.98C1051.13,-1624.92 1161.21,-1605.18 1256,-1586.5 1286.86,-1580.42 1321.05,-1573.24 1349.54,-1567.13"/>
<polygon fill="#757575" stroke="#757575" points="1350.32,-1570.54 1359.36,-1565.02 1348.85,-1563.7 1350.32,-1570.54"/>
</g>
<!-- app/controllers/apiCtl.js&#45;&gt;app/models/index.js -->
<g id="edge17" class="edge">
<title>app/controllers/apiCtl.js&#45;&gt;app/models/index.js</title>
<path fill="none" stroke="#757575" d="M966.77,-1660.06C979.57,-1663.86 993.06,-1668.65 1005,-1674.5 1022.72,-1683.18 1023.08,-1692.23 1041,-1700.5 1051.09,-1705.16 1062.12,-1709.04 1073.13,-1712.27"/>
<polygon fill="#757575" stroke="#757575" points="1072.21,-1715.64 1082.78,-1714.93 1074.08,-1708.9 1072.21,-1715.64"/>
</g>
<!-- app/controllers/apiCtl.js&#45;&gt;app/data/consumables.js -->
<g id="edge12" class="edge">
<title>app/controllers/apiCtl.js&#45;&gt;app/data/consumables.js</title>
<path fill="none" stroke="#757575" d="M945.46,-1636.86C965.71,-1627.1 991.46,-1611.12 1005,-1588.5 1044.6,-1522.37 1022.4,-1318.31 1041,-1243.5 1064.46,-1149.17 1114.73,-1043.96 1136.77,-1000.26"/>
<polygon fill="#757575" stroke="#757575" points="1139.97,-1001.7 1141.38,-991.2 1133.73,-998.53 1139.97,-1001.7"/>
</g>
<!-- app/controllers/apiCtl.js&#45;&gt;app/middleware/data.js -->
<g id="edge14" class="edge">
<title>app/controllers/apiCtl.js&#45;&gt;app/middleware/data.js</title>
<path fill="none" stroke="#757575" d="M940.68,-1636.95C960.22,-1626.59 987.29,-1609.75 1005,-1588.5 1085.95,-1491.35 1128.83,-1341.03 1142.55,-1285.8"/>
<polygon fill="#757575" stroke="#757575" points="1145.95,-1286.6 1144.9,-1276.06 1139.15,-1284.96 1145.95,-1286.6"/>
</g>
<!-- app/middleware/data.js&#45;&gt;app/middleware/functions.js -->
<g id="edge101" class="edge">
<title>app/middleware/data.js&#45;&gt;app/middleware/functions.js</title>
<path fill="none" stroke="#757575" d="M1160.12,-1276.19C1200.44,-1320.58 1344.38,-1479.05 1394.58,-1534.32"/>
<polygon fill="#757575" stroke="#757575" points="1392.23,-1536.94 1401.54,-1541.98 1397.41,-1532.23 1392.23,-1536.94"/>
</g>
<!-- app/middleware/data.js&#45;&gt;app/data/attacks.js -->
<g id="edge97" class="edge">
<title>app/middleware/data.js&#45;&gt;app/data/attacks.js</title>
<path fill="none" stroke="#757575" d="M1226.62,-1254.29C1237.21,-1250.52 1247.39,-1245.41 1256,-1238.5 1354.67,-1159.38 1395.71,-1001.99 1407.85,-944.33"/>
<polygon fill="#757575" stroke="#757575" points="1411.35,-944.67 1409.9,-934.18 1404.49,-943.28 1411.35,-944.67"/>
</g>
<!-- app/middleware/data.js&#45;&gt;app/data/disconnect/services&#45;by&#45;url.js -->
<g id="edge98" class="edge">
<title>app/middleware/data.js&#45;&gt;app/data/disconnect/services&#45;by&#45;url.js</title>
<path fill="none" stroke="#757575" d="M1155.74,-1252.78C1174.76,-1216.43 1232.15,-1101.88 1256,-999.5 1304.04,-793.31 1236.44,-728.8 1292,-524.5 1316.22,-435.46 1373.07,-340.05 1398.87,-299.53"/>
<polygon fill="#757575" stroke="#757575" points="1401.83,-301.4 1404.3,-291.09 1395.94,-297.61 1401.83,-301.4"/>
</g>
<!-- app/middleware/data.js&#45;&gt;app/data/monsters&#45;by&#45;id.js -->
<g id="edge99" class="edge">
<title>app/middleware/data.js&#45;&gt;app/data/monsters&#45;by&#45;id.js</title>
<path fill="none" stroke="#757575" d="M1167.78,-1252.89C1192.37,-1236.17 1235.4,-1202.86 1256,-1162.5 1309.24,-1058.21 1265.18,-1015.49 1292,-901.5 1322.66,-771.18 1381.31,-620.96 1403.34,-566.55"/>
<polygon fill="#757575" stroke="#757575" points="1406.6,-567.83 1407.13,-557.25 1400.12,-565.19 1406.6,-567.83"/>
</g>
<!-- app/data/monsters&#45;by&#45;tag.js -->
<g id="node32" class="node">
<title>app/data/monsters&#45;by&#45;tag.js</title>
<path fill="none" stroke="#cfffac" d="M1497.83,-1276C1497.83,-1276 1328.17,-1276 1328.17,-1276 1324.33,-1276 1320.5,-1272.17 1320.5,-1268.33 1320.5,-1268.33 1320.5,-1260.67 1320.5,-1260.67 1320.5,-1256.83 1324.33,-1253 1328.17,-1253 1328.17,-1253 1497.83,-1253 1497.83,-1253 1501.67,-1253 1505.5,-1256.83 1505.5,-1260.67 1505.5,-1260.67 1505.5,-1268.33 1505.5,-1268.33 1505.5,-1272.17 1501.67,-1276 1497.83,-1276"/>
<text text-anchor="middle" x="1413" y="-1260.8" font-family="Arial" font-size="14.00" fill="#cfffac">app/data/monsters&#45;by&#45;tag.js</text>
</g>
<!-- app/middleware/data.js&#45;&gt;app/data/monsters&#45;by&#45;tag.js -->
<g id="edge100" class="edge">
<title>app/middleware/data.js&#45;&gt;app/data/monsters&#45;by&#45;tag.js</title>
<path fill="none" stroke="#757575" d="M1226.84,-1264.5C1252.97,-1264.5 1282.55,-1264.5 1310.28,-1264.5"/>
<polygon fill="#757575" stroke="#757575" points="1310.4,-1268 1320.4,-1264.5 1310.4,-1261 1310.4,-1268"/>
</g>
<!-- app/controllers/attack.js&#45;&gt;app/middleware/auth.js -->
<g id="edge18" class="edge">
<title>app/controllers/attack.js&#45;&gt;app/middleware/auth.js</title>
<path fill="none" stroke="#757575" d="M471.53,-1849.15C491.87,-1849.3 513.75,-1849.43 534,-1849.5 647.78,-1849.9 676.59,-1858.67 790,-1849.5 1001.42,-1832.4 1056.29,-1817.95 1256,-1746.5 1383.55,-1700.87 1427.42,-1705.13 1534,-1621.5 1586.76,-1580.1 1630.32,-1512.49 1650.27,-1478.46"/>
<polygon fill="#757575" stroke="#757575" points="1653.52,-1479.83 1655.48,-1469.42 1647.45,-1476.34 1653.52,-1479.83"/>
</g>
<!-- app/controllers/attack.js&#45;&gt;app/models/index.js -->
<g id="edge19" class="edge">
<title>app/controllers/attack.js&#45;&gt;app/models/index.js</title>
<path fill="none" stroke="#757575" d="M471.68,-1847.03C551.88,-1844.75 680.09,-1839 790,-1824.5 886.7,-1811.74 916.4,-1821.29 1005,-1780.5 1023.41,-1772.02 1022.75,-1761.32 1041,-1752.5 1050.64,-1747.84 1061.19,-1743.97 1071.78,-1740.77"/>
<polygon fill="#757575" stroke="#757575" points="1072.83,-1744.11 1081.5,-1738.02 1070.92,-1737.38 1072.83,-1744.11"/>
</g>
<!-- app/controllers/authCtl.js&#45;&gt;app/config/index.js -->
<g id="edge20" class="edge">
<title>app/controllers/authCtl.js&#45;&gt;app/config/index.js</title>
<path fill="none" stroke="#757575" d="M939.73,-2008.04C1020.12,-2047.94 1286.57,-2180.23 1379.61,-2226.42"/>
<polygon fill="#757575" stroke="#757575" points="1378.3,-2229.68 1388.82,-2230.99 1381.42,-2223.41 1378.3,-2229.68"/>
</g>
<!-- app/controllers/authCtl.js&#45;&gt;app/middleware/auth.js -->
<g id="edge21" class="edge">
<title>app/controllers/authCtl.js&#45;&gt;app/middleware/auth.js</title>
<path fill="none" stroke="#757575" d="M998.03,-1994.49C1148.3,-1989 1460.34,-1968.74 1534,-1894.5 1606.57,-1821.37 1540.92,-1764.34 1570,-1665.5 1590.99,-1594.17 1630.87,-1515.24 1650.5,-1478.48"/>
<polygon fill="#757575" stroke="#757575" points="1653.8,-1479.74 1655.47,-1469.27 1647.64,-1476.41 1653.8,-1479.74"/>
</g>
<!-- app/controllers/authCtl.js&#45;&gt;app/middleware/debugger.js -->
<g id="edge22" class="edge">
<title>app/controllers/authCtl.js&#45;&gt;app/middleware/debugger.js</title>
<path fill="none" stroke="#757575" d="M979.03,-2008.03C1098.36,-2026.44 1361.98,-2049.46 1534,-1932.5 1614.13,-1878.01 1647.38,-1757.14 1657.94,-1707.95"/>
<polygon fill="#757575" stroke="#757575" points="1661.38,-1708.57 1659.95,-1698.08 1654.52,-1707.17 1661.38,-1708.57"/>
</g>
<!-- app/controllers/authCtl.js&#45;&gt;app/middleware/functions.js -->
<g id="edge23" class="edge">
<title>app/controllers/authCtl.js&#45;&gt;app/middleware/functions.js</title>
<path fill="none" stroke="#757575" d="M984.08,-1984.91C991.87,-1981.31 999.11,-1976.61 1005,-1970.5 1050.17,-1923.61 994.31,-1873.87 1041,-1828.5 1111.22,-1760.27 1174.87,-1835.31 1256,-1780.5 1334.67,-1727.35 1385.14,-1620.11 1403.84,-1574.64"/>
<polygon fill="#757575" stroke="#757575" points="1407.15,-1575.78 1407.63,-1565.2 1400.66,-1573.18 1407.15,-1575.78"/>
</g>
<!-- app/controllers/authCtl.js&#45;&gt;app/models/index.js -->
<g id="edge24" class="edge">
<title>app/controllers/authCtl.js&#45;&gt;app/models/index.js</title>
<path fill="none" stroke="#757575" d="M940.83,-1984.99C961.02,-1974.2 988.92,-1956.19 1005,-1932.5 1041.57,-1878.64 1002.17,-1842.76 1041,-1790.5 1057.32,-1768.53 1083.62,-1752.62 1106.01,-1742.15"/>
<polygon fill="#757575" stroke="#757575" points="1107.61,-1745.27 1115.32,-1738 1104.76,-1738.88 1107.61,-1745.27"/>
</g>
<!-- app/controllers/cronCtl.js&#45;&gt;app/config/index.js -->
<g id="edge25" class="edge">
<title>app/controllers/cronCtl.js&#45;&gt;app/config/index.js</title>
<path fill="none" stroke="#757575" d="M678.8,-2090.23C706.96,-2110.62 768.32,-2152.69 826,-2176.5 999.39,-2248.08 1224.75,-2251.01 1338.88,-2246.89"/>
<polygon fill="#757575" stroke="#757575" points="1339.05,-2250.38 1348.91,-2246.49 1338.78,-2243.39 1339.05,-2250.38"/>
</g>
<!-- app/controllers/cronCtl.js&#45;&gt;app/middleware/auth.js -->
<g id="edge28" class="edge">
<title>app/controllers/cronCtl.js&#45;&gt;app/middleware/auth.js</title>
<path fill="none" stroke="#757575" d="M744.52,-2089.28C770.51,-2092.24 799.42,-2095.04 826,-2096.5 905.44,-2100.87 926.2,-2107.46 1005,-2096.5 1247.05,-2062.85 1374.53,-2131.68 1534,-1946.5 1575.08,-1898.8 1553.09,-1726.14 1570,-1665.5 1589.97,-1593.88 1630.34,-1515.09 1650.29,-1478.42"/>
<polygon fill="#757575" stroke="#757575" points="1653.59,-1479.69 1655.34,-1469.24 1647.46,-1476.31 1653.59,-1479.69"/>
</g>
<!-- app/controllers/cronCtl.js&#45;&gt;app/middleware/debugger.js -->
<g id="edge29" class="edge">
<title>app/controllers/cronCtl.js&#45;&gt;app/middleware/debugger.js</title>
<path fill="none" stroke="#757575" d="M673.04,-2090.36C696.65,-2117.4 758.82,-2183.75 826,-2215.5 1111.13,-2350.24 1288.01,-2459.83 1534,-2262.5 1623.35,-2190.82 1654.28,-1804.78 1660.66,-1708.34"/>
<polygon fill="#757575" stroke="#757575" points="1664.16,-1708.49 1661.31,-1698.29 1657.18,-1708.04 1664.16,-1708.49"/>
</g>
<!-- app/controllers/cronCtl.js&#45;&gt;app/middleware/functions.js -->
<g id="edge30" class="edge">
<title>app/controllers/cronCtl.js&#45;&gt;app/middleware/functions.js</title>
<path fill="none" stroke="#757575" d="M738.68,-2066.94C836.46,-2051.69 995.39,-2025.71 1005,-2016.5 1057.61,-1966.05 988.28,-1906.83 1041,-1856.5 1111.19,-1789.49 1176.29,-1873.84 1256,-1818.5 1345.05,-1756.68 1390.98,-1626.2 1406.17,-1574.88"/>
<polygon fill="#757575" stroke="#757575" points="1409.56,-1575.76 1408.95,-1565.18 1402.83,-1573.83 1409.56,-1575.76"/>
</g>
<!-- app/controllers/cronCtl.js&#45;&gt;app/models/index.js -->
<g id="edge31" class="edge">
<title>app/controllers/cronCtl.js&#45;&gt;app/models/index.js</title>
<path fill="none" stroke="#757575" d="M681.54,-2066.82C750.91,-2023.07 991.83,-1870.72 1005,-1856.5 1027.71,-1831.99 1017.87,-1814.61 1041,-1790.5 1060.73,-1769.93 1088.46,-1753.55 1110.68,-1742.5"/>
<polygon fill="#757575" stroke="#757575" points="1112.33,-1745.59 1119.83,-1738.1 1109.3,-1739.29 1112.33,-1745.59"/>
</g>
<!-- app/controllers/cronCtl.js&#45;&gt;app/controllers/apiCtl.js -->
<g id="edge26" class="edge">
<title>app/controllers/cronCtl.js&#45;&gt;app/controllers/apiCtl.js</title>
<path fill="none" stroke="#757575" d="M669.73,-2067C703.89,-2008.59 858.25,-1744.67 902.57,-1668.9"/>
<polygon fill="#757575" stroke="#757575" points="905.61,-1670.64 907.63,-1660.24 899.56,-1667.1 905.61,-1670.64"/>
</g>
<!-- app/controllers/cronCtl.js&#45;&gt;app/controllers/totalCtl.js -->
<g id="edge27" class="edge">
<title>app/controllers/cronCtl.js&#45;&gt;app/controllers/totalCtl.js</title>
<path fill="none" stroke="#757575" d="M666.94,-2066.98C690.38,-1998.41 811.17,-1646.42 826,-1627.5 840.16,-1609.43 861.44,-1595 879.59,-1584.93"/>
<polygon fill="#757575" stroke="#757575" points="881.55,-1587.85 888.73,-1580.07 878.26,-1581.67 881.55,-1587.85"/>
</g>
<!-- app/controllers/totalCtl.js&#45;&gt;app/middleware/auth.js -->
<g id="edge80" class="edge">
<title>app/controllers/totalCtl.js&#45;&gt;app/middleware/auth.js</title>
<path fill="none" stroke="#757575" d="M984.04,-1556.87C991.84,-1553.28 999.09,-1548.59 1005,-1542.5 1049.13,-1497 990.84,-1443.25 1041,-1404.5 1223.1,-1263.81 1531.21,-1393.45 1630.3,-1441.37"/>
<polygon fill="#757575" stroke="#757575" points="1628.97,-1444.61 1639.49,-1445.87 1632.05,-1438.33 1628.97,-1444.61"/>
</g>
<!-- app/controllers/totalCtl.js&#45;&gt;app/middleware/debugger.js -->
<g id="edge81" class="edge">
<title>app/controllers/totalCtl.js&#45;&gt;app/middleware/debugger.js</title>
<path fill="none" stroke="#757575" d="M981.62,-1556.97C1119.8,-1533.75 1437.57,-1487.26 1534,-1532.5 1593.01,-1560.19 1634.24,-1629.92 1652.08,-1665.26"/>
<polygon fill="#757575" stroke="#757575" points="1649.14,-1667.21 1656.68,-1674.65 1655.43,-1664.13 1649.14,-1667.21"/>
</g>
<!-- app/controllers/totalCtl.js&#45;&gt;app/middleware/functions.js -->
<g id="edge82" class="edge">
<title>app/controllers/totalCtl.js&#45;&gt;app/middleware/functions.js</title>
<path fill="none" stroke="#757575" d="M997.82,-1561.18C1012.19,-1560.11 1027.03,-1559.15 1041,-1558.5 1132.11,-1554.23 1235.92,-1553.16 1310.52,-1553.05"/>
<polygon fill="#757575" stroke="#757575" points="1310.85,-1556.55 1320.85,-1553.04 1310.85,-1549.55 1310.85,-1556.55"/>
</g>
<!-- app/controllers/totalCtl.js&#45;&gt;app/models/index.js -->
<g id="edge83" class="edge">
<title>app/controllers/totalCtl.js&#45;&gt;app/models/index.js</title>
<path fill="none" stroke="#757575" d="M934.2,-1580.15C952.11,-1591.99 980.57,-1610.88 1005,-1627.5 1046.35,-1655.64 1094,-1688.92 1122.39,-1708.84"/>
<polygon fill="#757575" stroke="#757575" points="1120.7,-1711.93 1130.9,-1714.81 1124.73,-1706.2 1120.7,-1711.93"/>
</g>
<!-- app/controllers/feedCtl.js&#45;&gt;app/middleware/auth.js -->
<g id="edge33" class="edge">
<title>app/controllers/feedCtl.js&#45;&gt;app/middleware/auth.js</title>
<path fill="none" stroke="#757575" d="M687.38,-1340.99C713.32,-1328.47 755.33,-1307.43 790,-1286.5 806.68,-1276.43 807.67,-1268.09 826,-1261.5 978.94,-1206.49 1482.72,-1214.42 1534,-1243.5 1608.61,-1285.81 1644.4,-1390.8 1656.77,-1436.12"/>
<polygon fill="#757575" stroke="#757575" points="1653.39,-1437.01 1659.3,-1445.8 1660.16,-1435.24 1653.39,-1437.01"/>
</g>
<!-- app/controllers/feedCtl.js&#45;&gt;app/middleware/debugger.js -->
<g id="edge35" class="edge">
<title>app/controllers/feedCtl.js&#45;&gt;app/middleware/debugger.js</title>
<path fill="none" stroke="#757575" d="M744.62,-1346.38C909.05,-1338.2 1285.63,-1340.89 1534,-1509.5 1593.65,-1550 1635.3,-1627.97 1652.79,-1665.42"/>
<polygon fill="#757575" stroke="#757575" points="1649.74,-1667.18 1657.07,-1674.84 1656.12,-1664.29 1649.74,-1667.18"/>
</g>
<!-- app/controllers/feedCtl.js&#45;&gt;app/middleware/functions.js -->
<g id="edge36" class="edge">
<title>app/controllers/feedCtl.js&#45;&gt;app/middleware/functions.js</title>
<path fill="none" stroke="#757575" d="M743.67,-1364C859.22,-1381.8 1077.6,-1420.36 1256,-1480.5 1301.45,-1495.82 1351.19,-1520.6 1382,-1536.97"/>
<polygon fill="#757575" stroke="#757575" points="1380.46,-1540.12 1390.93,-1541.77 1383.77,-1533.95 1380.46,-1540.12"/>
</g>
<!-- app/controllers/feedCtl.js&#45;&gt;app/models/index.js -->
<g id="edge37" class="edge">
<title>app/controllers/feedCtl.js&#45;&gt;app/models/index.js</title>
<path fill="none" stroke="#757575" d="M673.59,-1364.05C697.82,-1391.07 757.68,-1461.38 790,-1530.5 816.85,-1587.92 779.49,-1625.43 826,-1668.5 843.73,-1684.92 980.35,-1705.18 1069.7,-1716.9"/>
<polygon fill="#757575" stroke="#757575" points="1069.44,-1720.39 1079.81,-1718.21 1070.34,-1713.45 1069.44,-1720.39"/>
</g>
<!-- app/controllers/feedCtl.js&#45;&gt;app/controllers/apiCtl.js -->
<g id="edge32" class="edge">
<title>app/controllers/feedCtl.js&#45;&gt;app/controllers/apiCtl.js</title>
<path fill="none" stroke="#757575" d="M671.89,-1364.4C692.99,-1392.75 747.49,-1466.68 790,-1530.5 806.82,-1555.75 804.98,-1566.62 826,-1588.5 842.64,-1605.83 865.08,-1620.97 883.2,-1631.71"/>
<polygon fill="#757575" stroke="#757575" points="881.81,-1634.95 892.23,-1636.91 885.31,-1628.89 881.81,-1634.95"/>
</g>
<!-- app/controllers/feedCtl.js&#45;&gt;app/middleware/data.js -->
<g id="edge34" class="edge">
<title>app/controllers/feedCtl.js&#45;&gt;app/middleware/data.js</title>
<path fill="none" stroke="#757575" d="M684.94,-1340.99C715.58,-1325.54 773.34,-1298.64 826,-1286.5 903.75,-1268.58 994.66,-1263.8 1059.93,-1263.08"/>
<polygon fill="#757575" stroke="#757575" points="1060.2,-1266.58 1070.17,-1263 1060.15,-1259.58 1060.2,-1266.58"/>
</g>
<!-- app/controllers/leaderboardCtl.js&#45;&gt;app/middleware/auth.js -->
<g id="edge46" class="edge">
<title>app/controllers/leaderboardCtl.js&#45;&gt;app/middleware/auth.js</title>
<path fill="none" stroke="#757575" d="M402.79,-894.91C422.22,-870.31 467.84,-810.59 498,-755.5 517.9,-719.15 505.88,-699.93 534,-669.5 705.99,-483.36 795.54,-471.61 1041,-408.5 1149.08,-380.71 1180.41,-403.06 1292,-401.5 1399.55,-400 1453.5,-330.17 1534,-401.5 1614.58,-472.9 1654.56,-1290.39 1661.05,-1435.53"/>
<polygon fill="#757575" stroke="#757575" points="1657.57,-1435.98 1661.5,-1445.82 1664.56,-1435.67 1657.57,-1435.98"/>
</g>
<!-- app/controllers/leaderboardCtl.js&#45;&gt;app/middleware/functions.js -->
<g id="edge47" class="edge">
<title>app/controllers/leaderboardCtl.js&#45;&gt;app/middleware/functions.js</title>
<path fill="none" stroke="#757575" d="M426.53,-894.97C555.77,-852.17 1031.1,-716.97 1256,-958.5 1305.67,-1011.84 1272.93,-1214.16 1292,-1284.5 1318.44,-1382.01 1375.54,-1489.22 1400.23,-1533.09"/>
<polygon fill="#757575" stroke="#757575" points="1397.26,-1534.96 1405.25,-1541.92 1403.35,-1531.5 1397.26,-1534.96"/>
</g>
<!-- app/controllers/leaderboardCtl.js&#45;&gt;app/models/index.js -->
<g id="edge48" class="edge">
<title>app/controllers/leaderboardCtl.js&#45;&gt;app/models/index.js</title>
<path fill="none" stroke="#757575" d="M498.22,-911.88C612.2,-918.22 779.76,-929.23 790,-939.5 860.97,-1010.71 780.9,-1300.64 826,-1390.5 873.47,-1485.07 931.98,-1470.91 1005,-1547.5 1056.33,-1601.34 1108.82,-1672.19 1133.3,-1706.36"/>
<polygon fill="#757575" stroke="#757575" points="1130.52,-1708.49 1139.17,-1714.6 1136.22,-1704.43 1130.52,-1708.49"/>
</g>
<!-- app/controllers/leaderboardCtl.js&#45;&gt;app/data/consumables.js -->
<g id="edge42" class="edge">
<title>app/controllers/leaderboardCtl.js&#45;&gt;app/data/consumables.js</title>
<path fill="none" stroke="#757575" d="M498.13,-902.83C578.24,-901.23 691.37,-901.57 790,-911.5 897.55,-922.32 1021.02,-949.05 1091.09,-965.59"/>
<polygon fill="#757575" stroke="#757575" points="1090.5,-969.05 1101.04,-967.95 1092.12,-962.24 1090.5,-969.05"/>
</g>
<!-- app/controllers/leaderboardCtl.js&#45;&gt;app/controllers/totalCtl.js -->
<g id="edge39" class="edge">
<title>app/controllers/leaderboardCtl.js&#45;&gt;app/controllers/totalCtl.js</title>
<path fill="none" stroke="#757575" d="M481.44,-918.06C487.09,-919.39 492.65,-920.86 498,-922.5 514.92,-927.67 517.12,-934.21 534,-939.5 644.09,-974.01 712,-897.49 790,-982.5 857.23,-1055.76 794.52,-1334.18 826,-1428.5 841.79,-1475.8 876.79,-1523.25 897.73,-1548.95"/>
<polygon fill="#757575" stroke="#757575" points="895.17,-1551.34 904.25,-1556.8 900.56,-1546.87 895.17,-1551.34"/>
</g>
<!-- app/controllers/leaderboardCtl.js&#45;&gt;app/controllers/feedCtl.js -->
<g id="edge38" class="edge">
<title>app/controllers/leaderboardCtl.js&#45;&gt;app/controllers/feedCtl.js</title>
<path fill="none" stroke="#757575" d="M400.65,-918.43C437.07,-979.14 601.89,-1253.95 648.62,-1331.86"/>
<polygon fill="#757575" stroke="#757575" points="645.8,-1333.97 653.95,-1340.74 651.81,-1330.36 645.8,-1333.97"/>
</g>
<!-- app/controllers/leaderboardCtl.js&#45;&gt;app/data/attacks.js -->
<g id="edge40" class="edge">
<title>app/controllers/leaderboardCtl.js&#45;&gt;app/data/attacks.js</title>
<path fill="none" stroke="#757575" d="M403.28,-894.94C424.28,-871.13 476.46,-817.2 534,-797.5 653.8,-756.48 1206.62,-820.49 1256,-835.5 1306.55,-850.86 1358.91,-884.31 1388.28,-904.97"/>
<polygon fill="#757575" stroke="#757575" points="1386.46,-907.97 1396.63,-910.93 1390.53,-902.27 1386.46,-907.97"/>
</g>
<!-- app/controllers/leaderboardCtl.js&#45;&gt;app/data/badges.js -->
<g id="edge41" class="edge">
<title>app/controllers/leaderboardCtl.js&#45;&gt;app/data/badges.js</title>
<path fill="none" stroke="#757575" d="M403.39,-918.13C424.59,-942.22 477.14,-997.48 534,-1023.5 550.14,-1030.88 568.49,-1035.71 586.12,-1038.85"/>
<polygon fill="#757575" stroke="#757575" points="585.96,-1042.37 596.39,-1040.51 587.08,-1035.46 585.96,-1042.37"/>
</g>
<!-- app/controllers/leaderboardCtl.js&#45;&gt;app/data/disconnect/services&#45;by&#45;url.js -->
<g id="edge43" class="edge">
<title>app/controllers/leaderboardCtl.js&#45;&gt;app/data/disconnect/services&#45;by&#45;url.js</title>
<path fill="none" stroke="#757575" d="M404.84,-894.81C427.2,-870.94 476.66,-813.89 498,-755.5 526.81,-676.66 475.66,-439.85 534,-379.5 559.67,-352.94 1043.72,-309.74 1281.87,-289.97"/>
<polygon fill="#757575" stroke="#757575" points="1282.31,-293.45 1291.98,-289.14 1281.73,-286.47 1282.31,-293.45"/>
</g>
<!-- app/controllers/leaderboardCtl.js&#45;&gt;app/data/disguises.js -->
<g id="edge44" class="edge">
<title>app/controllers/leaderboardCtl.js&#45;&gt;app/data/disguises.js</title>
<path fill="none" stroke="#757575" d="M414.69,-918.08C447.72,-935.99 510.19,-969.21 534,-977.5 548.65,-982.6 564.61,-986.83 580.12,-990.3"/>
<polygon fill="#757575" stroke="#757575" points="579.71,-993.8 590.23,-992.48 581.19,-986.95 579.71,-993.8"/>
</g>
<!-- app/controllers/leaderboardCtl.js&#45;&gt;app/data/monsters&#45;by&#45;id.js -->
<g id="edge45" class="edge">
<title>app/controllers/leaderboardCtl.js&#45;&gt;app/data/monsters&#45;by&#45;id.js</title>
<path fill="none" stroke="#757575" d="M403.08,-894.78C424.1,-869.87 476.95,-811.39 534,-780.5 795.08,-639.13 1146.68,-578.62 1314.7,-556.48"/>
<polygon fill="#757575" stroke="#757575" points="1315.3,-559.93 1324.77,-555.17 1314.4,-552.99 1315.3,-559.93"/>
</g>
<!-- app/controllers/monsterCtl.js&#45;&gt;app/middleware/auth.js -->
<g id="edge57" class="edge">
<title>app/controllers/monsterCtl.js&#45;&gt;app/middleware/auth.js</title>
<path fill="none" stroke="#757575" d="M393.27,-723.74C392.85,-666.56 398.94,-415.46 534,-293.5 699.03,-144.47 1374.91,-103.15 1534,-258.5 1621.86,-344.29 1656.19,-1279.99 1661.31,-1435.62"/>
<polygon fill="#757575" stroke="#757575" points="1657.82,-1435.93 1661.64,-1445.81 1664.81,-1435.71 1657.82,-1435.93"/>
</g>
<!-- app/controllers/monsterCtl.js&#45;&gt;app/middleware/functions.js -->
<g id="edge59" class="edge">
<title>app/controllers/monsterCtl.js&#45;&gt;app/middleware/functions.js</title>
<path fill="none" stroke="#757575" d="M431.44,-723.94C572.35,-683.59 1067.15,-565.64 1256,-835.5 1313.39,-917.51 1267.25,-1187.51 1292,-1284.5 1316.98,-1382.39 1374.87,-1489.39 1400,-1533.15"/>
<polygon fill="#757575" stroke="#757575" points="1397.06,-1535.07 1405.11,-1541.96 1403.12,-1531.55 1397.06,-1535.07"/>
</g>
<!-- app/controllers/monsterCtl.js&#45;&gt;app/models/index.js -->
<g id="edge61" class="edge">
<title>app/controllers/monsterCtl.js&#45;&gt;app/models/index.js</title>
<path fill="none" stroke="#757575" d="M455.97,-747C480.28,-751.26 508.39,-755.92 534,-759.5 590.68,-767.43 745.15,-751.95 790,-787.5 827.67,-817.36 809.38,-844.39 826,-889.5 946.34,-1216.13 1101.75,-1610.77 1139.15,-1705.39"/>
<polygon fill="#757575" stroke="#757575" points="1135.91,-1706.73 1142.84,-1714.75 1142.42,-1704.16 1135.91,-1706.73"/>
</g>
<!-- app/controllers/monsterCtl.js&#45;&gt;app/data/consumables.js -->
<g id="edge53" class="edge">
<title>app/controllers/monsterCtl.js&#45;&gt;app/data/consumables.js</title>
<path fill="none" stroke="#757575" d="M450.98,-723.93C567.62,-703.87 835.38,-675.6 1005,-797.5 1067.22,-842.22 1115.9,-921.47 1136.62,-958.87"/>
<polygon fill="#757575" stroke="#757575" points="1133.65,-960.73 1141.5,-967.84 1139.8,-957.38 1133.65,-960.73"/>
</g>
<!-- app/controllers/monsterCtl.js&#45;&gt;app/middleware/data.js -->
<g id="edge58" class="edge">
<title>app/controllers/monsterCtl.js&#45;&gt;app/middleware/data.js</title>
<path fill="none" stroke="#757575" d="M486.61,-732.02C587.2,-729.83 739.83,-731.59 790,-759.5 995.73,-873.94 1111.22,-1162.55 1140.2,-1243.25"/>
<polygon fill="#757575" stroke="#757575" points="1136.95,-1244.56 1143.58,-1252.82 1143.55,-1242.23 1136.95,-1244.56"/>
</g>
<!-- app/controllers/monsterCtl.js&#45;&gt;app/controllers/totalCtl.js -->
<g id="edge50" class="edge">
<title>app/controllers/monsterCtl.js&#45;&gt;app/controllers/totalCtl.js</title>
<path fill="none" stroke="#757575" d="M425.69,-747.05C512.05,-778.72 745.36,-869.01 790,-935.5 846.54,-1019.71 798.93,-1292.75 826,-1390.5 842.85,-1451.35 880.81,-1516.13 901.11,-1548.15"/>
<polygon fill="#757575" stroke="#757575" points="898.21,-1550.12 906.56,-1556.64 904.1,-1546.33 898.21,-1550.12"/>
</g>
<!-- app/controllers/monsterCtl.js&#45;&gt;app/controllers/feedCtl.js -->
<g id="edge49" class="edge">
<title>app/controllers/monsterCtl.js&#45;&gt;app/controllers/feedCtl.js</title>
<path fill="none" stroke="#757575" d="M404.33,-747.3C425.79,-771.34 473.7,-828.58 498,-885.5 529.86,-960.13 509.48,-987.14 534,-1064.5 566.91,-1168.36 625.59,-1285.13 649.94,-1331.7"/>
<polygon fill="#757575" stroke="#757575" points="646.96,-1333.57 654.72,-1340.79 653.16,-1330.31 646.96,-1333.57"/>
</g>
<!-- app/controllers/monsterCtl.js&#45;&gt;app/data/attacks.js -->
<g id="edge51" class="edge">
<title>app/controllers/monsterCtl.js&#45;&gt;app/data/attacks.js</title>
<path fill="none" stroke="#757575" d="M397.2,-723.77C409.5,-687.04 452.92,-574.11 534,-531.5 634.72,-478.57 677.63,-513.64 790,-531.5 1005.15,-565.7 1083.09,-550.98 1256,-683.5 1334.43,-743.61 1385.33,-855.1 1404,-901.44"/>
<polygon fill="#757575" stroke="#757575" points="1400.76,-902.77 1407.68,-910.79 1407.27,-900.2 1400.76,-902.77"/>
</g>
<!-- app/controllers/monsterCtl.js&#45;&gt;app/data/badges.js -->
<g id="edge52" class="edge">
<title>app/controllers/monsterCtl.js&#45;&gt;app/data/badges.js</title>
<path fill="none" stroke="#757575" d="M403.74,-747.05C424.54,-771.09 471.96,-829 498,-885.5 524.53,-943.07 487.18,-980.77 534,-1023.5 548.27,-1036.52 567.38,-1043.14 586.44,-1046.2"/>
<polygon fill="#757575" stroke="#757575" points="586,-1049.68 596.37,-1047.49 586.9,-1042.73 586,-1049.68"/>
</g>
<!-- app/controllers/monsterCtl.js&#45;&gt;app/data/disconnect/services&#45;by&#45;url.js -->
<g id="edge54" class="edge">
<title>app/controllers/monsterCtl.js&#45;&gt;app/data/disconnect/services&#45;by&#45;url.js</title>
<path fill="none" stroke="#757575" d="M393.73,-723.88C395.44,-670.56 410.02,-447.38 534,-341.5 622.03,-266.32 684.45,-341.04 790,-293.5 808.48,-285.18 806.83,-272.08 826,-265.5 1006.77,-203.48 1065.08,-256.95 1256,-265.5 1265.88,-265.94 1276.1,-266.54 1286.37,-267.24"/>
<polygon fill="#757575" stroke="#757575" points="1286.42,-270.76 1296.64,-267.98 1286.92,-263.77 1286.42,-270.76"/>
</g>
<!-- app/controllers/monsterCtl.js&#45;&gt;app/data/disguises.js -->
<g id="edge55" class="edge">
<title>app/controllers/monsterCtl.js&#45;&gt;app/data/disguises.js</title>
<path fill="none" stroke="#757575" d="M404.99,-747.02C446.66,-788.76 590.02,-932.39 641.99,-984.46"/>
<polygon fill="#757575" stroke="#757575" points="639.71,-987.12 649.25,-991.73 644.66,-982.18 639.71,-987.12"/>
</g>
<!-- app/controllers/monsterCtl.js&#45;&gt;app/data/monsters&#45;by&#45;id.js -->
<g id="edge56" class="edge">
<title>app/controllers/monsterCtl.js&#45;&gt;app/data/monsters&#45;by&#45;id.js</title>
<path fill="none" stroke="#757575" d="M396.16,-723.74C405.99,-683.42 444.46,-550.4 534,-499.5 670.83,-421.72 1156.98,-499.11 1340.85,-532.14"/>
<polygon fill="#757575" stroke="#757575" points="1340.49,-535.63 1350.95,-533.96 1341.73,-528.74 1340.49,-535.63"/>
</g>
<!-- app/middleware/viewFunctions.js -->
<g id="node28" class="node">
<title>app/middleware/viewFunctions.js</title>
<path fill="none" stroke="#c6c5fe" d="M1248.33,-441C1248.33,-441 1048.67,-441 1048.67,-441 1044.83,-441 1041,-437.17 1041,-433.33 1041,-433.33 1041,-425.67 1041,-425.67 1041,-421.83 1044.83,-418 1048.67,-418 1048.67,-418 1248.33,-418 1248.33,-418 1252.17,-418 1256,-421.83 1256,-425.67 1256,-425.67 1256,-433.33 1256,-433.33 1256,-437.17 1252.17,-441 1248.33,-441"/>
<text text-anchor="middle" x="1148.5" y="-425.8" font-family="Arial" font-size="14.00" fill="#c6c5fe">app/middleware/viewFunctions.js</text>
</g>
<!-- app/controllers/monsterCtl.js&#45;&gt;app/middleware/viewFunctions.js -->
<g id="edge60" class="edge">
<title>app/controllers/monsterCtl.js&#45;&gt;app/middleware/viewFunctions.js</title>
<path fill="none" stroke="#757575" d="M395.19,-723.7C402.27,-679.11 433.98,-520.18 534,-455.5 711.92,-340.44 983.37,-388.37 1095.87,-415.56"/>
<polygon fill="#757575" stroke="#757575" points="1095.07,-418.96 1105.62,-417.96 1096.75,-412.17 1095.07,-418.96"/>
</g>
<!-- app/middleware/viewFunctions.js&#45;&gt;app/middleware/auth.js -->
<g id="edge107" class="edge">
<title>app/middleware/viewFunctions.js&#45;&gt;app/middleware/auth.js</title>
<path fill="none" stroke="#757575" d="M1199.04,-417.94C1280.97,-402.06 1444.51,-384.6 1534,-472.5 1605.42,-542.66 1652.59,-1296.05 1660.74,-1435.4"/>
<polygon fill="#757575" stroke="#757575" points="1657.26,-1435.89 1661.33,-1445.67 1664.25,-1435.48 1657.26,-1435.89"/>
</g>
<!-- app/middleware/viewFunctions.js&#45;&gt;app/middleware/debugger.js -->
<g id="edge108" class="edge">
<title>app/middleware/viewFunctions.js&#45;&gt;app/middleware/debugger.js</title>
<path fill="none" stroke="#757575" d="M1213.82,-441.05C1317.91,-460.36 1513.72,-499.56 1534,-524.5 1600.85,-606.72 1546.23,-1374.24 1570,-1477.5 1586.81,-1550.56 1628.99,-1629.72 1649.88,-1666.11"/>
<polygon fill="#757575" stroke="#757575" points="1646.88,-1667.92 1654.94,-1674.8 1652.94,-1664.4 1646.88,-1667.92"/>
</g>
<!-- app/middleware/viewFunctions.js&#45;&gt;app/data/monsters&#45;by&#45;id.js -->
<g id="edge106" class="edge">
<title>app/middleware/viewFunctions.js&#45;&gt;app/data/monsters&#45;by&#45;id.js</title>
<path fill="none" stroke="#757575" d="M1224.26,-441.09C1235.41,-444.67 1246.37,-449.36 1256,-455.5 1277.59,-469.27 1271.27,-485.46 1292,-500.5 1310.5,-513.92 1333.48,-523.81 1354.36,-530.85"/>
<polygon fill="#757575" stroke="#757575" points="1353.51,-534.26 1364.1,-533.99 1355.65,-527.59 1353.51,-534.26"/>
</g>
<!-- app/controllers/profileCtl.js&#45;&gt;app/middleware/debugger.js -->
<g id="edge76" class="edge">
<title>app/controllers/profileCtl.js&#45;&gt;app/middleware/debugger.js</title>
<path fill="none" stroke="#757575" d="M480.9,-1243.83C733.35,-1265.69 1450.91,-1332.92 1534,-1397.5 1535.45,-1398.62 1623.57,-1599.02 1652.74,-1665.41"/>
<polygon fill="#757575" stroke="#757575" points="1649.66,-1667.12 1656.89,-1674.86 1656.07,-1664.3 1649.66,-1667.12"/>
</g>
<!-- app/controllers/profileCtl.js&#45;&gt;app/middleware/functions.js -->
<g id="edge77" class="edge">
<title>app/controllers/profileCtl.js&#45;&gt;app/middleware/functions.js</title>
<path fill="none" stroke="#757575" d="M401.82,-1248.22C421.46,-1274.96 473.67,-1340.61 534,-1372.5 605.17,-1410.11 1134.71,-1505.14 1335.3,-1540.22"/>
<polygon fill="#757575" stroke="#757575" points="1334.72,-1543.67 1345.17,-1541.95 1335.92,-1536.78 1334.72,-1543.67"/>
</g>
<!-- app/controllers/profileCtl.js&#45;&gt;app/models/index.js -->
<g id="edge79" class="edge">
<title>app/controllers/profileCtl.js&#45;&gt;app/models/index.js</title>
<path fill="none" stroke="#757575" d="M397.33,-1248.01C410.82,-1287.2 459.36,-1417.71 534,-1501.5 638.8,-1619.14 677.4,-1650.15 826,-1702.5 905.71,-1730.58 1003.24,-1733.88 1069.84,-1731.87"/>
<polygon fill="#757575" stroke="#757575" points="1069.97,-1735.37 1079.84,-1731.52 1069.73,-1728.37 1069.97,-1735.37"/>
</g>
<!-- app/controllers/profileCtl.js&#45;&gt;app/data/consumables.js -->
<g id="edge72" class="edge">
<title>app/controllers/profileCtl.js&#45;&gt;app/data/consumables.js</title>
<path fill="none" stroke="#757575" d="M480.63,-1227.27C589.83,-1215.03 765.71,-1192.84 790,-1174.5 820.47,-1151.49 797.9,-1122.35 826,-1096.5 889.96,-1037.67 985.82,-1007.87 1056.23,-993.13"/>
<polygon fill="#757575" stroke="#757575" points="1057.32,-996.48 1066.42,-991.06 1055.93,-989.62 1057.32,-996.48"/>
</g>
<!-- app/controllers/profileCtl.js&#45;&gt;app/controllers/totalCtl.js -->
<g id="edge69" class="edge">
<title>app/controllers/profileCtl.js&#45;&gt;app/controllers/totalCtl.js</title>
<path fill="none" stroke="#757575" d="M398.09,-1248.14C412.51,-1283.24 460.4,-1389.03 534,-1444.5 547.75,-1454.86 768.27,-1523.5 867.16,-1553.97"/>
<polygon fill="#757575" stroke="#757575" points="866.32,-1557.38 876.91,-1556.97 868.38,-1550.69 866.32,-1557.38"/>
</g>
<!-- app/controllers/profileCtl.js&#45;&gt;app/controllers/feedCtl.js -->
<g id="edge68" class="edge">
<title>app/controllers/profileCtl.js&#45;&gt;app/controllers/feedCtl.js</title>
<path fill="none" stroke="#757575" d="M407.68,-1248.15C431.98,-1267.49 483.81,-1306.11 534,-1326.5 545.96,-1331.36 558.94,-1335.35 571.88,-1338.61"/>
<polygon fill="#757575" stroke="#757575" points="571.21,-1342.05 581.75,-1340.96 572.84,-1335.24 571.21,-1342.05"/>
</g>
<!-- app/controllers/profileCtl.js&#45;&gt;app/data/attacks.js -->
<g id="edge70" class="edge">
<title>app/controllers/profileCtl.js&#45;&gt;app/data/attacks.js</title>
<path fill="none" stroke="#757575" d="M480.74,-1240.31C562.01,-1241.74 685.95,-1238.47 790,-1212.5 1035.69,-1151.18 1302.14,-991.8 1385.54,-939.44"/>
<polygon fill="#757575" stroke="#757575" points="1387.55,-942.31 1394.14,-934.01 1383.81,-936.39 1387.55,-942.31"/>
</g>
<!-- app/controllers/profileCtl.js&#45;&gt;app/data/badges.js -->
<g id="edge71" class="edge">
<title>app/controllers/profileCtl.js&#45;&gt;app/data/badges.js</title>
<path fill="none" stroke="#757575" d="M399.58,-1224.96C416.4,-1194.29 466.77,-1110.36 534,-1070.5 549.76,-1061.15 568.35,-1055.12 586.36,-1051.24"/>
<polygon fill="#757575" stroke="#757575" points="587.15,-1054.66 596.29,-1049.3 585.8,-1047.79 587.15,-1054.66"/>
</g>
<!-- app/controllers/profileCtl.js&#45;&gt;app/data/disconnect/services&#45;by&#45;url.js -->
<g id="edge73" class="edge">
<title>app/controllers/profileCtl.js&#45;&gt;app/data/disconnect/services&#45;by&#45;url.js</title>
<path fill="none" stroke="#757575" d="M401.33,-1224.71C420.34,-1197.21 471.94,-1128.8 534,-1098.5 585.57,-1073.32 750.74,-1106.35 790,-1064.5 870.31,-978.89 764.72,-637.62 826,-537.5 885.81,-439.79 1229.23,-332.16 1360.76,-293.93"/>
<polygon fill="#757575" stroke="#757575" points="1361.96,-297.23 1370.6,-291.09 1360.02,-290.5 1361.96,-297.23"/>
</g>
<!-- app/controllers/profileCtl.js&#45;&gt;app/data/disguises.js -->
<g id="edge74" class="edge">
<title>app/controllers/profileCtl.js&#45;&gt;app/data/disguises.js</title>
<path fill="none" stroke="#757575" d="M397.34,-1224.81C410.08,-1188.11 454.66,-1074.57 534,-1023.5 547.75,-1014.65 564.04,-1009.22 580.29,-1005.99"/>
<polygon fill="#757575" stroke="#757575" points="581.11,-1009.4 590.37,-1004.25 579.92,-1002.5 581.11,-1009.4"/>
</g>
<!-- app/controllers/profileCtl.js&#45;&gt;app/data/monsters&#45;by&#45;id.js -->
<g id="edge75" class="edge">
<title>app/controllers/profileCtl.js&#45;&gt;app/data/monsters&#45;by&#45;id.js</title>
<path fill="none" stroke="#757575" d="M414.72,-1224.97C441.67,-1210.85 489.95,-1187.24 534,-1174.5 644.5,-1142.55 704.05,-1212.94 790,-1136.5 835.76,-1095.8 792.14,-1054.53 826,-1003.5 976.95,-776.02 1278.28,-611.89 1378.62,-561.63"/>
<polygon fill="#757575" stroke="#757575" points="1380.3,-564.71 1387.7,-557.12 1377.18,-558.44 1380.3,-564.71"/>
</g>
<!-- app/controllers/profileCtl.js&#45;&gt;app/middleware/viewFunctions.js -->
<g id="edge78" class="edge">
<title>app/controllers/profileCtl.js&#45;&gt;app/middleware/viewFunctions.js</title>
<path fill="none" stroke="#757575" d="M407.64,-1224.76C431.89,-1205.29 483.65,-1166.47 534,-1146.5 641.61,-1103.83 711.46,-1183.55 790,-1098.5 841.4,-1042.84 793.8,-828.07 826,-759.5 895.17,-612.22 1057.43,-490.63 1121.15,-446.9"/>
<polygon fill="#757575" stroke="#757575" points="1123.16,-449.76 1129.47,-441.25 1119.23,-443.97 1123.16,-449.76"/>
</g>
<!-- app/controllers/uploadCtl.js&#45;&gt;app/middleware/functions.js -->
<g id="edge84" class="edge">
<title>app/controllers/uploadCtl.js&#45;&gt;app/middleware/functions.js</title>
<path fill="none" stroke="#757575" d="M969.98,-2064.91C981.91,-2061.21 994.22,-2056.48 1005,-2050.5 1023.72,-2040.12 1024.44,-2032.06 1041,-2018.5 1133.57,-1942.69 1178.9,-1947.99 1256,-1856.5 1333.76,-1764.23 1386.63,-1626.67 1404.92,-1574.54"/>
<polygon fill="#757575" stroke="#757575" points="1408.25,-1575.62 1408.2,-1565.03 1401.63,-1573.34 1408.25,-1575.62"/>
</g>
<!-- app/controllers/uploadCtl.js&#45;&gt;app/models/index.js -->
<g id="edge85" class="edge">
<title>app/controllers/uploadCtl.js&#45;&gt;app/models/index.js</title>
<path fill="none" stroke="#757575" d="M940.06,-2064.96C959.48,-2054.5 986.73,-2037.51 1005,-2016.5 1079.58,-1930.75 1125.36,-1799.1 1141.22,-1747.9"/>
<polygon fill="#757575" stroke="#757575" points="1144.6,-1748.83 1144.15,-1738.25 1137.9,-1746.8 1144.6,-1748.83"/>
</g>
<!-- app/controllers/userCtl.js&#45;&gt;app/middleware/debugger.js -->
<g id="edge94" class="edge">
<title>app/controllers/userCtl.js&#45;&gt;app/middleware/debugger.js</title>
<path fill="none" stroke="#757575" d="M398.84,-1555.11C416.12,-1593.23 471.02,-1718.35 498,-1827.5 527.16,-1945.45 467.01,-1997.13 534,-2098.5 673.51,-2309.6 792.53,-2309.65 1041,-2357.5 1256.48,-2399 1371.32,-2477.77 1534,-2330.5 1629.2,-2244.32 1655.97,-1811.01 1661.03,-1708.34"/>
<polygon fill="#757575" stroke="#757575" points="1664.53,-1708.38 1661.51,-1698.22 1657.54,-1708.05 1664.53,-1708.38"/>
</g>
<!-- app/controllers/userCtl.js&#45;&gt;app/middleware/functions.js -->
<g id="edge95" class="edge">
<title>app/controllers/userCtl.js&#45;&gt;app/middleware/functions.js</title>
<path fill="none" stroke="#757575" d="M442.64,-1555.03C469.49,-1560.89 503.41,-1567.58 534,-1571.5 741.77,-1598.12 795.72,-1597.48 1005,-1588.5 1062.37,-1586.04 1210.02,-1572.69 1310.77,-1563.21"/>
<polygon fill="#757575" stroke="#757575" points="1311.36,-1566.67 1320.98,-1562.24 1310.7,-1559.7 1311.36,-1566.67"/>
</g>
<!-- app/controllers/userCtl.js&#45;&gt;app/models/index.js -->
<g id="edge96" class="edge">
<title>app/controllers/userCtl.js&#45;&gt;app/models/index.js</title>
<path fill="none" stroke="#757575" d="M400.18,-1555.34C417.71,-1585.18 468.26,-1663.55 534,-1698.5 715.17,-1794.82 970.64,-1762.15 1086.33,-1739.99"/>
<polygon fill="#757575" stroke="#757575" points="1087.28,-1743.37 1096.42,-1738.02 1085.93,-1736.5 1087.28,-1743.37"/>
</g>
<!-- app/controllers/userCtl.js&#45;&gt;app/controllers/apiCtl.js -->
<g id="edge86" class="edge">
<title>app/controllers/userCtl.js&#45;&gt;app/controllers/apiCtl.js</title>
<path fill="none" stroke="#757575" d="M401.3,-1555.06C420.23,-1581.94 471.67,-1648.23 534,-1672.5 648.57,-1717.12 797.22,-1684.35 870.16,-1663.01"/>
<polygon fill="#757575" stroke="#757575" points="871.37,-1666.3 879.94,-1660.08 869.36,-1659.59 871.37,-1666.3"/>
</g>
<!-- app/controllers/userCtl.js&#45;&gt;app/data/consumables.js -->
<g id="edge91" class="edge">
<title>app/controllers/userCtl.js&#45;&gt;app/data/consumables.js</title>
<path fill="none" stroke="#757575" d="M398.45,-1531.78C413.72,-1496.88 463.37,-1392.25 534,-1331.5 629.12,-1249.68 689.1,-1287.08 790,-1212.5 809.23,-1198.28 807.5,-1187.66 826,-1172.5 897.52,-1113.91 925.76,-1114.15 1005,-1066.5 1045.12,-1042.37 1091.34,-1014.06 1119.99,-996.44"/>
<polygon fill="#757575" stroke="#757575" points="1121.96,-999.34 1128.65,-991.12 1118.3,-993.38 1121.96,-999.34"/>
</g>
<!-- app/controllers/userCtl.js&#45;&gt;app/controllers/totalCtl.js -->
<g id="edge88" class="edge">
<title>app/controllers/userCtl.js&#45;&gt;app/controllers/totalCtl.js</title>
<path fill="none" stroke="#757575" d="M475.19,-1547.42C569.65,-1551.95 724.72,-1559.39 823.1,-1564.11"/>
<polygon fill="#757575" stroke="#757575" points="823.18,-1567.62 833.33,-1564.61 823.51,-1560.63 823.18,-1567.62"/>
</g>
<!-- app/controllers/userCtl.js&#45;&gt;app/controllers/feedCtl.js -->
<g id="edge87" class="edge">
<title>app/controllers/userCtl.js&#45;&gt;app/controllers/feedCtl.js</title>
<path fill="none" stroke="#757575" d="M399.85,-1531.59C416.96,-1500.74 467.27,-1417.93 534,-1378.5 544.86,-1372.09 557.04,-1367.23 569.46,-1363.57"/>
<polygon fill="#757575" stroke="#757575" points="570.7,-1366.86 579.44,-1360.87 568.87,-1360.1 570.7,-1366.86"/>
</g>
<!-- app/controllers/userCtl.js&#45;&gt;app/data/attacks.js -->
<g id="edge89" class="edge">
<title>app/controllers/userCtl.js&#45;&gt;app/data/attacks.js</title>
<path fill="none" stroke="#757575" d="M475.19,-1544.85C624.09,-1545.49 931.11,-1537.86 1005,-1466.5 1077.21,-1396.76 977.46,-1321.23 1041,-1243.5 1105.63,-1164.44 1176.43,-1226.5 1256,-1162.5 1333.22,-1100.39 1384.8,-989.41 1403.82,-943.39"/>
<polygon fill="#757575" stroke="#757575" points="1407.07,-944.69 1407.58,-934.11 1400.58,-942.07 1407.07,-944.69"/>
</g>
<!-- app/controllers/userCtl.js&#45;&gt;app/data/badges.js -->
<g id="edge90" class="edge">
<title>app/controllers/userCtl.js&#45;&gt;app/data/badges.js</title>
<path fill="none" stroke="#757575" d="M398.96,-1531.76C417.2,-1492.73 477.99,-1363.97 534,-1260.5 573.71,-1187.14 625.18,-1102.5 648.52,-1064.63"/>
<polygon fill="#757575" stroke="#757575" points="651.55,-1066.39 653.82,-1056.04 645.59,-1062.71 651.55,-1066.39"/>
</g>
<!-- app/controllers/userCtl.js&#45;&gt;app/data/disguises.js -->
<g id="edge92" class="edge">
<title>app/controllers/userCtl.js&#45;&gt;app/data/disguises.js</title>
<path fill="none" stroke="#757575" d="M398.74,-1531.74C415.72,-1493.12 469.79,-1366.41 498,-1256.5 511.03,-1205.75 497.01,-1060.6 534,-1023.5 546.32,-1011.15 562.95,-1004.47 580.12,-1001.16"/>
<polygon fill="#757575" stroke="#757575" points="580.92,-1004.58 590.26,-999.58 579.84,-997.66 580.92,-1004.58"/>
</g>
<!-- app/controllers/userCtl.js&#45;&gt;app/data/monsters&#45;by&#45;id.js -->
<g id="edge93" class="edge">
<title>app/controllers/userCtl.js&#45;&gt;app/data/monsters&#45;by&#45;id.js</title>
<path fill="none" stroke="#757575" d="M429.38,-1531.96C501.05,-1508.09 665.68,-1449.05 790,-1372.5 913.85,-1296.24 927.24,-1253.13 1041,-1162.5 1134.79,-1087.78 1185.69,-1096.64 1256,-999.5 1262.78,-990.13 1375.09,-655.67 1404.83,-566.93"/>
<polygon fill="#757575" stroke="#757575" points="1408.17,-567.96 1408.03,-557.36 1401.53,-565.74 1408.17,-567.96"/>
</g>
</g>
</svg>
