<svg width="800" height="250" viewBox="0 0 800 250" fill="none" xmlns="http://www.w3.org/2000/svg">
<rect width="800" height="250" fill="#282C34"/>
<path d="M184.609 38.6094V29H181.719V53H184.609V40.7188C184.818 40.3854 185.052 40.0833 185.312 39.8125C185.583 39.5312 185.875 39.2865 186.188 39.0781C186.583 38.8073 187.016 38.599 187.484 38.4531C187.953 38.3073 188.448 38.2344 188.969 38.2344C189.604 38.224 190.167 38.3125 190.656 38.5C191.146 38.6771 191.552 38.9479 191.875 39.3125C192.177 39.6458 192.406 40.0677 192.562 40.5781C192.719 41.0781 192.797 41.6615 192.797 42.3281V53H195.688V42.3594C195.688 41.224 195.547 40.2448 195.266 39.4219C194.995 38.5885 194.604 37.901 194.094 37.3594C193.583 36.8177 192.964 36.4219 192.234 36.1719C191.516 35.9115 190.714 35.7812 189.828 35.7812C189.151 35.7917 188.51 35.8906 187.906 36.0781C187.312 36.2656 186.766 36.5417 186.266 36.9062C185.953 37.125 185.656 37.3802 185.375 37.6719C185.094 37.9531 184.839 38.2656 184.609 38.6094ZM210.312 53V30.25H210.078L201.469 33.5625V36.2031L207.422 33.9375V53H210.312Z" fill="#E06C75"/>
<path d="M251.938 58.7188L252.266 56.9219C251.62 56.901 251.083 56.724 250.656 56.3906C250.24 56.0573 249.906 55.6302 249.656 55.1094C249.396 54.599 249.214 54.0208 249.109 53.375C249.005 52.7396 248.953 52.099 248.953 51.4531V48.8125C248.943 47.5729 248.651 46.4844 248.078 45.5469C247.505 44.599 246.615 43.8854 245.406 43.4062C246.615 42.9167 247.505 42.2031 248.078 41.2656C248.661 40.3177 248.953 39.2188 248.953 37.9688V35.3125C248.953 34.6771 248.984 34.0365 249.047 33.3906C249.109 32.7448 249.255 32.1615 249.484 31.6406C249.703 31.1302 250.031 30.7083 250.469 30.375C250.917 30.0417 251.516 29.8646 252.266 29.8438L251.938 28.0469C250.885 28.0781 249.99 28.3073 249.25 28.7344C248.51 29.151 247.911 29.6927 247.453 30.3594C246.964 31.0573 246.604 31.849 246.375 32.7344C246.156 33.6094 246.047 34.4688 246.047 35.3125V37.9688C246.047 39.4792 245.688 40.5729 244.969 41.25C244.26 41.9167 243.172 42.25 241.703 42.25V44.5156C243.172 44.526 244.26 44.8698 244.969 45.5469C245.688 46.224 246.047 47.3125 246.047 48.8125V51.4531C246.047 52.2865 246.167 53.125 246.406 53.9688C246.646 54.8229 247 55.5938 247.469 56.2812C247.958 57 248.573 57.5781 249.312 58.0156C250.052 58.4531 250.927 58.6875 251.938 58.7188ZM265.797 106.969C264.891 106.969 264.13 106.792 263.516 106.438C262.911 106.073 262.427 105.599 262.062 105.016C261.688 104.443 261.417 103.797 261.25 103.078C261.094 102.349 261.016 101.615 261.016 100.875V100.219C261.016 99.4896 261.094 98.7656 261.25 98.0469C261.417 97.3281 261.688 96.6771 262.062 96.0938C262.438 95.5208 262.927 95.0573 263.531 94.7031C264.146 94.3385 264.901 94.1562 265.797 94.1562C266.38 94.1562 266.922 94.2552 267.422 94.4531C267.932 94.651 268.37 94.9219 268.734 95.2656C269.099 95.6094 269.385 96.0104 269.594 96.4688C269.812 96.9167 269.927 97.3958 269.938 97.9062H272.672C272.672 97.0521 272.5 96.25 272.156 95.5C271.812 94.75 271.339 94.099 270.734 93.5469C270.12 93.0052 269.391 92.5781 268.547 92.2656C267.714 91.9427 266.797 91.7812 265.797 91.7812C264.516 91.7812 263.396 92.0104 262.438 92.4688C261.479 92.9271 260.682 93.5417 260.047 94.3125C259.401 95.0938 258.917 95.9948 258.594 97.0156C258.271 98.0365 258.109 99.1042 258.109 100.219V100.875C258.109 102 258.271 103.073 258.594 104.094C258.917 105.104 259.401 105.995 260.047 106.766C260.682 107.547 261.479 108.167 262.438 108.625C263.396 109.083 264.516 109.312 265.797 109.312C266.693 109.312 267.552 109.161 268.375 108.859C269.198 108.547 269.927 108.13 270.562 107.609C271.198 107.099 271.703 106.505 272.078 105.828C272.464 105.141 272.661 104.422 272.672 103.672H269.938C269.927 104.141 269.802 104.578 269.562 104.984C269.333 105.38 269.026 105.724 268.641 106.016C268.255 106.318 267.812 106.552 267.312 106.719C266.823 106.885 266.318 106.969 265.797 106.969ZM277 100.391V100.734C277 101.953 277.177 103.083 277.531 104.125C277.885 105.167 278.396 106.073 279.062 106.844C279.719 107.615 280.521 108.219 281.469 108.656C282.427 109.094 283.505 109.312 284.703 109.312C285.891 109.312 286.958 109.094 287.906 108.656C288.854 108.219 289.661 107.615 290.328 106.844C290.984 106.073 291.49 105.167 291.844 104.125C292.198 103.083 292.375 101.953 292.375 100.734V100.391C292.375 99.1719 292.198 98.0417 291.844 97C291.49 95.9479 290.984 95.0365 290.328 94.2656C289.661 93.4948 288.849 92.8906 287.891 92.4531C286.943 92.0052 285.87 91.7812 284.672 91.7812C283.484 91.7812 282.417 92.0052 281.469 92.4531C280.521 92.8906 279.719 93.4948 279.062 94.2656C278.396 95.0365 277.885 95.9479 277.531 97C277.177 98.0417 277 99.1719 277 100.391ZM279.891 100.734V100.391C279.891 99.5677 279.99 98.7812 280.188 98.0312C280.385 97.2708 280.688 96.6042 281.094 96.0312C281.49 95.4583 281.984 95.0052 282.578 94.6719C283.172 94.3281 283.87 94.1562 284.672 94.1562C285.474 94.1562 286.172 94.3281 286.766 94.6719C287.37 95.0052 287.875 95.4583 288.281 96.0312C288.677 96.6042 288.974 97.2708 289.172 98.0312C289.38 98.7812 289.484 99.5677 289.484 100.391V100.734C289.484 101.568 289.385 102.365 289.188 103.125C288.99 103.875 288.693 104.536 288.297 105.109C287.891 105.682 287.385 106.135 286.781 106.469C286.188 106.802 285.495 106.969 284.703 106.969C283.901 106.969 283.198 106.802 282.594 106.469C281.99 106.135 281.49 105.682 281.094 105.109C280.688 104.536 280.385 103.875 280.188 103.125C279.99 102.365 279.891 101.568 279.891 100.734ZM297.484 85V87.5156H303.234V106.5H297.484V109H311.641V106.5H306.125V85H297.484ZM315.438 100.391V100.734C315.438 101.953 315.615 103.083 315.969 104.125C316.323 105.167 316.833 106.073 317.5 106.844C318.156 107.615 318.958 108.219 319.906 108.656C320.865 109.094 321.943 109.312 323.141 109.312C324.328 109.312 325.396 109.094 326.344 108.656C327.292 108.219 328.099 107.615 328.766 106.844C329.422 106.073 329.927 105.167 330.281 104.125C330.635 103.083 330.812 101.953 330.812 100.734V100.391C330.812 99.1719 330.635 98.0417 330.281 97C329.927 95.9479 329.422 95.0365 328.766 94.2656C328.099 93.4948 327.286 92.8906 326.328 92.4531C325.38 92.0052 324.307 91.7812 323.109 91.7812C321.922 91.7812 320.854 92.0052 319.906 92.4531C318.958 92.8906 318.156 93.4948 317.5 94.2656C316.833 95.0365 316.323 95.9479 315.969 97C315.615 98.0417 315.438 99.1719 315.438 100.391ZM318.328 100.734V100.391C318.328 99.5677 318.427 98.7812 318.625 98.0312C318.823 97.2708 319.125 96.6042 319.531 96.0312C319.927 95.4583 320.422 95.0052 321.016 94.6719C321.609 94.3281 322.307 94.1562 323.109 94.1562C323.911 94.1562 324.609 94.3281 325.203 94.6719C325.807 95.0052 326.312 95.4583 326.719 96.0312C327.115 96.6042 327.411 97.2708 327.609 98.0312C327.818 98.7812 327.922 99.5677 327.922 100.391V100.734C327.922 101.568 327.823 102.365 327.625 103.125C327.427 103.875 327.13 104.536 326.734 105.109C326.328 105.682 325.823 106.135 325.219 106.469C324.625 106.802 323.932 106.969 323.141 106.969C322.339 106.969 321.635 106.802 321.031 106.469C320.427 106.135 319.927 105.682 319.531 105.109C319.125 104.536 318.823 103.875 318.625 103.125C318.427 102.365 318.328 101.568 318.328 100.734ZM346.547 91.7812C345.318 91.7812 344.219 92.0521 343.25 92.5938C342.292 93.125 341.469 93.8542 340.781 94.7812L340.766 94.3594L340.641 92.0938H337.891V109H340.797V98.1562C340.984 97.6354 341.219 97.1667 341.5 96.75C341.792 96.3229 342.13 95.9635 342.516 95.6719C342.943 95.3385 343.443 95.0885 344.016 94.9219C344.589 94.7448 345.229 94.6562 345.938 94.6562C346.49 94.6562 347.016 94.6875 347.516 94.75C348.026 94.8021 348.562 94.8906 349.125 95.0156L349.516 92.1875C349.224 92.0625 348.786 91.9635 348.203 91.8906C347.63 91.8177 347.078 91.7812 346.547 91.7812ZM360.5 107.125C360.5 107.729 360.688 108.245 361.062 108.672C361.448 109.089 362.016 109.297 362.766 109.297C363.505 109.297 364.073 109.089 364.469 108.672C364.865 108.255 365.062 107.74 365.062 107.125C365.062 106.5 364.865 105.974 364.469 105.547C364.083 105.109 363.516 104.891 362.766 104.891C362.005 104.891 361.438 105.109 361.062 105.547C360.688 105.984 360.5 106.51 360.5 107.125ZM360.5 93.4375C360.5 94.0417 360.688 94.5573 361.062 94.9844C361.448 95.401 362.016 95.6094 362.766 95.6094C363.505 95.6094 364.073 95.401 364.469 94.9844C364.865 94.5677 365.062 94.0521 365.062 93.4375C365.062 92.8125 364.865 92.2865 364.469 91.8594C364.083 91.4219 363.516 91.2031 362.766 91.2031C362.005 91.2031 361.438 91.4219 361.062 91.8594C360.688 92.2969 360.5 92.8229 360.5 93.4375ZM494.891 93.4375C494.891 94.0417 495.078 94.5573 495.453 94.9844C495.839 95.401 496.406 95.6094 497.156 95.6094C497.896 95.6094 498.464 95.401 498.859 94.9844C499.255 94.5677 499.453 94.0521 499.453 93.4375C499.453 92.8125 499.255 92.2865 498.859 91.8594C498.474 91.4219 497.906 91.2031 497.156 91.2031C496.396 91.2031 495.828 91.4219 495.453 91.8594C495.078 92.2969 494.891 92.8229 494.891 93.4375ZM498.609 108.328V105.578H495.469V108.375C495.469 109.26 495.365 110.115 495.156 110.938C494.948 111.76 494.594 112.536 494.094 113.266L495.891 114.25C496.724 113.51 497.385 112.599 497.875 111.516C498.365 110.432 498.609 109.37 498.609 108.328ZM262.906 165H265.812V150.328H272.328V148.094H265.812V146.906C265.812 146.198 265.901 145.578 266.078 145.047C266.266 144.516 266.536 144.083 266.891 143.75C267.224 143.427 267.641 143.188 268.141 143.031C268.651 142.865 269.234 142.781 269.891 142.781C270.536 142.781 271.141 142.839 271.703 142.953C272.276 143.057 272.776 143.182 273.203 143.328L273.547 140.938C273.276 140.865 273.01 140.802 272.75 140.75C272.49 140.688 272.229 140.63 271.969 140.578C271.573 140.505 271.172 140.448 270.766 140.406C270.359 140.354 269.948 140.328 269.531 140.328C268.531 140.328 267.625 140.469 266.812 140.75C266 141.031 265.307 141.448 264.734 142C264.151 142.552 263.698 143.24 263.375 144.062C263.062 144.875 262.906 145.823 262.906 146.906V148.094H258.25V150.328H262.906V165ZM277 156.391V156.734C277 157.953 277.177 159.083 277.531 160.125C277.885 161.167 278.396 162.073 279.062 162.844C279.719 163.615 280.521 164.219 281.469 164.656C282.427 165.094 283.505 165.312 284.703 165.312C285.891 165.312 286.958 165.094 287.906 164.656C288.854 164.219 289.661 163.615 290.328 162.844C290.984 162.073 291.49 161.167 291.844 160.125C292.198 159.083 292.375 157.953 292.375 156.734V156.391C292.375 155.172 292.198 154.042 291.844 153C291.49 151.948 290.984 151.036 290.328 150.266C289.661 149.495 288.849 148.891 287.891 148.453C286.943 148.005 285.87 147.781 284.672 147.781C283.484 147.781 282.417 148.005 281.469 148.453C280.521 148.891 279.719 149.495 279.062 150.266C278.396 151.036 277.885 151.948 277.531 153C277.177 154.042 277 155.172 277 156.391ZM279.891 156.734V156.391C279.891 155.568 279.99 154.781 280.188 154.031C280.385 153.271 280.688 152.604 281.094 152.031C281.49 151.458 281.984 151.005 282.578 150.672C283.172 150.328 283.87 150.156 284.672 150.156C285.474 150.156 286.172 150.328 286.766 150.672C287.37 151.005 287.875 151.458 288.281 152.031C288.677 152.604 288.974 153.271 289.172 154.031C289.38 154.781 289.484 155.568 289.484 156.391V156.734C289.484 157.568 289.385 158.365 289.188 159.125C288.99 159.875 288.693 160.536 288.297 161.109C287.891 161.682 287.385 162.135 286.781 162.469C286.188 162.802 285.495 162.969 284.703 162.969C283.901 162.969 283.198 162.802 282.594 162.469C281.99 162.135 281.49 161.682 281.094 161.109C280.688 160.536 280.385 159.875 280.188 159.125C279.99 158.365 279.891 157.568 279.891 156.734ZM297.031 165H299.922V152.875C300.12 152.51 300.349 152.177 300.609 151.875C300.88 151.573 301.172 151.307 301.484 151.078C301.87 150.818 302.292 150.615 302.75 150.469C303.208 150.312 303.703 150.234 304.234 150.234C304.849 150.234 305.391 150.307 305.859 150.453C306.339 150.599 306.745 150.833 307.078 151.156C307.401 151.479 307.646 151.901 307.812 152.422C307.979 152.943 308.062 153.578 308.062 154.328V165H310.953V154.266C310.953 153.141 310.812 152.172 310.531 151.359C310.26 150.536 309.87 149.859 309.359 149.328C308.849 148.797 308.229 148.406 307.5 148.156C306.781 147.906 305.979 147.781 305.094 147.781C304.438 147.792 303.812 147.891 303.219 148.078C302.635 148.255 302.094 148.51 301.594 148.844C301.26 149.062 300.943 149.323 300.641 149.625C300.349 149.917 300.078 150.24 299.828 150.594L299.625 148.094H297.031V165ZM323.094 144H320.188V148.094H315.75V150.328H320.188V159.516C320.188 160.557 320.323 161.448 320.594 162.188C320.875 162.917 321.255 163.51 321.734 163.969C322.214 164.438 322.776 164.781 323.422 165C324.078 165.208 324.781 165.312 325.531 165.312C325.979 165.312 326.427 165.292 326.875 165.25C327.333 165.208 327.766 165.146 328.172 165.062C328.578 164.99 328.953 164.901 329.297 164.797C329.641 164.682 329.932 164.552 330.172 164.406L329.766 162.359C329.589 162.401 329.359 162.453 329.078 162.516C328.807 162.568 328.516 162.62 328.203 162.672C327.88 162.724 327.552 162.771 327.219 162.812C326.885 162.844 326.562 162.859 326.25 162.859C325.823 162.859 325.417 162.807 325.031 162.703C324.656 162.599 324.323 162.417 324.031 162.156C323.74 161.906 323.51 161.568 323.344 161.141C323.177 160.714 323.094 160.172 323.094 159.516V150.328H329.531V148.094H323.094V144ZM348.109 156.234V153.859H336.156V156.234H348.109ZM356.312 165H358.594L361.203 154.641L361.625 152.016L362.062 154.641L364.703 165H366.984L370.578 148.094H368.016L366.141 158.875L365.719 161.531L365.266 158.875L362.578 148.094H360.719L358.016 158.875L357.594 161.297L357.25 158.875L355.281 148.094H352.719L356.312 165ZM381.375 165.312C383.021 165.312 384.401 164.984 385.516 164.328C386.641 163.661 387.484 162.901 388.047 162.047L386.281 160.672C385.75 161.359 385.083 161.911 384.281 162.328C383.479 162.745 382.562 162.953 381.531 162.953C380.75 162.953 380.036 162.807 379.391 162.516C378.745 162.224 378.193 161.823 377.734 161.312C377.286 160.833 376.932 160.281 376.672 159.656C376.422 159.031 376.26 158.307 376.188 157.484V157.375H388.266V156.078C388.266 154.901 388.115 153.807 387.812 152.797C387.521 151.786 387.073 150.906 386.469 150.156C385.865 149.417 385.104 148.839 384.188 148.422C383.281 147.995 382.219 147.781 381 147.781C380.031 147.781 379.083 147.979 378.156 148.375C377.24 148.771 376.422 149.339 375.703 150.078C374.974 150.828 374.391 151.745 373.953 152.828C373.516 153.901 373.297 155.12 373.297 156.484V157.141C373.297 158.318 373.495 159.406 373.891 160.406C374.286 161.406 374.839 162.271 375.547 163C376.255 163.729 377.104 164.297 378.094 164.703C379.094 165.109 380.188 165.312 381.375 165.312ZM381 150.156C381.74 150.156 382.375 150.292 382.906 150.562C383.448 150.833 383.896 151.188 384.25 151.625C384.604 152.062 384.88 152.583 385.078 153.188C385.276 153.781 385.375 154.339 385.375 154.859V155H376.281C376.396 154.219 376.594 153.531 376.875 152.938C377.167 152.333 377.521 151.823 377.938 151.406C378.354 151 378.823 150.693 379.344 150.484C379.865 150.266 380.417 150.156 381 150.156ZM393.578 148.094V150.609H399.328V162.5H393.578V165H407.734V162.5H402.219V148.094H393.578ZM398.953 143.656C398.953 144.125 399.094 144.516 399.375 144.828C399.667 145.141 400.104 145.297 400.688 145.297C401.26 145.297 401.693 145.141 401.984 144.828C402.276 144.516 402.422 144.125 402.422 143.656C402.422 143.396 402.38 143.156 402.297 142.938C402.214 142.719 402.089 142.536 401.922 142.391C401.786 142.255 401.615 142.151 401.406 142.078C401.198 141.995 400.958 141.953 400.688 141.953C400.417 141.953 400.172 141.995 399.953 142.078C399.745 142.151 399.573 142.255 399.438 142.391C399.271 142.547 399.146 142.734 399.062 142.953C398.99 143.172 398.953 143.406 398.953 143.656ZM411.812 156.406V156.734C411.812 157.943 411.969 159.073 412.281 160.125C412.594 161.167 413.042 162.073 413.625 162.844C414.198 163.615 414.901 164.219 415.734 164.656C416.568 165.094 417.5 165.312 418.531 165.312C419.146 165.312 419.719 165.245 420.25 165.109C420.781 164.984 421.266 164.802 421.703 164.562C421.984 164.406 422.245 164.224 422.484 164.016C422.734 163.807 422.969 163.578 423.188 163.328V164.781C423.188 165.51 423.083 166.156 422.875 166.719C422.667 167.281 422.37 167.75 421.984 168.125C421.589 168.51 421.115 168.802 420.562 169C420.01 169.198 419.391 169.297 418.703 169.297C418.318 169.297 417.932 169.255 417.547 169.172C417.161 169.099 416.776 168.974 416.391 168.797C416.005 168.62 415.625 168.38 415.25 168.078C414.875 167.786 414.51 167.427 414.156 167L412.656 168.734C413.042 169.286 413.5 169.75 414.031 170.125C414.573 170.5 415.135 170.797 415.719 171.016C416.292 171.245 416.859 171.406 417.422 171.5C417.984 171.604 418.484 171.656 418.922 171.656C419.984 171.656 420.953 171.5 421.828 171.188C422.703 170.875 423.458 170.417 424.094 169.812C424.719 169.208 425.203 168.474 425.547 167.609C425.901 166.745 426.078 165.755 426.078 164.641V148.094H423.453L423.312 149.938C423.115 149.688 422.901 149.458 422.672 149.25C422.453 149.042 422.219 148.859 421.969 148.703C421.51 148.401 420.995 148.172 420.422 148.016C419.859 147.859 419.24 147.781 418.562 147.781C417.51 147.781 416.568 147.995 415.734 148.422C414.901 148.849 414.193 149.443 413.609 150.203C413.026 150.964 412.578 151.875 412.266 152.938C411.964 153.99 411.812 155.146 411.812 156.406ZM414.703 156.734V156.406C414.703 155.583 414.786 154.802 414.953 154.062C415.13 153.312 415.406 152.651 415.781 152.078C416.146 151.516 416.615 151.068 417.188 150.734C417.771 150.401 418.469 150.234 419.281 150.234C419.76 150.234 420.198 150.297 420.594 150.422C420.99 150.536 421.349 150.698 421.672 150.906C421.995 151.125 422.281 151.38 422.531 151.672C422.781 151.964 423 152.286 423.188 152.641V160.391C423 160.755 422.781 161.089 422.531 161.391C422.281 161.693 422 161.953 421.688 162.172C421.365 162.391 421 162.562 420.594 162.688C420.198 162.802 419.75 162.859 419.25 162.859C418.448 162.859 417.76 162.698 417.188 162.375C416.615 162.042 416.146 161.594 415.781 161.031C415.406 160.469 415.13 159.818 414.953 159.078C414.786 158.339 414.703 157.557 414.703 156.734ZM434.453 150.609V141H431.562V165H434.453V152.719C434.661 152.385 434.896 152.083 435.156 151.812C435.427 151.531 435.719 151.286 436.031 151.078C436.427 150.807 436.859 150.599 437.328 150.453C437.797 150.307 438.292 150.234 438.812 150.234C439.448 150.224 440.01 150.312 440.5 150.5C440.99 150.677 441.396 150.948 441.719 151.312C442.021 151.646 442.25 152.068 442.406 152.578C442.562 153.078 442.641 153.661 442.641 154.328V165H445.531V154.359C445.531 153.224 445.391 152.245 445.109 151.422C444.839 150.589 444.448 149.901 443.938 149.359C443.427 148.818 442.807 148.422 442.078 148.172C441.359 147.911 440.557 147.781 439.672 147.781C438.995 147.792 438.354 147.891 437.75 148.078C437.156 148.266 436.609 148.542 436.109 148.906C435.797 149.125 435.5 149.38 435.219 149.672C434.938 149.953 434.682 150.266 434.453 150.609ZM457.625 144H454.719V148.094H450.281V150.328H454.719V159.516C454.719 160.557 454.854 161.448 455.125 162.188C455.406 162.917 455.786 163.51 456.266 163.969C456.745 164.438 457.307 164.781 457.953 165C458.609 165.208 459.312 165.312 460.062 165.312C460.51 165.312 460.958 165.292 461.406 165.25C461.865 165.208 462.297 165.146 462.703 165.062C463.109 164.99 463.484 164.901 463.828 164.797C464.172 164.682 464.464 164.552 464.703 164.406L464.297 162.359C464.12 162.401 463.891 162.453 463.609 162.516C463.339 162.568 463.047 162.62 462.734 162.672C462.411 162.724 462.083 162.771 461.75 162.812C461.417 162.844 461.094 162.859 460.781 162.859C460.354 162.859 459.948 162.807 459.562 162.703C459.188 162.599 458.854 162.417 458.562 162.156C458.271 161.906 458.042 161.568 457.875 161.141C457.708 160.714 457.625 160.172 457.625 159.516V150.328H464.062V148.094H457.625V144ZM475.812 163.125C475.812 163.729 476 164.245 476.375 164.672C476.76 165.089 477.328 165.297 478.078 165.297C478.818 165.297 479.385 165.089 479.781 164.672C480.177 164.255 480.375 163.74 480.375 163.125C480.375 162.5 480.177 161.974 479.781 161.547C479.396 161.109 478.828 160.891 478.078 160.891C477.318 160.891 476.75 161.109 476.375 161.547C476 161.984 475.812 162.51 475.812 163.125ZM475.812 149.438C475.812 150.042 476 150.557 476.375 150.984C476.76 151.401 477.328 151.609 478.078 151.609C478.818 151.609 479.385 151.401 479.781 150.984C480.177 150.568 480.375 150.052 480.375 149.438C480.375 148.812 480.177 148.286 479.781 147.859C479.396 147.422 478.828 147.203 478.078 147.203C477.318 147.203 476.75 147.422 476.375 147.859C476 148.297 475.812 148.823 475.812 149.438ZM522.766 156.734V156.406C522.766 155.521 522.693 154.682 522.547 153.891C522.401 153.089 522.188 152.359 521.906 151.703C521.635 151.12 521.323 150.594 520.969 150.125C520.615 149.646 520.214 149.24 519.766 148.906C519.266 148.552 518.708 148.276 518.094 148.078C517.479 147.88 516.807 147.781 516.078 147.781C515.495 147.781 514.953 147.839 514.453 147.953C513.953 148.068 513.495 148.234 513.078 148.453C512.745 148.63 512.432 148.844 512.141 149.094C511.849 149.333 511.583 149.604 511.344 149.906V141H508.453V165H511.109L511.25 163.078C511.438 163.318 511.635 163.536 511.844 163.734C512.052 163.932 512.271 164.115 512.5 164.281C512.979 164.615 513.516 164.87 514.109 165.047C514.714 165.224 515.38 165.312 516.109 165.312C516.745 165.312 517.333 165.234 517.875 165.078C518.427 164.922 518.932 164.703 519.391 164.422C520.026 164.016 520.568 163.505 521.016 162.891C521.474 162.266 521.844 161.562 522.125 160.781C522.333 160.188 522.49 159.552 522.594 158.875C522.708 158.188 522.766 157.474 522.766 156.734ZM519.875 156.406V156.734C519.875 157.234 519.844 157.724 519.781 158.203C519.719 158.682 519.62 159.13 519.484 159.547C519.318 160.099 519.094 160.599 518.812 161.047C518.531 161.495 518.182 161.865 517.766 162.156C517.453 162.385 517.099 162.562 516.703 162.688C516.307 162.802 515.87 162.859 515.391 162.859C514.891 162.859 514.432 162.797 514.016 162.672C513.599 162.536 513.224 162.349 512.891 162.109C512.557 161.87 512.26 161.594 512 161.281C511.75 160.958 511.531 160.609 511.344 160.234V152.844C511.521 152.469 511.734 152.125 511.984 151.812C512.245 151.49 512.542 151.208 512.875 150.969C513.198 150.74 513.568 150.562 513.984 150.438C514.401 150.302 514.859 150.234 515.359 150.234C515.818 150.234 516.234 150.286 516.609 150.391C516.984 150.495 517.323 150.641 517.625 150.828C518.062 151.089 518.432 151.448 518.734 151.906C519.036 152.365 519.281 152.87 519.469 153.422C519.604 153.87 519.703 154.349 519.766 154.859C519.839 155.359 519.875 155.875 519.875 156.406ZM526.844 156.391V156.734C526.844 157.953 527.021 159.083 527.375 160.125C527.729 161.167 528.24 162.073 528.906 162.844C529.562 163.615 530.365 164.219 531.312 164.656C532.271 165.094 533.349 165.312 534.547 165.312C535.734 165.312 536.802 165.094 537.75 164.656C538.698 164.219 539.505 163.615 540.172 162.844C540.828 162.073 541.333 161.167 541.688 160.125C542.042 159.083 542.219 157.953 542.219 156.734V156.391C542.219 155.172 542.042 154.042 541.688 153C541.333 151.948 540.828 151.036 540.172 150.266C539.505 149.495 538.693 148.891 537.734 148.453C536.786 148.005 535.714 147.781 534.516 147.781C533.328 147.781 532.26 148.005 531.312 148.453C530.365 148.891 529.562 149.495 528.906 150.266C528.24 151.036 527.729 151.948 527.375 153C527.021 154.042 526.844 155.172 526.844 156.391ZM529.734 156.734V156.391C529.734 155.568 529.833 154.781 530.031 154.031C530.229 153.271 530.531 152.604 530.938 152.031C531.333 151.458 531.828 151.005 532.422 150.672C533.016 150.328 533.714 150.156 534.516 150.156C535.318 150.156 536.016 150.328 536.609 150.672C537.214 151.005 537.719 151.458 538.125 152.031C538.521 152.604 538.818 153.271 539.016 154.031C539.224 154.781 539.328 155.568 539.328 156.391V156.734C539.328 157.568 539.229 158.365 539.031 159.125C538.833 159.875 538.536 160.536 538.141 161.109C537.734 161.682 537.229 162.135 536.625 162.469C536.031 162.802 535.339 162.969 534.547 162.969C533.745 162.969 533.042 162.802 532.438 162.469C531.833 162.135 531.333 161.682 530.938 161.109C530.531 160.536 530.229 159.875 530.031 159.125C529.833 158.365 529.734 157.568 529.734 156.734ZM547.328 141V143.516H553.078V162.5H547.328V165H561.484V162.5H555.969V141H547.328ZM565.547 156.406V156.734C565.547 157.943 565.708 159.073 566.031 160.125C566.354 161.167 566.807 162.073 567.391 162.844C567.974 163.615 568.677 164.219 569.5 164.656C570.333 165.094 571.26 165.312 572.281 165.312C573.323 165.312 574.234 165.135 575.016 164.781C575.797 164.427 576.469 163.906 577.031 163.219L577.156 165H579.812V141H576.922V149.766C576.37 149.12 575.714 148.63 574.953 148.297C574.203 147.953 573.323 147.781 572.312 147.781C571.281 147.781 570.349 147.995 569.516 148.422C568.682 148.849 567.974 149.443 567.391 150.203C566.797 150.964 566.339 151.875 566.016 152.938C565.703 153.99 565.547 155.146 565.547 156.406ZM568.438 156.734V156.406C568.438 155.583 568.526 154.802 568.703 154.062C568.88 153.312 569.156 152.651 569.531 152.078C569.896 151.516 570.365 151.068 570.938 150.734C571.521 150.401 572.219 150.234 573.031 150.234C573.979 150.234 574.771 150.458 575.406 150.906C576.042 151.344 576.547 151.906 576.922 152.594V160.438C576.547 161.177 576.042 161.766 575.406 162.203C574.771 162.641 573.969 162.859 573 162.859C572.198 162.859 571.51 162.698 570.938 162.375C570.365 162.042 569.896 161.594 569.531 161.031C569.156 160.469 568.88 159.818 568.703 159.078C568.526 158.339 568.438 157.557 568.438 156.734ZM590.984 149.438C590.984 150.042 591.172 150.557 591.547 150.984C591.932 151.401 592.5 151.609 593.25 151.609C593.99 151.609 594.557 151.401 594.953 150.984C595.349 150.568 595.547 150.052 595.547 149.438C595.547 148.812 595.349 148.286 594.953 147.859C594.568 147.422 594 147.203 593.25 147.203C592.49 147.203 591.922 147.422 591.547 147.859C591.172 148.297 590.984 148.823 590.984 149.438ZM594.703 164.328V161.578H591.562V164.375C591.562 165.26 591.458 166.115 591.25 166.938C591.042 167.76 590.688 168.536 590.188 169.266L591.984 170.25C592.818 169.51 593.479 168.599 593.969 167.516C594.458 166.432 594.703 165.37 594.703 164.328ZM184.047 224.922L184.375 226.719C185.396 226.698 186.276 226.464 187.016 226.016C187.755 225.568 188.37 224.995 188.859 224.297C189.339 223.599 189.693 222.823 189.922 221.969C190.151 221.125 190.266 220.286 190.266 219.453V216.812C190.266 216.083 190.349 215.453 190.516 214.922C190.682 214.391 190.938 213.948 191.281 213.594C191.635 213.229 192.089 212.964 192.641 212.797C193.203 212.62 193.859 212.526 194.609 212.516V210.25C193.755 210.25 193.021 210.141 192.406 209.922C191.802 209.693 191.328 209.333 190.984 208.844C190.745 208.5 190.562 208.094 190.438 207.625C190.323 207.146 190.266 206.594 190.266 205.969V203.312C190.266 202.438 190.146 201.552 189.906 200.656C189.677 199.76 189.297 198.953 188.766 198.234C188.297 197.599 187.698 197.083 186.969 196.688C186.25 196.292 185.385 196.078 184.375 196.047L184.062 197.844C184.812 197.865 185.406 198.042 185.844 198.375C186.281 198.708 186.615 199.13 186.844 199.641C187.062 200.161 187.203 200.745 187.266 201.391C187.339 202.036 187.375 202.677 187.375 203.312V205.969C187.375 206.781 187.495 207.536 187.734 208.234C187.974 208.922 188.344 209.526 188.844 210.047C189.104 210.328 189.406 210.583 189.75 210.812C190.104 211.042 190.49 211.24 190.906 211.406C190.5 211.573 190.125 211.766 189.781 211.984C189.448 212.203 189.146 212.448 188.875 212.719C188.365 213.229 187.984 213.833 187.734 214.531C187.495 215.229 187.375 215.99 187.375 216.812V219.453C187.375 220.099 187.318 220.74 187.203 221.375C187.099 222.021 186.922 222.599 186.672 223.109C186.411 223.63 186.068 224.057 185.641 224.391C185.214 224.724 184.682 224.901 184.047 224.922Z" fill="white"/>
<path d="M392.594 100.406V100.734C392.594 101.943 392.75 103.073 393.062 104.125C393.375 105.167 393.823 106.073 394.406 106.844C394.979 107.615 395.682 108.219 396.516 108.656C397.349 109.094 398.281 109.312 399.312 109.312C399.927 109.312 400.5 109.245 401.031 109.109C401.562 108.984 402.047 108.802 402.484 108.562C402.766 108.406 403.026 108.224 403.266 108.016C403.516 107.807 403.75 107.578 403.969 107.328V108.781C403.969 109.51 403.865 110.156 403.656 110.719C403.448 111.281 403.151 111.75 402.766 112.125C402.37 112.51 401.896 112.802 401.344 113C400.792 113.198 400.172 113.297 399.484 113.297C399.099 113.297 398.714 113.255 398.328 113.172C397.943 113.099 397.557 112.974 397.172 112.797C396.786 112.62 396.406 112.38 396.031 112.078C395.656 111.786 395.292 111.427 394.938 111L393.438 112.734C393.823 113.286 394.281 113.75 394.812 114.125C395.354 114.5 395.917 114.797 396.5 115.016C397.073 115.245 397.641 115.406 398.203 115.5C398.766 115.604 399.266 115.656 399.703 115.656C400.766 115.656 401.734 115.5 402.609 115.188C403.484 114.875 404.24 114.417 404.875 113.812C405.5 113.208 405.984 112.474 406.328 111.609C406.682 110.745 406.859 109.755 406.859 108.641V92.0938H404.234L404.094 93.9375C403.896 93.6875 403.682 93.4583 403.453 93.25C403.234 93.0417 403 92.8594 402.75 92.7031C402.292 92.401 401.776 92.1719 401.203 92.0156C400.641 91.8594 400.021 91.7812 399.344 91.7812C398.292 91.7812 397.349 91.9948 396.516 92.4219C395.682 92.849 394.974 93.4427 394.391 94.2031C393.807 94.9635 393.359 95.875 393.047 96.9375C392.745 97.9896 392.594 99.1458 392.594 100.406ZM395.484 100.734V100.406C395.484 99.5833 395.568 98.8021 395.734 98.0625C395.911 97.3125 396.188 96.651 396.562 96.0781C396.927 95.5156 397.396 95.0677 397.969 94.7344C398.552 94.401 399.25 94.2344 400.062 94.2344C400.542 94.2344 400.979 94.2969 401.375 94.4219C401.771 94.5365 402.13 94.6979 402.453 94.9062C402.776 95.125 403.062 95.3802 403.312 95.6719C403.562 95.9635 403.781 96.2865 403.969 96.6406V104.391C403.781 104.755 403.562 105.089 403.312 105.391C403.062 105.693 402.781 105.953 402.469 106.172C402.146 106.391 401.781 106.562 401.375 106.688C400.979 106.802 400.531 106.859 400.031 106.859C399.229 106.859 398.542 106.698 397.969 106.375C397.396 106.042 396.927 105.594 396.562 105.031C396.188 104.469 395.911 103.818 395.734 103.078C395.568 102.339 395.484 101.557 395.484 100.734ZM423.422 91.7812C422.193 91.7812 421.094 92.0521 420.125 92.5938C419.167 93.125 418.344 93.8542 417.656 94.7812L417.641 94.3594L417.516 92.0938H414.766V109H417.672V98.1562C417.859 97.6354 418.094 97.1667 418.375 96.75C418.667 96.3229 419.005 95.9635 419.391 95.6719C419.818 95.3385 420.318 95.0885 420.891 94.9219C421.464 94.7448 422.104 94.6562 422.812 94.6562C423.365 94.6562 423.891 94.6875 424.391 94.75C424.901 94.8021 425.438 94.8906 426 95.0156L426.391 92.1875C426.099 92.0625 425.661 91.9635 425.078 91.8906C424.505 91.8177 423.953 91.7812 423.422 91.7812ZM439.031 109.312C440.677 109.312 442.057 108.984 443.172 108.328C444.297 107.661 445.141 106.901 445.703 106.047L443.938 104.672C443.406 105.359 442.74 105.911 441.938 106.328C441.135 106.745 440.219 106.953 439.188 106.953C438.406 106.953 437.693 106.807 437.047 106.516C436.401 106.224 435.849 105.823 435.391 105.312C434.943 104.833 434.589 104.281 434.328 103.656C434.078 103.031 433.917 102.307 433.844 101.484V101.375H445.922V100.078C445.922 98.901 445.771 97.8073 445.469 96.7969C445.177 95.7865 444.729 94.9062 444.125 94.1562C443.521 93.4167 442.76 92.8385 441.844 92.4219C440.938 91.9948 439.875 91.7812 438.656 91.7812C437.688 91.7812 436.74 91.9792 435.812 92.375C434.896 92.7708 434.078 93.3385 433.359 94.0781C432.63 94.8281 432.047 95.7448 431.609 96.8281C431.172 97.901 430.953 99.1198 430.953 100.484V101.141C430.953 102.318 431.151 103.406 431.547 104.406C431.943 105.406 432.495 106.271 433.203 107C433.911 107.729 434.76 108.297 435.75 108.703C436.75 109.109 437.844 109.312 439.031 109.312ZM438.656 94.1562C439.396 94.1562 440.031 94.2917 440.562 94.5625C441.104 94.8333 441.552 95.1875 441.906 95.625C442.26 96.0625 442.536 96.5833 442.734 97.1875C442.932 97.7812 443.031 98.3385 443.031 98.8594V99H433.938C434.052 98.2188 434.25 97.5312 434.531 96.9375C434.823 96.3333 435.177 95.8229 435.594 95.4062C436.01 95 436.479 94.6927 437 94.4844C437.521 94.2656 438.073 94.1562 438.656 94.1562ZM458.25 109.312C459.896 109.312 461.276 108.984 462.391 108.328C463.516 107.661 464.359 106.901 464.922 106.047L463.156 104.672C462.625 105.359 461.958 105.911 461.156 106.328C460.354 106.745 459.438 106.953 458.406 106.953C457.625 106.953 456.911 106.807 456.266 106.516C455.62 106.224 455.068 105.823 454.609 105.312C454.161 104.833 453.807 104.281 453.547 103.656C453.297 103.031 453.135 102.307 453.062 101.484V101.375H465.141V100.078C465.141 98.901 464.99 97.8073 464.688 96.7969C464.396 95.7865 463.948 94.9062 463.344 94.1562C462.74 93.4167 461.979 92.8385 461.062 92.4219C460.156 91.9948 459.094 91.7812 457.875 91.7812C456.906 91.7812 455.958 91.9792 455.031 92.375C454.115 92.7708 453.297 93.3385 452.578 94.0781C451.849 94.8281 451.266 95.7448 450.828 96.8281C450.391 97.901 450.172 99.1198 450.172 100.484V101.141C450.172 102.318 450.37 103.406 450.766 104.406C451.161 105.406 451.714 106.271 452.422 107C453.13 107.729 453.979 108.297 454.969 108.703C455.969 109.109 457.062 109.312 458.25 109.312ZM457.875 94.1562C458.615 94.1562 459.25 94.2917 459.781 94.5625C460.323 94.8333 460.771 95.1875 461.125 95.625C461.479 96.0625 461.755 96.5833 461.953 97.1875C462.151 97.7812 462.25 98.3385 462.25 98.8594V99H453.156C453.271 98.2188 453.469 97.5312 453.75 96.9375C454.042 96.3333 454.396 95.8229 454.812 95.4062C455.229 95 455.698 94.6927 456.219 94.4844C456.74 94.2656 457.292 94.1562 457.875 94.1562ZM470 109H472.891V96.875C473.089 96.5104 473.318 96.1771 473.578 95.875C473.849 95.5729 474.141 95.3073 474.453 95.0781C474.839 94.8177 475.26 94.6146 475.719 94.4688C476.177 94.3125 476.672 94.2344 477.203 94.2344C477.818 94.2344 478.359 94.3073 478.828 94.4531C479.307 94.599 479.714 94.8333 480.047 95.1562C480.37 95.4792 480.615 95.901 480.781 96.4219C480.948 96.9427 481.031 97.5781 481.031 98.3281V109H483.922V98.2656C483.922 97.1406 483.781 96.1719 483.5 95.3594C483.229 94.5365 482.839 93.8594 482.328 93.3281C481.818 92.7969 481.198 92.4062 480.469 92.1562C479.75 91.9062 478.948 91.7812 478.062 91.7812C477.406 91.7917 476.781 91.8906 476.188 92.0781C475.604 92.2552 475.062 92.5104 474.562 92.8438C474.229 93.0625 473.911 93.3229 473.609 93.625C473.318 93.9167 473.047 94.2396 472.797 94.5938L472.594 92.0938H470V109Z" fill="#E5C07B"/>
<path d="M633 18L643 18L643.001 232.5L633.001 232.5" stroke="#ABB2BF" stroke-width="2"/>
<path d="M164.5 43L127 43" stroke="#ABB2BF" stroke-width="2"/>
<path d="M309 38.5L309 68.5" stroke="#ABB2BF" stroke-width="2"/>
<path d="M457 38.5L457 68.5" stroke="#ABB2BF" stroke-width="2"/>
<path d="M34.1064 47.4775C34.1064 47.6299 34.0771 47.7734 34.0186 47.9082C33.96 48.043 33.875 48.166 33.7637 48.2773C33.582 48.459 33.3301 48.6025 33.0078 48.708C32.6855 48.8076 32.3076 48.8574 31.874 48.8574C31.5986 48.8574 31.3203 48.8281 31.0391 48.7695C30.7578 48.7109 30.5029 48.6113 30.2744 48.4707C30.04 48.3301 29.8438 48.1455 29.6855 47.917C29.5332 47.6885 29.4453 47.4072 29.4219 47.0732H27.7959C27.7959 47.4775 27.8867 47.8672 28.0684 48.2422C28.2559 48.6172 28.5254 48.9453 28.877 49.2266C29.2227 49.5137 29.6475 49.7451 30.1514 49.9209C30.6553 50.0908 31.2295 50.1758 31.874 50.1758C32.4365 50.1758 32.9551 50.1084 33.4297 49.9736C33.9043 49.8389 34.3115 49.6484 34.6514 49.4023C34.9912 49.1562 35.2549 48.8604 35.4424 48.5146C35.6357 48.1689 35.7324 47.7852 35.7324 47.3633C35.7324 46.9707 35.6475 46.625 35.4775 46.3262C35.3135 46.0273 35.0732 45.7637 34.7568 45.5352C34.4404 45.3125 34.0508 45.1221 33.5879 44.9639C33.125 44.7998 32.6006 44.6562 32.0146 44.5332C31.5693 44.4453 31.2002 44.3545 30.9072 44.2607C30.6201 44.167 30.3916 44.0615 30.2217 43.9443C30.0459 43.8271 29.9229 43.6953 29.8525 43.5488C29.7822 43.4023 29.7471 43.2354 29.7471 43.0479C29.7471 42.8662 29.791 42.6904 29.8789 42.5205C29.9668 42.3506 30.0986 42.2012 30.2744 42.0723C30.4443 41.9434 30.6582 41.8408 30.916 41.7646C31.1797 41.6885 31.4844 41.6504 31.8301 41.6504C32.1641 41.6504 32.4629 41.6973 32.7266 41.791C32.9961 41.8848 33.2246 42.0078 33.4121 42.1602C33.5996 42.3125 33.7461 42.4883 33.8516 42.6875C33.957 42.8809 34.0098 43.0801 34.0098 43.2852H35.6357C35.6357 42.8691 35.5449 42.4824 35.3633 42.125C35.1875 41.7617 34.9355 41.4453 34.6074 41.1758C34.2793 40.9062 33.8809 40.6953 33.4121 40.543C32.9434 40.3906 32.416 40.3145 31.8301 40.3145C31.2852 40.3145 30.7842 40.3877 30.3271 40.5342C29.876 40.6807 29.4863 40.8799 29.1582 41.1318C28.8301 41.3838 28.5752 41.6797 28.3936 42.0195C28.2119 42.3535 28.1211 42.7139 28.1211 43.1006C28.1211 43.4932 28.209 43.8389 28.3848 44.1377C28.5605 44.4307 28.8096 44.6855 29.1318 44.9023C29.4482 45.125 29.8291 45.3154 30.2744 45.4736C30.7256 45.6318 31.2236 45.7666 31.7686 45.8779C32.2139 45.9658 32.5859 46.0654 32.8848 46.1768C33.1836 46.2822 33.4238 46.3994 33.6055 46.5283C33.7871 46.6572 33.916 46.8008 33.9922 46.959C34.0684 47.1113 34.1064 47.2842 34.1064 47.4775ZM42.7988 50.1758C43.7246 50.1758 44.501 49.9912 45.1279 49.6221C45.7607 49.2471 46.2354 48.8193 46.5518 48.3389L45.5586 47.5654C45.2598 47.9521 44.8848 48.2627 44.4336 48.4971C43.9824 48.7314 43.4668 48.8486 42.8867 48.8486C42.4473 48.8486 42.0459 48.7666 41.6826 48.6025C41.3193 48.4385 41.0088 48.2129 40.751 47.9258C40.499 47.6562 40.2998 47.3457 40.1533 46.9941C40.0127 46.6426 39.9219 46.2354 39.8809 45.7725V45.7109H46.6748V44.9814C46.6748 44.3193 46.5898 43.7041 46.4199 43.1357C46.2559 42.5674 46.0039 42.0723 45.6641 41.6504C45.3242 41.2344 44.8965 40.9092 44.3809 40.6748C43.8711 40.4346 43.2734 40.3145 42.5879 40.3145C42.043 40.3145 41.5098 40.4258 40.9883 40.6484C40.4727 40.8711 40.0127 41.1904 39.6084 41.6064C39.1982 42.0283 38.8701 42.5439 38.624 43.1533C38.3779 43.7568 38.2549 44.4424 38.2549 45.21V45.5791C38.2549 46.2412 38.3662 46.8535 38.5889 47.416C38.8115 47.9785 39.1221 48.4648 39.5205 48.875C39.9189 49.2852 40.3965 49.6045 40.9531 49.833C41.5156 50.0615 42.1309 50.1758 42.7988 50.1758ZM42.5879 41.6504C43.0039 41.6504 43.3613 41.7266 43.6602 41.8789C43.9648 42.0312 44.2168 42.2305 44.416 42.4766C44.6152 42.7227 44.7705 43.0156 44.8818 43.3555C44.9932 43.6895 45.0488 44.0029 45.0488 44.2959V44.375H39.9336C39.998 43.9355 40.1094 43.5488 40.2676 43.2148C40.4316 42.875 40.6309 42.5879 40.8652 42.3535C41.0996 42.125 41.3633 41.9521 41.6562 41.835C41.9492 41.7119 42.2598 41.6504 42.5879 41.6504ZM49.6631 36.5V37.915H52.8975V48.5938H49.6631V50H57.626V48.5938H54.5234V36.5H49.6631ZM64.4199 50.1758C65.3457 50.1758 66.1221 49.9912 66.749 49.6221C67.3818 49.2471 67.8564 48.8193 68.1729 48.3389L67.1797 47.5654C66.8809 47.9521 66.5059 48.2627 66.0547 48.4971C65.6035 48.7314 65.0879 48.8486 64.5078 48.8486C64.0684 48.8486 63.667 48.7666 63.3037 48.6025C62.9404 48.4385 62.6299 48.2129 62.3721 47.9258C62.1201 47.6562 61.9209 47.3457 61.7744 46.9941C61.6338 46.6426 61.543 46.2354 61.502 45.7725V45.7109H68.2959V44.9814C68.2959 44.3193 68.2109 43.7041 68.041 43.1357C67.877 42.5674 67.625 42.0723 67.2852 41.6504C66.9453 41.2344 66.5176 40.9092 66.002 40.6748C65.4922 40.4346 64.8945 40.3145 64.209 40.3145C63.6641 40.3145 63.1309 40.4258 62.6094 40.6484C62.0938 40.8711 61.6338 41.1904 61.2295 41.6064C60.8193 42.0283 60.4912 42.5439 60.2451 43.1533C59.999 43.7568 59.876 44.4424 59.876 45.21V45.5791C59.876 46.2412 59.9873 46.8535 60.21 47.416C60.4326 47.9785 60.7432 48.4648 61.1416 48.875C61.54 49.2852 62.0176 49.6045 62.5742 49.833C63.1367 50.0615 63.752 50.1758 64.4199 50.1758ZM64.209 41.6504C64.625 41.6504 64.9824 41.7266 65.2812 41.8789C65.5859 42.0312 65.8379 42.2305 66.0371 42.4766C66.2363 42.7227 66.3916 43.0156 66.5029 43.3555C66.6143 43.6895 66.6699 44.0029 66.6699 44.2959V44.375H61.5547C61.6191 43.9355 61.7305 43.5488 61.8887 43.2148C62.0527 42.875 62.252 42.5879 62.4863 42.3535C62.7207 42.125 62.9844 41.9521 63.2773 41.835C63.5703 41.7119 63.8809 41.6504 64.209 41.6504ZM75.0811 48.8574C74.5713 48.8574 74.1436 48.7578 73.7979 48.5586C73.458 48.3535 73.1855 48.0869 72.9805 47.7588C72.7695 47.4365 72.6172 47.0732 72.5234 46.6689C72.4355 46.2588 72.3916 45.8457 72.3916 45.4297V45.0605C72.3916 44.6504 72.4355 44.2432 72.5234 43.8389C72.6172 43.4346 72.7695 43.0684 72.9805 42.7402C73.1914 42.418 73.4668 42.1572 73.8066 41.958C74.1523 41.7529 74.5771 41.6504 75.0811 41.6504C75.4092 41.6504 75.7139 41.7061 75.9951 41.8174C76.2822 41.9287 76.5283 42.0811 76.7334 42.2744C76.9385 42.4678 77.0996 42.6934 77.2168 42.9512C77.3398 43.2031 77.4043 43.4727 77.4102 43.7598H78.9482C78.9482 43.2793 78.8516 42.8281 78.6582 42.4062C78.4648 41.9844 78.1982 41.6182 77.8584 41.3076C77.5127 41.0029 77.1025 40.7627 76.6279 40.5869C76.1592 40.4053 75.6436 40.3145 75.0811 40.3145C74.3604 40.3145 73.7305 40.4434 73.1914 40.7012C72.6523 40.959 72.2041 41.3047 71.8467 41.7383C71.4834 42.1777 71.2109 42.6846 71.0293 43.2588C70.8477 43.833 70.7568 44.4336 70.7568 45.0605V45.4297C70.7568 46.0625 70.8477 46.666 71.0293 47.2402C71.2109 47.8086 71.4834 48.3096 71.8467 48.7432C72.2041 49.1826 72.6523 49.5312 73.1914 49.7891C73.7305 50.0469 74.3604 50.1758 75.0811 50.1758C75.585 50.1758 76.0684 50.0908 76.5312 49.9209C76.9941 49.7451 77.4043 49.5107 77.7617 49.2178C78.1191 48.9307 78.4033 48.5967 78.6143 48.2158C78.8311 47.8291 78.9424 47.4248 78.9482 47.0029H77.4102C77.4043 47.2666 77.334 47.5127 77.1992 47.7412C77.0703 47.9639 76.8975 48.1572 76.6807 48.3213C76.4639 48.4912 76.2148 48.623 75.9336 48.7168C75.6582 48.8105 75.374 48.8574 75.0811 48.8574ZM85.6895 38.1875H84.0547V40.4902H81.5586V41.7471H84.0547V46.915C84.0547 47.501 84.1309 48.002 84.2832 48.418C84.4414 48.8281 84.6553 49.1621 84.9248 49.4199C85.1943 49.6836 85.5107 49.877 85.874 50C86.2432 50.1172 86.6387 50.1758 87.0605 50.1758C87.3125 50.1758 87.5645 50.1641 87.8164 50.1406C88.0742 50.1172 88.3174 50.082 88.5459 50.0352C88.7744 49.9941 88.9854 49.9443 89.1787 49.8857C89.3721 49.8213 89.5361 49.748 89.6709 49.666L89.4424 48.5146C89.3428 48.5381 89.2139 48.5674 89.0557 48.6025C88.9033 48.6318 88.7393 48.6611 88.5635 48.6904C88.3818 48.7197 88.1973 48.7461 88.0098 48.7695C87.8223 48.7871 87.6406 48.7959 87.4648 48.7959C87.2246 48.7959 86.9961 48.7666 86.7793 48.708C86.5684 48.6494 86.3809 48.5469 86.2168 48.4004C86.0527 48.2598 85.9238 48.0693 85.8301 47.8291C85.7363 47.5889 85.6895 47.2842 85.6895 46.915V41.7471H89.3105V40.4902H85.6895V38.1875ZM92.1934 45.1572V45.3506C92.1934 46.0361 92.293 46.6719 92.4922 47.2578C92.6914 47.8438 92.9785 48.3535 93.3535 48.7871C93.7227 49.2207 94.1738 49.5605 94.707 49.8066C95.2461 50.0527 95.8525 50.1758 96.5264 50.1758C97.1943 50.1758 97.7949 50.0527 98.3281 49.8066C98.8613 49.5605 99.3154 49.2207 99.6904 48.7871C100.06 48.3535 100.344 47.8438 100.543 47.2578C100.742 46.6719 100.842 46.0361 100.842 45.3506V45.1572C100.842 44.4717 100.742 43.8359 100.543 43.25C100.344 42.6582 100.06 42.1455 99.6904 41.7119C99.3154 41.2783 98.8584 40.9385 98.3193 40.6924C97.7861 40.4404 97.1826 40.3145 96.5088 40.3145C95.8408 40.3145 95.2402 40.4404 94.707 40.6924C94.1738 40.9385 93.7227 41.2783 93.3535 41.7119C92.9785 42.1455 92.6914 42.6582 92.4922 43.25C92.293 43.8359 92.1934 44.4717 92.1934 45.1572ZM93.8193 45.3506V45.1572C93.8193 44.6943 93.875 44.252 93.9863 43.8301C94.0977 43.4023 94.2676 43.0273 94.4961 42.7051C94.7188 42.3828 94.9971 42.1279 95.3311 41.9404C95.665 41.7471 96.0576 41.6504 96.5088 41.6504C96.96 41.6504 97.3525 41.7471 97.6865 41.9404C98.0264 42.1279 98.3105 42.3828 98.5391 42.7051C98.7617 43.0273 98.9287 43.4023 99.04 43.8301C99.1572 44.252 99.2158 44.6943 99.2158 45.1572V45.3506C99.2158 45.8193 99.1602 46.2676 99.0488 46.6953C98.9375 47.1172 98.7705 47.4893 98.5479 47.8115C98.3193 48.1338 98.0352 48.3887 97.6953 48.5762C97.3613 48.7637 96.9717 48.8574 96.5264 48.8574C96.0752 48.8574 95.6797 48.7637 95.3398 48.5762C95 48.3887 94.7188 48.1338 94.4961 47.8115C94.2676 47.4893 94.0977 47.1172 93.9863 46.6953C93.875 46.2676 93.8193 45.8193 93.8193 45.3506ZM109.692 40.3145C109.001 40.3145 108.383 40.4668 107.838 40.7715C107.299 41.0703 106.836 41.4805 106.449 42.002L106.44 41.7646L106.37 40.4902H104.823V50H106.458V43.9004C106.563 43.6074 106.695 43.3438 106.854 43.1094C107.018 42.8691 107.208 42.667 107.425 42.5029C107.665 42.3154 107.946 42.1748 108.269 42.0811C108.591 41.9814 108.951 41.9316 109.35 41.9316C109.66 41.9316 109.956 41.9492 110.237 41.9844C110.524 42.0137 110.826 42.0635 111.143 42.1338L111.362 40.543C111.198 40.4727 110.952 40.417 110.624 40.376C110.302 40.335 109.991 40.3145 109.692 40.3145Z" fill="#ABB2BF"/>
<path d="M277.778 28.6562H279.404V24.0859C279.521 24.2148 279.647 24.335 279.782 24.4463C279.917 24.5518 280.061 24.6484 280.213 24.7363C280.465 24.877 280.746 24.9854 281.057 25.0615C281.373 25.1377 281.713 25.1758 282.076 25.1758C282.674 25.1758 283.204 25.0527 283.667 24.8066C284.136 24.5605 284.528 24.2207 284.845 23.7871C285.161 23.3535 285.401 22.8438 285.565 22.2578C285.729 21.666 285.812 21.0303 285.812 20.3506V20.166C285.812 19.457 285.729 18.8066 285.565 18.2148C285.401 17.6172 285.161 17.1045 284.845 16.6768C284.528 16.249 284.136 15.915 283.667 15.6748C283.198 15.4346 282.659 15.3145 282.05 15.3145C281.704 15.3145 281.379 15.3525 281.074 15.4287C280.775 15.499 280.503 15.6045 280.257 15.7451C280.081 15.8389 279.917 15.9531 279.765 16.0879C279.612 16.2168 279.472 16.3633 279.343 16.5273L279.264 15.4902H277.778V28.6562ZM284.186 20.166V20.3506C284.186 20.8135 284.133 21.2559 284.027 21.6777C283.928 22.0996 283.772 22.4717 283.562 22.7939C283.351 23.1162 283.081 23.374 282.753 23.5674C282.425 23.7549 282.035 23.8486 281.584 23.8486C281.303 23.8486 281.045 23.8135 280.811 23.7432C280.582 23.6729 280.374 23.5762 280.187 23.4531C280.022 23.3477 279.876 23.2188 279.747 23.0664C279.618 22.9141 279.504 22.75 279.404 22.5742V17.9951C279.516 17.7959 279.645 17.6143 279.791 17.4502C279.938 17.2861 280.104 17.1484 280.292 17.0371C280.462 16.9258 280.652 16.8408 280.863 16.7822C281.08 16.7236 281.314 16.6943 281.566 16.6943C282.023 16.6943 282.416 16.7881 282.744 16.9756C283.072 17.1631 283.345 17.415 283.562 17.7314C283.772 18.0537 283.928 18.4258 284.027 18.8477C284.133 19.2637 284.186 19.7031 284.186 20.166ZM294.829 15.3145C294.138 15.3145 293.52 15.4668 292.975 15.7715C292.436 16.0703 291.973 16.4805 291.586 17.002L291.577 16.7646L291.507 15.4902H289.96V25H291.595V18.9004C291.7 18.6074 291.832 18.3438 291.99 18.1094C292.154 17.8691 292.345 17.667 292.562 17.5029C292.802 17.3154 293.083 17.1748 293.405 17.0811C293.728 16.9814 294.088 16.9316 294.486 16.9316C294.797 16.9316 295.093 16.9492 295.374 16.9844C295.661 17.0137 295.963 17.0635 296.279 17.1338L296.499 15.543C296.335 15.4727 296.089 15.417 295.761 15.376C295.438 15.335 295.128 15.3145 294.829 15.3145ZM298.951 20.1572V20.3506C298.951 21.0361 299.051 21.6719 299.25 22.2578C299.449 22.8438 299.736 23.3535 300.111 23.7871C300.48 24.2207 300.932 24.5605 301.465 24.8066C302.004 25.0527 302.61 25.1758 303.284 25.1758C303.952 25.1758 304.553 25.0527 305.086 24.8066C305.619 24.5605 306.073 24.2207 306.448 23.7871C306.817 23.3535 307.102 22.8438 307.301 22.2578C307.5 21.6719 307.6 21.0361 307.6 20.3506V20.1572C307.6 19.4717 307.5 18.8359 307.301 18.25C307.102 17.6582 306.817 17.1455 306.448 16.7119C306.073 16.2783 305.616 15.9385 305.077 15.6924C304.544 15.4404 303.94 15.3145 303.267 15.3145C302.599 15.3145 301.998 15.4404 301.465 15.6924C300.932 15.9385 300.48 16.2783 300.111 16.7119C299.736 17.1455 299.449 17.6582 299.25 18.25C299.051 18.8359 298.951 19.4717 298.951 20.1572ZM300.577 20.3506V20.1572C300.577 19.6943 300.633 19.252 300.744 18.8301C300.855 18.4023 301.025 18.0273 301.254 17.7051C301.477 17.3828 301.755 17.1279 302.089 16.9404C302.423 16.7471 302.815 16.6504 303.267 16.6504C303.718 16.6504 304.11 16.7471 304.444 16.9404C304.784 17.1279 305.068 17.3828 305.297 17.7051C305.52 18.0273 305.687 18.4023 305.798 18.8301C305.915 19.252 305.974 19.6943 305.974 20.1572V20.3506C305.974 20.8193 305.918 21.2676 305.807 21.6953C305.695 22.1172 305.528 22.4893 305.306 22.8115C305.077 23.1338 304.793 23.3887 304.453 23.5762C304.119 23.7637 303.729 23.8574 303.284 23.8574C302.833 23.8574 302.438 23.7637 302.098 23.5762C301.758 23.3887 301.477 23.1338 301.254 22.8115C301.025 22.4893 300.855 22.1172 300.744 21.6953C300.633 21.2676 300.577 20.8193 300.577 20.3506ZM310.21 28.6562H311.836V24.0859C311.953 24.2148 312.079 24.335 312.214 24.4463C312.349 24.5518 312.492 24.6484 312.645 24.7363C312.896 24.877 313.178 24.9854 313.488 25.0615C313.805 25.1377 314.145 25.1758 314.508 25.1758C315.105 25.1758 315.636 25.0527 316.099 24.8066C316.567 24.5605 316.96 24.2207 317.276 23.7871C317.593 23.3535 317.833 22.8438 317.997 22.2578C318.161 21.666 318.243 21.0303 318.243 20.3506V20.166C318.243 19.457 318.161 18.8066 317.997 18.2148C317.833 17.6172 317.593 17.1045 317.276 16.6768C316.96 16.249 316.567 15.915 316.099 15.6748C315.63 15.4346 315.091 15.3145 314.481 15.3145C314.136 15.3145 313.811 15.3525 313.506 15.4287C313.207 15.499 312.935 15.6045 312.688 15.7451C312.513 15.8389 312.349 15.9531 312.196 16.0879C312.044 16.2168 311.903 16.3633 311.774 16.5273L311.695 15.4902H310.21V28.6562ZM316.617 20.166V20.3506C316.617 20.8135 316.564 21.2559 316.459 21.6777C316.359 22.0996 316.204 22.4717 315.993 22.7939C315.782 23.1162 315.513 23.374 315.185 23.5674C314.856 23.7549 314.467 23.8486 314.016 23.8486C313.734 23.8486 313.477 23.8135 313.242 23.7432C313.014 23.6729 312.806 23.5762 312.618 23.4531C312.454 23.3477 312.308 23.2188 312.179 23.0664C312.05 22.9141 311.936 22.75 311.836 22.5742V17.9951C311.947 17.7959 312.076 17.6143 312.223 17.4502C312.369 17.2861 312.536 17.1484 312.724 17.0371C312.894 16.9258 313.084 16.8408 313.295 16.7822C313.512 16.7236 313.746 16.6943 313.998 16.6943C314.455 16.6943 314.848 16.7881 315.176 16.9756C315.504 17.1631 315.776 17.415 315.993 17.7314C316.204 18.0537 316.359 18.4258 316.459 18.8477C316.564 19.2637 316.617 19.7031 316.617 20.166ZM325.23 25.1758C326.156 25.1758 326.933 24.9912 327.56 24.6221C328.192 24.2471 328.667 23.8193 328.983 23.3389L327.99 22.5654C327.691 22.9521 327.316 23.2627 326.865 23.4971C326.414 23.7314 325.898 23.8486 325.318 23.8486C324.879 23.8486 324.478 23.7666 324.114 23.6025C323.751 23.4385 323.44 23.2129 323.183 22.9258C322.931 22.6562 322.731 22.3457 322.585 21.9941C322.444 21.6426 322.354 21.2354 322.312 20.7725V20.7109H329.106V19.9814C329.106 19.3193 329.021 18.7041 328.852 18.1357C328.688 17.5674 328.436 17.0723 328.096 16.6504C327.756 16.2344 327.328 15.9092 326.812 15.6748C326.303 15.4346 325.705 15.3145 325.02 15.3145C324.475 15.3145 323.941 15.4258 323.42 15.6484C322.904 15.8711 322.444 16.1904 322.04 16.6064C321.63 17.0283 321.302 17.5439 321.056 18.1533C320.81 18.7568 320.687 19.4424 320.687 20.21V20.5791C320.687 21.2412 320.798 21.8535 321.021 22.416C321.243 22.9785 321.554 23.4648 321.952 23.875C322.351 24.2852 322.828 24.6045 323.385 24.833C323.947 25.0615 324.562 25.1758 325.23 25.1758ZM325.02 16.6504C325.436 16.6504 325.793 16.7266 326.092 16.8789C326.396 17.0312 326.648 17.2305 326.848 17.4766C327.047 17.7227 327.202 18.0156 327.313 18.3555C327.425 18.6895 327.48 19.0029 327.48 19.2959V19.375H322.365C322.43 18.9355 322.541 18.5488 322.699 18.2148C322.863 17.875 323.062 17.5879 323.297 17.3535C323.531 17.125 323.795 16.9521 324.088 16.835C324.381 16.7119 324.691 16.6504 325.02 16.6504ZM338.071 15.3145C337.38 15.3145 336.762 15.4668 336.217 15.7715C335.678 16.0703 335.215 16.4805 334.828 17.002L334.819 16.7646L334.749 15.4902H333.202V25H334.837V18.9004C334.942 18.6074 335.074 18.3438 335.232 18.1094C335.396 17.8691 335.587 17.667 335.804 17.5029C336.044 17.3154 336.325 17.1748 336.647 17.0811C336.97 16.9814 337.33 16.9316 337.729 16.9316C338.039 16.9316 338.335 16.9492 338.616 16.9844C338.903 17.0137 339.205 17.0635 339.521 17.1338L339.741 15.543C339.577 15.4727 339.331 15.417 339.003 15.376C338.681 15.335 338.37 15.3145 338.071 15.3145ZM346.5 13.1875H344.865V15.4902H342.369V16.7471H344.865V21.915C344.865 22.501 344.941 23.002 345.094 23.418C345.252 23.8281 345.466 24.1621 345.735 24.4199C346.005 24.6836 346.321 24.877 346.685 25C347.054 25.1172 347.449 25.1758 347.871 25.1758C348.123 25.1758 348.375 25.1641 348.627 25.1406C348.885 25.1172 349.128 25.082 349.356 25.0352C349.585 24.9941 349.796 24.9443 349.989 24.8857C350.183 24.8213 350.347 24.748 350.481 24.666L350.253 23.5146C350.153 23.5381 350.024 23.5674 349.866 23.6025C349.714 23.6318 349.55 23.6611 349.374 23.6904C349.192 23.7197 349.008 23.7461 348.82 23.7695C348.633 23.7871 348.451 23.7959 348.275 23.7959C348.035 23.7959 347.807 23.7666 347.59 23.708C347.379 23.6494 347.191 23.5469 347.027 23.4004C346.863 23.2598 346.734 23.0693 346.641 22.8291C346.547 22.5889 346.5 22.2842 346.5 21.915V16.7471H350.121V15.4902H346.5V13.1875ZM354.226 28.8408C354.653 28.8408 355.031 28.7617 355.359 28.6035C355.688 28.4453 355.975 28.249 356.221 28.0146C356.467 27.7803 356.675 27.5254 356.845 27.25C357.021 26.9746 357.164 26.7139 357.275 26.4678L362.101 15.4902H360.281L357.829 21.6602L357.381 22.7764L356.959 21.625L354.349 15.4902H352.529L356.625 24.5518L355.975 25.8174C355.916 25.9346 355.834 26.084 355.729 26.2656C355.629 26.4473 355.509 26.623 355.368 26.793C355.222 26.9629 355.055 27.1094 354.867 27.2324C354.686 27.3555 354.483 27.417 354.261 27.417C354.179 27.417 354.064 27.4111 353.918 27.3994C353.777 27.3936 353.634 27.3848 353.487 27.373L353.224 28.7002C353.329 28.7236 353.484 28.7529 353.689 28.7881C353.895 28.8232 354.073 28.8408 354.226 28.8408Z" fill="#ABB2BF"/>
<path d="M436.246 25H437.485L441.361 15.4902H439.7L437.037 22.6621L436.879 23.251L436.729 22.6621L434.005 15.4902H432.335L436.246 25ZM450.062 25H451.759V24.8594C451.653 24.5957 451.571 24.2881 451.513 23.9365C451.454 23.5791 451.425 23.2422 451.425 22.9258V18.5049C451.425 17.9717 451.328 17.5059 451.135 17.1074C450.941 16.709 450.678 16.375 450.344 16.1055C450.004 15.8418 449.603 15.6455 449.14 15.5166C448.677 15.3818 448.176 15.3145 447.637 15.3145C447.045 15.3145 446.515 15.3965 446.046 15.5605C445.583 15.7246 445.19 15.9385 444.868 16.2021C444.54 16.4717 444.288 16.7734 444.112 17.1074C443.942 17.4414 443.854 17.7812 443.849 18.127H445.483C445.483 17.9277 445.53 17.7373 445.624 17.5557C445.724 17.3682 445.861 17.207 446.037 17.0723C446.213 16.9375 446.427 16.8291 446.679 16.7471C446.937 16.665 447.227 16.624 447.549 16.624C447.895 16.624 448.205 16.668 448.48 16.7559C448.762 16.8438 448.999 16.9668 449.192 17.125C449.386 17.2891 449.535 17.4854 449.641 17.7139C449.746 17.9424 449.799 18.2002 449.799 18.4873V19.2344H448.023C447.361 19.2344 446.761 19.2988 446.222 19.4277C445.688 19.5566 445.231 19.75 444.851 20.0078C444.47 20.2715 444.174 20.5996 443.963 20.9922C443.758 21.3848 443.655 21.8418 443.655 22.3633C443.655 22.7617 443.731 23.1338 443.884 23.4795C444.042 23.8193 444.265 24.1123 444.552 24.3584C444.833 24.6104 445.176 24.8096 445.58 24.9561C445.99 25.1025 446.447 25.1758 446.951 25.1758C447.262 25.1758 447.555 25.1436 447.83 25.0791C448.105 25.0146 448.366 24.9268 448.612 24.8154C448.853 24.7041 449.072 24.5752 449.271 24.4287C449.477 24.2822 449.661 24.127 449.825 23.9629C449.843 24.1621 449.869 24.3555 449.904 24.543C449.945 24.7246 449.998 24.877 450.062 25ZM447.188 23.7607C446.872 23.7607 446.594 23.7197 446.354 23.6377C446.113 23.5557 445.914 23.4414 445.756 23.2949C445.598 23.1543 445.478 22.9844 445.396 22.7852C445.319 22.5859 445.281 22.3691 445.281 22.1348C445.281 21.8887 445.325 21.6689 445.413 21.4756C445.507 21.2822 445.642 21.1152 445.817 20.9746C446.063 20.7754 446.395 20.6289 446.811 20.5352C447.232 20.4355 447.725 20.3857 448.287 20.3857H449.799V22.3105C449.705 22.498 449.576 22.6797 449.412 22.8555C449.248 23.0254 449.055 23.1777 448.832 23.3125C448.604 23.4473 448.352 23.5557 448.076 23.6377C447.801 23.7197 447.505 23.7607 447.188 23.7607ZM454.879 11.5V12.915H458.113V23.5938H454.879V25H462.842V23.5938H459.739V11.5H454.879ZM471.701 25H473.178V15.4902H471.543V22.3105C471.455 22.5156 471.344 22.7061 471.209 22.8818C471.08 23.0518 470.928 23.1982 470.752 23.3213C470.541 23.4736 470.292 23.5938 470.005 23.6816C469.718 23.7637 469.393 23.8047 469.029 23.8047C468.719 23.8047 468.443 23.7637 468.203 23.6816C467.969 23.5996 467.77 23.4561 467.605 23.251C467.441 23.0518 467.318 22.7822 467.236 22.4424C467.154 22.1025 467.113 21.6748 467.113 21.1592V15.4902H465.487V21.1416C465.487 21.8506 465.563 22.46 465.716 22.9697C465.874 23.4736 466.097 23.8896 466.384 24.2178C466.671 24.5459 467.017 24.7891 467.421 24.9473C467.825 25.0996 468.276 25.1758 468.774 25.1758C469.396 25.1758 469.943 25.0469 470.418 24.7891C470.893 24.5254 471.288 24.1592 471.604 23.6904L471.701 25ZM480.446 25.1758C481.372 25.1758 482.148 24.9912 482.775 24.6221C483.408 24.2471 483.883 23.8193 484.199 23.3389L483.206 22.5654C482.907 22.9521 482.532 23.2627 482.081 23.4971C481.63 23.7314 481.114 23.8486 480.534 23.8486C480.095 23.8486 479.693 23.7666 479.33 23.6025C478.967 23.4385 478.656 23.2129 478.398 22.9258C478.146 22.6562 477.947 22.3457 477.801 21.9941C477.66 21.6426 477.569 21.2354 477.528 20.7725V20.7109H484.322V19.9814C484.322 19.3193 484.237 18.7041 484.067 18.1357C483.903 17.5674 483.651 17.0723 483.312 16.6504C482.972 16.2344 482.544 15.9092 482.028 15.6748C481.519 15.4346 480.921 15.3145 480.235 15.3145C479.69 15.3145 479.157 15.4258 478.636 15.6484C478.12 15.8711 477.66 16.1904 477.256 16.6064C476.846 17.0283 476.518 17.5439 476.271 18.1533C476.025 18.7568 475.902 19.4424 475.902 20.21V20.5791C475.902 21.2412 476.014 21.8535 476.236 22.416C476.459 22.9785 476.77 23.4648 477.168 23.875C477.566 24.2852 478.044 24.6045 478.601 24.833C479.163 25.0615 479.778 25.1758 480.446 25.1758ZM480.235 16.6504C480.651 16.6504 481.009 16.7266 481.308 16.8789C481.612 17.0312 481.864 17.2305 482.063 17.4766C482.263 17.7227 482.418 18.0156 482.529 18.3555C482.641 18.6895 482.696 19.0029 482.696 19.2959V19.375H477.581C477.646 18.9355 477.757 18.5488 477.915 18.2148C478.079 17.875 478.278 17.5879 478.513 17.3535C478.747 17.125 479.011 16.9521 479.304 16.835C479.597 16.7119 479.907 16.6504 480.235 16.6504Z" fill="#ABB2BF"/>
<path d="M371.764 204.166V204.351C371.764 205.03 371.854 205.666 372.036 206.258C372.218 206.844 372.473 207.354 372.801 207.787C373.129 208.221 373.524 208.561 373.987 208.807C374.456 209.053 374.978 209.176 375.552 209.176C376.138 209.176 376.65 209.076 377.09 208.877C377.529 208.678 377.907 208.385 378.224 207.998L378.294 209H379.788V195.5H378.162V200.431C377.852 200.067 377.482 199.792 377.055 199.604C376.633 199.411 376.138 199.314 375.569 199.314C374.989 199.314 374.465 199.435 373.996 199.675C373.527 199.915 373.129 200.249 372.801 200.677C372.467 201.104 372.209 201.617 372.027 202.215C371.852 202.807 371.764 203.457 371.764 204.166ZM373.39 204.351V204.166C373.39 203.703 373.439 203.264 373.539 202.848C373.639 202.426 373.794 202.054 374.005 201.731C374.21 201.415 374.474 201.163 374.796 200.976C375.124 200.788 375.517 200.694 375.974 200.694C376.507 200.694 376.952 200.82 377.31 201.072C377.667 201.318 377.951 201.635 378.162 202.021V206.434C377.951 206.85 377.667 207.181 377.31 207.427C376.952 207.673 376.501 207.796 375.956 207.796C375.505 207.796 375.118 207.705 374.796 207.523C374.474 207.336 374.21 207.084 374.005 206.768C373.794 206.451 373.639 206.085 373.539 205.669C373.439 205.253 373.39 204.813 373.39 204.351ZM387.083 209.176C388.009 209.176 388.785 208.991 389.412 208.622C390.045 208.247 390.52 207.819 390.836 207.339L389.843 206.565C389.544 206.952 389.169 207.263 388.718 207.497C388.267 207.731 387.751 207.849 387.171 207.849C386.731 207.849 386.33 207.767 385.967 207.603C385.604 207.438 385.293 207.213 385.035 206.926C384.783 206.656 384.584 206.346 384.438 205.994C384.297 205.643 384.206 205.235 384.165 204.772V204.711H390.959V203.981C390.959 203.319 390.874 202.704 390.704 202.136C390.54 201.567 390.288 201.072 389.948 200.65C389.608 200.234 389.181 199.909 388.665 199.675C388.155 199.435 387.558 199.314 386.872 199.314C386.327 199.314 385.794 199.426 385.272 199.648C384.757 199.871 384.297 200.19 383.893 200.606C383.482 201.028 383.154 201.544 382.908 202.153C382.662 202.757 382.539 203.442 382.539 204.21V204.579C382.539 205.241 382.65 205.854 382.873 206.416C383.096 206.979 383.406 207.465 383.805 207.875C384.203 208.285 384.681 208.604 385.237 208.833C385.8 209.062 386.415 209.176 387.083 209.176ZM386.872 200.65C387.288 200.65 387.646 200.727 387.944 200.879C388.249 201.031 388.501 201.23 388.7 201.477C388.899 201.723 389.055 202.016 389.166 202.355C389.277 202.689 389.333 203.003 389.333 203.296V203.375H384.218C384.282 202.936 384.394 202.549 384.552 202.215C384.716 201.875 384.915 201.588 385.149 201.354C385.384 201.125 385.647 200.952 385.94 200.835C386.233 200.712 386.544 200.65 386.872 200.65ZM397.744 207.857C397.234 207.857 396.807 207.758 396.461 207.559C396.121 207.354 395.849 207.087 395.644 206.759C395.433 206.437 395.28 206.073 395.187 205.669C395.099 205.259 395.055 204.846 395.055 204.43V204.061C395.055 203.65 395.099 203.243 395.187 202.839C395.28 202.435 395.433 202.068 395.644 201.74C395.854 201.418 396.13 201.157 396.47 200.958C396.815 200.753 397.24 200.65 397.744 200.65C398.072 200.65 398.377 200.706 398.658 200.817C398.945 200.929 399.191 201.081 399.396 201.274C399.602 201.468 399.763 201.693 399.88 201.951C400.003 202.203 400.067 202.473 400.073 202.76H401.611C401.611 202.279 401.515 201.828 401.321 201.406C401.128 200.984 400.861 200.618 400.521 200.308C400.176 200.003 399.766 199.763 399.291 199.587C398.822 199.405 398.307 199.314 397.744 199.314C397.023 199.314 396.394 199.443 395.854 199.701C395.315 199.959 394.867 200.305 394.51 200.738C394.146 201.178 393.874 201.685 393.692 202.259C393.511 202.833 393.42 203.434 393.42 204.061V204.43C393.42 205.062 393.511 205.666 393.692 206.24C393.874 206.809 394.146 207.31 394.51 207.743C394.867 208.183 395.315 208.531 395.854 208.789C396.394 209.047 397.023 209.176 397.744 209.176C398.248 209.176 398.731 209.091 399.194 208.921C399.657 208.745 400.067 208.511 400.425 208.218C400.782 207.931 401.066 207.597 401.277 207.216C401.494 206.829 401.605 206.425 401.611 206.003H400.073C400.067 206.267 399.997 206.513 399.862 206.741C399.733 206.964 399.561 207.157 399.344 207.321C399.127 207.491 398.878 207.623 398.597 207.717C398.321 207.811 398.037 207.857 397.744 207.857ZM404.758 195.5V196.915H407.992V207.594H404.758V209H412.721V207.594H409.618V195.5H404.758ZM421.562 209H423.259V208.859C423.153 208.596 423.071 208.288 423.013 207.937C422.954 207.579 422.925 207.242 422.925 206.926V202.505C422.925 201.972 422.828 201.506 422.635 201.107C422.441 200.709 422.178 200.375 421.844 200.105C421.504 199.842 421.103 199.646 420.64 199.517C420.177 199.382 419.676 199.314 419.137 199.314C418.545 199.314 418.015 199.396 417.546 199.561C417.083 199.725 416.69 199.938 416.368 200.202C416.04 200.472 415.788 200.773 415.612 201.107C415.442 201.441 415.354 201.781 415.349 202.127H416.983C416.983 201.928 417.03 201.737 417.124 201.556C417.224 201.368 417.361 201.207 417.537 201.072C417.713 200.938 417.927 200.829 418.179 200.747C418.437 200.665 418.727 200.624 419.049 200.624C419.395 200.624 419.705 200.668 419.98 200.756C420.262 200.844 420.499 200.967 420.692 201.125C420.886 201.289 421.035 201.485 421.141 201.714C421.246 201.942 421.299 202.2 421.299 202.487V203.234H419.523C418.861 203.234 418.261 203.299 417.722 203.428C417.188 203.557 416.731 203.75 416.351 204.008C415.97 204.271 415.674 204.6 415.463 204.992C415.258 205.385 415.155 205.842 415.155 206.363C415.155 206.762 415.231 207.134 415.384 207.479C415.542 207.819 415.765 208.112 416.052 208.358C416.333 208.61 416.676 208.81 417.08 208.956C417.49 209.103 417.947 209.176 418.451 209.176C418.762 209.176 419.055 209.144 419.33 209.079C419.605 209.015 419.866 208.927 420.112 208.815C420.353 208.704 420.572 208.575 420.771 208.429C420.977 208.282 421.161 208.127 421.325 207.963C421.343 208.162 421.369 208.355 421.404 208.543C421.445 208.725 421.498 208.877 421.562 209ZM418.688 207.761C418.372 207.761 418.094 207.72 417.854 207.638C417.613 207.556 417.414 207.441 417.256 207.295C417.098 207.154 416.978 206.984 416.896 206.785C416.819 206.586 416.781 206.369 416.781 206.135C416.781 205.889 416.825 205.669 416.913 205.476C417.007 205.282 417.142 205.115 417.317 204.975C417.563 204.775 417.895 204.629 418.311 204.535C418.732 204.436 419.225 204.386 419.787 204.386H421.299V206.311C421.205 206.498 421.076 206.68 420.912 206.855C420.748 207.025 420.555 207.178 420.332 207.312C420.104 207.447 419.852 207.556 419.576 207.638C419.301 207.72 419.005 207.761 418.688 207.761ZM432.355 199.314C431.664 199.314 431.046 199.467 430.501 199.771C429.962 200.07 429.499 200.48 429.112 201.002L429.104 200.765L429.033 199.49H427.486V209H429.121V202.9C429.227 202.607 429.358 202.344 429.517 202.109C429.681 201.869 429.871 201.667 430.088 201.503C430.328 201.315 430.609 201.175 430.932 201.081C431.254 200.981 431.614 200.932 432.013 200.932C432.323 200.932 432.619 200.949 432.9 200.984C433.188 201.014 433.489 201.063 433.806 201.134L434.025 199.543C433.861 199.473 433.615 199.417 433.287 199.376C432.965 199.335 432.654 199.314 432.355 199.314ZM443.184 209H444.88V208.859C444.774 208.596 444.692 208.288 444.634 207.937C444.575 207.579 444.546 207.242 444.546 206.926V202.505C444.546 201.972 444.449 201.506 444.256 201.107C444.062 200.709 443.799 200.375 443.465 200.105C443.125 199.842 442.724 199.646 442.261 199.517C441.798 199.382 441.297 199.314 440.758 199.314C440.166 199.314 439.636 199.396 439.167 199.561C438.704 199.725 438.312 199.938 437.989 200.202C437.661 200.472 437.409 200.773 437.233 201.107C437.063 201.441 436.976 201.781 436.97 202.127H438.604C438.604 201.928 438.651 201.737 438.745 201.556C438.845 201.368 438.982 201.207 439.158 201.072C439.334 200.938 439.548 200.829 439.8 200.747C440.058 200.665 440.348 200.624 440.67 200.624C441.016 200.624 441.326 200.668 441.602 200.756C441.883 200.844 442.12 200.967 442.313 201.125C442.507 201.289 442.656 201.485 442.762 201.714C442.867 201.942 442.92 202.2 442.92 202.487V203.234H441.145C440.482 203.234 439.882 203.299 439.343 203.428C438.81 203.557 438.353 203.75 437.972 204.008C437.591 204.271 437.295 204.6 437.084 204.992C436.879 205.385 436.776 205.842 436.776 206.363C436.776 206.762 436.853 207.134 437.005 207.479C437.163 207.819 437.386 208.112 437.673 208.358C437.954 208.61 438.297 208.81 438.701 208.956C439.111 209.103 439.568 209.176 440.072 209.176C440.383 209.176 440.676 209.144 440.951 209.079C441.227 209.015 441.487 208.927 441.733 208.815C441.974 208.704 442.193 208.575 442.393 208.429C442.598 208.282 442.782 208.127 442.946 207.963C442.964 208.162 442.99 208.355 443.025 208.543C443.066 208.725 443.119 208.877 443.184 209ZM440.31 207.761C439.993 207.761 439.715 207.72 439.475 207.638C439.234 207.556 439.035 207.441 438.877 207.295C438.719 207.154 438.599 206.984 438.517 206.785C438.44 206.586 438.402 206.369 438.402 206.135C438.402 205.889 438.446 205.669 438.534 205.476C438.628 205.282 438.763 205.115 438.938 204.975C439.185 204.775 439.516 204.629 439.932 204.535C440.354 204.436 440.846 204.386 441.408 204.386H442.92V206.311C442.826 206.498 442.697 206.68 442.533 206.855C442.369 207.025 442.176 207.178 441.953 207.312C441.725 207.447 441.473 207.556 441.197 207.638C440.922 207.72 440.626 207.761 440.31 207.761ZM451.595 197.188H449.96V199.49H447.464V200.747H449.96V205.915C449.96 206.501 450.036 207.002 450.188 207.418C450.347 207.828 450.561 208.162 450.83 208.42C451.1 208.684 451.416 208.877 451.779 209C452.148 209.117 452.544 209.176 452.966 209.176C453.218 209.176 453.47 209.164 453.722 209.141C453.979 209.117 454.223 209.082 454.451 209.035C454.68 208.994 454.891 208.944 455.084 208.886C455.277 208.821 455.441 208.748 455.576 208.666L455.348 207.515C455.248 207.538 455.119 207.567 454.961 207.603C454.809 207.632 454.645 207.661 454.469 207.69C454.287 207.72 454.103 207.746 453.915 207.77C453.728 207.787 453.546 207.796 453.37 207.796C453.13 207.796 452.901 207.767 452.685 207.708C452.474 207.649 452.286 207.547 452.122 207.4C451.958 207.26 451.829 207.069 451.735 206.829C451.642 206.589 451.595 206.284 451.595 205.915V200.747H455.216V199.49H451.595V197.188ZM458.811 199.49V200.905H462.045V207.594H458.811V209H466.773V207.594H463.671V199.49H458.811ZM461.834 196.994C461.834 197.258 461.913 197.478 462.071 197.653C462.235 197.829 462.481 197.917 462.81 197.917C463.132 197.917 463.375 197.829 463.539 197.653C463.703 197.478 463.785 197.258 463.785 196.994C463.785 196.848 463.762 196.713 463.715 196.59C463.668 196.467 463.598 196.364 463.504 196.282C463.428 196.206 463.331 196.147 463.214 196.106C463.097 196.06 462.962 196.036 462.81 196.036C462.657 196.036 462.52 196.06 462.396 196.106C462.279 196.147 462.183 196.206 462.106 196.282C462.013 196.37 461.942 196.476 461.896 196.599C461.854 196.722 461.834 196.854 461.834 196.994ZM468.909 204.157V204.351C468.909 205.036 469.009 205.672 469.208 206.258C469.407 206.844 469.694 207.354 470.069 207.787C470.438 208.221 470.89 208.561 471.423 208.807C471.962 209.053 472.568 209.176 473.242 209.176C473.91 209.176 474.511 209.053 475.044 208.807C475.577 208.561 476.031 208.221 476.406 207.787C476.775 207.354 477.06 206.844 477.259 206.258C477.458 205.672 477.558 205.036 477.558 204.351V204.157C477.558 203.472 477.458 202.836 477.259 202.25C477.06 201.658 476.775 201.146 476.406 200.712C476.031 200.278 475.574 199.938 475.035 199.692C474.502 199.44 473.898 199.314 473.225 199.314C472.557 199.314 471.956 199.44 471.423 199.692C470.89 199.938 470.438 200.278 470.069 200.712C469.694 201.146 469.407 201.658 469.208 202.25C469.009 202.836 468.909 203.472 468.909 204.157ZM470.535 204.351V204.157C470.535 203.694 470.591 203.252 470.702 202.83C470.813 202.402 470.983 202.027 471.212 201.705C471.435 201.383 471.713 201.128 472.047 200.94C472.381 200.747 472.773 200.65 473.225 200.65C473.676 200.65 474.068 200.747 474.402 200.94C474.742 201.128 475.026 201.383 475.255 201.705C475.478 202.027 475.645 202.402 475.756 202.83C475.873 203.252 475.932 203.694 475.932 204.157V204.351C475.932 204.819 475.876 205.268 475.765 205.695C475.653 206.117 475.486 206.489 475.264 206.812C475.035 207.134 474.751 207.389 474.411 207.576C474.077 207.764 473.688 207.857 473.242 207.857C472.791 207.857 472.396 207.764 472.056 207.576C471.716 207.389 471.435 207.134 471.212 206.812C470.983 206.489 470.813 206.117 470.702 205.695C470.591 205.268 470.535 204.819 470.535 204.351ZM480.177 209H481.803V202.18C481.914 201.975 482.043 201.787 482.189 201.617C482.342 201.447 482.506 201.298 482.682 201.169C482.898 201.022 483.136 200.908 483.394 200.826C483.651 200.738 483.93 200.694 484.229 200.694C484.574 200.694 484.879 200.735 485.143 200.817C485.412 200.899 485.641 201.031 485.828 201.213C486.01 201.395 486.147 201.632 486.241 201.925C486.335 202.218 486.382 202.575 486.382 202.997V209H488.008V202.962C488.008 202.329 487.929 201.784 487.771 201.327C487.618 200.864 487.398 200.483 487.111 200.185C486.824 199.886 486.476 199.666 486.065 199.525C485.661 199.385 485.21 199.314 484.712 199.314C484.343 199.32 483.991 199.376 483.657 199.481C483.329 199.581 483.024 199.725 482.743 199.912C482.556 200.035 482.377 200.182 482.207 200.352C482.043 200.516 481.891 200.697 481.75 200.896L481.636 199.49H480.177V209Z" fill="#ABB2BF"/>
<path d="M660.764 117.166V117.351C660.764 118.03 660.854 118.666 661.036 119.258C661.218 119.844 661.473 120.354 661.801 120.787C662.129 121.221 662.524 121.561 662.987 121.807C663.456 122.053 663.978 122.176 664.552 122.176C665.138 122.176 665.65 122.076 666.09 121.877C666.529 121.678 666.907 121.385 667.224 120.998L667.294 122H668.788V108.5H667.162V113.431C666.852 113.067 666.482 112.792 666.055 112.604C665.633 112.411 665.138 112.314 664.569 112.314C663.989 112.314 663.465 112.435 662.996 112.675C662.527 112.915 662.129 113.249 661.801 113.677C661.467 114.104 661.209 114.617 661.027 115.215C660.852 115.807 660.764 116.457 660.764 117.166ZM662.39 117.351V117.166C662.39 116.703 662.439 116.264 662.539 115.848C662.639 115.426 662.794 115.054 663.005 114.731C663.21 114.415 663.474 114.163 663.796 113.976C664.124 113.788 664.517 113.694 664.974 113.694C665.507 113.694 665.952 113.82 666.31 114.072C666.667 114.318 666.951 114.635 667.162 115.021V119.434C666.951 119.85 666.667 120.181 666.31 120.427C665.952 120.673 665.501 120.796 664.956 120.796C664.505 120.796 664.118 120.705 663.796 120.523C663.474 120.336 663.21 120.084 663.005 119.768C662.794 119.451 662.639 119.085 662.539 118.669C662.439 118.253 662.39 117.813 662.39 117.351ZM676.083 122.176C677.009 122.176 677.785 121.991 678.412 121.622C679.045 121.247 679.52 120.819 679.836 120.339L678.843 119.565C678.544 119.952 678.169 120.263 677.718 120.497C677.267 120.731 676.751 120.849 676.171 120.849C675.731 120.849 675.33 120.767 674.967 120.603C674.604 120.438 674.293 120.213 674.035 119.926C673.783 119.656 673.584 119.346 673.438 118.994C673.297 118.643 673.206 118.235 673.165 117.772V117.711H679.959V116.981C679.959 116.319 679.874 115.704 679.704 115.136C679.54 114.567 679.288 114.072 678.948 113.65C678.608 113.234 678.181 112.909 677.665 112.675C677.155 112.435 676.558 112.314 675.872 112.314C675.327 112.314 674.794 112.426 674.272 112.648C673.757 112.871 673.297 113.19 672.893 113.606C672.482 114.028 672.154 114.544 671.908 115.153C671.662 115.757 671.539 116.442 671.539 117.21V117.579C671.539 118.241 671.65 118.854 671.873 119.416C672.096 119.979 672.406 120.465 672.805 120.875C673.203 121.285 673.681 121.604 674.237 121.833C674.8 122.062 675.415 122.176 676.083 122.176ZM675.872 113.65C676.288 113.65 676.646 113.727 676.944 113.879C677.249 114.031 677.501 114.23 677.7 114.477C677.899 114.723 678.055 115.016 678.166 115.355C678.277 115.689 678.333 116.003 678.333 116.296V116.375H673.218C673.282 115.936 673.394 115.549 673.552 115.215C673.716 114.875 673.915 114.588 674.149 114.354C674.384 114.125 674.647 113.952 674.94 113.835C675.233 113.712 675.544 113.65 675.872 113.65ZM686.744 120.857C686.234 120.857 685.807 120.758 685.461 120.559C685.121 120.354 684.849 120.087 684.644 119.759C684.433 119.437 684.28 119.073 684.187 118.669C684.099 118.259 684.055 117.846 684.055 117.43V117.061C684.055 116.65 684.099 116.243 684.187 115.839C684.28 115.435 684.433 115.068 684.644 114.74C684.854 114.418 685.13 114.157 685.47 113.958C685.815 113.753 686.24 113.65 686.744 113.65C687.072 113.65 687.377 113.706 687.658 113.817C687.945 113.929 688.191 114.081 688.396 114.274C688.602 114.468 688.763 114.693 688.88 114.951C689.003 115.203 689.067 115.473 689.073 115.76H690.611C690.611 115.279 690.515 114.828 690.321 114.406C690.128 113.984 689.861 113.618 689.521 113.308C689.176 113.003 688.766 112.763 688.291 112.587C687.822 112.405 687.307 112.314 686.744 112.314C686.023 112.314 685.394 112.443 684.854 112.701C684.315 112.959 683.867 113.305 683.51 113.738C683.146 114.178 682.874 114.685 682.692 115.259C682.511 115.833 682.42 116.434 682.42 117.061V117.43C682.42 118.062 682.511 118.666 682.692 119.24C682.874 119.809 683.146 120.31 683.51 120.743C683.867 121.183 684.315 121.531 684.854 121.789C685.394 122.047 686.023 122.176 686.744 122.176C687.248 122.176 687.731 122.091 688.194 121.921C688.657 121.745 689.067 121.511 689.425 121.218C689.782 120.931 690.066 120.597 690.277 120.216C690.494 119.829 690.605 119.425 690.611 119.003H689.073C689.067 119.267 688.997 119.513 688.862 119.741C688.733 119.964 688.561 120.157 688.344 120.321C688.127 120.491 687.878 120.623 687.597 120.717C687.321 120.811 687.037 120.857 686.744 120.857ZM693.758 108.5V109.915H696.992V120.594H693.758V122H701.721V120.594H698.618V108.5H693.758ZM710.562 122H712.259V121.859C712.153 121.596 712.071 121.288 712.013 120.937C711.954 120.579 711.925 120.242 711.925 119.926V115.505C711.925 114.972 711.828 114.506 711.635 114.107C711.441 113.709 711.178 113.375 710.844 113.105C710.504 112.842 710.103 112.646 709.64 112.517C709.177 112.382 708.676 112.314 708.137 112.314C707.545 112.314 707.015 112.396 706.546 112.561C706.083 112.725 705.69 112.938 705.368 113.202C705.04 113.472 704.788 113.773 704.612 114.107C704.442 114.441 704.354 114.781 704.349 115.127H705.983C705.983 114.928 706.03 114.737 706.124 114.556C706.224 114.368 706.361 114.207 706.537 114.072C706.713 113.938 706.927 113.829 707.179 113.747C707.437 113.665 707.727 113.624 708.049 113.624C708.395 113.624 708.705 113.668 708.98 113.756C709.262 113.844 709.499 113.967 709.692 114.125C709.886 114.289 710.035 114.485 710.141 114.714C710.246 114.942 710.299 115.2 710.299 115.487V116.234H708.523C707.861 116.234 707.261 116.299 706.722 116.428C706.188 116.557 705.731 116.75 705.351 117.008C704.97 117.271 704.674 117.6 704.463 117.992C704.258 118.385 704.155 118.842 704.155 119.363C704.155 119.762 704.231 120.134 704.384 120.479C704.542 120.819 704.765 121.112 705.052 121.358C705.333 121.61 705.676 121.81 706.08 121.956C706.49 122.103 706.947 122.176 707.451 122.176C707.762 122.176 708.055 122.144 708.33 122.079C708.605 122.015 708.866 121.927 709.112 121.815C709.353 121.704 709.572 121.575 709.771 121.429C709.977 121.282 710.161 121.127 710.325 120.963C710.343 121.162 710.369 121.355 710.404 121.543C710.445 121.725 710.498 121.877 710.562 122ZM707.688 120.761C707.372 120.761 707.094 120.72 706.854 120.638C706.613 120.556 706.414 120.441 706.256 120.295C706.098 120.154 705.978 119.984 705.896 119.785C705.819 119.586 705.781 119.369 705.781 119.135C705.781 118.889 705.825 118.669 705.913 118.476C706.007 118.282 706.142 118.115 706.317 117.975C706.563 117.775 706.895 117.629 707.311 117.535C707.732 117.436 708.225 117.386 708.787 117.386H710.299V119.311C710.205 119.498 710.076 119.68 709.912 119.855C709.748 120.025 709.555 120.178 709.332 120.312C709.104 120.447 708.852 120.556 708.576 120.638C708.301 120.72 708.005 120.761 707.688 120.761ZM721.355 112.314C720.664 112.314 720.046 112.467 719.501 112.771C718.962 113.07 718.499 113.48 718.112 114.002L718.104 113.765L718.033 112.49H716.486V122H718.121V115.9C718.227 115.607 718.358 115.344 718.517 115.109C718.681 114.869 718.871 114.667 719.088 114.503C719.328 114.315 719.609 114.175 719.932 114.081C720.254 113.981 720.614 113.932 721.013 113.932C721.323 113.932 721.619 113.949 721.9 113.984C722.188 114.014 722.489 114.063 722.806 114.134L723.025 112.543C722.861 112.473 722.615 112.417 722.287 112.376C721.965 112.335 721.654 112.314 721.355 112.314ZM732.184 122H733.88V121.859C733.774 121.596 733.692 121.288 733.634 120.937C733.575 120.579 733.546 120.242 733.546 119.926V115.505C733.546 114.972 733.449 114.506 733.256 114.107C733.062 113.709 732.799 113.375 732.465 113.105C732.125 112.842 731.724 112.646 731.261 112.517C730.798 112.382 730.297 112.314 729.758 112.314C729.166 112.314 728.636 112.396 728.167 112.561C727.704 112.725 727.312 112.938 726.989 113.202C726.661 113.472 726.409 113.773 726.233 114.107C726.063 114.441 725.976 114.781 725.97 115.127H727.604C727.604 114.928 727.651 114.737 727.745 114.556C727.845 114.368 727.982 114.207 728.158 114.072C728.334 113.938 728.548 113.829 728.8 113.747C729.058 113.665 729.348 113.624 729.67 113.624C730.016 113.624 730.326 113.668 730.602 113.756C730.883 113.844 731.12 113.967 731.313 114.125C731.507 114.289 731.656 114.485 731.762 114.714C731.867 114.942 731.92 115.2 731.92 115.487V116.234H730.145C729.482 116.234 728.882 116.299 728.343 116.428C727.81 116.557 727.353 116.75 726.972 117.008C726.591 117.271 726.295 117.6 726.084 117.992C725.879 118.385 725.776 118.842 725.776 119.363C725.776 119.762 725.853 120.134 726.005 120.479C726.163 120.819 726.386 121.112 726.673 121.358C726.954 121.61 727.297 121.81 727.701 121.956C728.111 122.103 728.568 122.176 729.072 122.176C729.383 122.176 729.676 122.144 729.951 122.079C730.227 122.015 730.487 121.927 730.733 121.815C730.974 121.704 731.193 121.575 731.393 121.429C731.598 121.282 731.782 121.127 731.946 120.963C731.964 121.162 731.99 121.355 732.025 121.543C732.066 121.725 732.119 121.877 732.184 122ZM729.31 120.761C728.993 120.761 728.715 120.72 728.475 120.638C728.234 120.556 728.035 120.441 727.877 120.295C727.719 120.154 727.599 119.984 727.517 119.785C727.44 119.586 727.402 119.369 727.402 119.135C727.402 118.889 727.446 118.669 727.534 118.476C727.628 118.282 727.763 118.115 727.938 117.975C728.185 117.775 728.516 117.629 728.932 117.535C729.354 117.436 729.846 117.386 730.408 117.386H731.92V119.311C731.826 119.498 731.697 119.68 731.533 119.855C731.369 120.025 731.176 120.178 730.953 120.312C730.725 120.447 730.473 120.556 730.197 120.638C729.922 120.72 729.626 120.761 729.31 120.761ZM740.595 110.188H738.96V112.49H736.464V113.747H738.96V118.915C738.96 119.501 739.036 120.002 739.188 120.418C739.347 120.828 739.561 121.162 739.83 121.42C740.1 121.684 740.416 121.877 740.779 122C741.148 122.117 741.544 122.176 741.966 122.176C742.218 122.176 742.47 122.164 742.722 122.141C742.979 122.117 743.223 122.082 743.451 122.035C743.68 121.994 743.891 121.944 744.084 121.886C744.277 121.821 744.441 121.748 744.576 121.666L744.348 120.515C744.248 120.538 744.119 120.567 743.961 120.603C743.809 120.632 743.645 120.661 743.469 120.69C743.287 120.72 743.103 120.746 742.915 120.77C742.728 120.787 742.546 120.796 742.37 120.796C742.13 120.796 741.901 120.767 741.685 120.708C741.474 120.649 741.286 120.547 741.122 120.4C740.958 120.26 740.829 120.069 740.735 119.829C740.642 119.589 740.595 119.284 740.595 118.915V113.747H744.216V112.49H740.595V110.188ZM747.811 112.49V113.905H751.045V120.594H747.811V122H755.773V120.594H752.671V112.49H747.811ZM750.834 109.994C750.834 110.258 750.913 110.478 751.071 110.653C751.235 110.829 751.481 110.917 751.81 110.917C752.132 110.917 752.375 110.829 752.539 110.653C752.703 110.478 752.785 110.258 752.785 109.994C752.785 109.848 752.762 109.713 752.715 109.59C752.668 109.467 752.598 109.364 752.504 109.282C752.428 109.206 752.331 109.147 752.214 109.106C752.097 109.06 751.962 109.036 751.81 109.036C751.657 109.036 751.52 109.06 751.396 109.106C751.279 109.147 751.183 109.206 751.106 109.282C751.013 109.37 750.942 109.476 750.896 109.599C750.854 109.722 750.834 109.854 750.834 109.994ZM757.909 117.157V117.351C757.909 118.036 758.009 118.672 758.208 119.258C758.407 119.844 758.694 120.354 759.069 120.787C759.438 121.221 759.89 121.561 760.423 121.807C760.962 122.053 761.568 122.176 762.242 122.176C762.91 122.176 763.511 122.053 764.044 121.807C764.577 121.561 765.031 121.221 765.406 120.787C765.775 120.354 766.06 119.844 766.259 119.258C766.458 118.672 766.558 118.036 766.558 117.351V117.157C766.558 116.472 766.458 115.836 766.259 115.25C766.06 114.658 765.775 114.146 765.406 113.712C765.031 113.278 764.574 112.938 764.035 112.692C763.502 112.44 762.898 112.314 762.225 112.314C761.557 112.314 760.956 112.44 760.423 112.692C759.89 112.938 759.438 113.278 759.069 113.712C758.694 114.146 758.407 114.658 758.208 115.25C758.009 115.836 757.909 116.472 757.909 117.157ZM759.535 117.351V117.157C759.535 116.694 759.591 116.252 759.702 115.83C759.813 115.402 759.983 115.027 760.212 114.705C760.435 114.383 760.713 114.128 761.047 113.94C761.381 113.747 761.773 113.65 762.225 113.65C762.676 113.65 763.068 113.747 763.402 113.94C763.742 114.128 764.026 114.383 764.255 114.705C764.478 115.027 764.645 115.402 764.756 115.83C764.873 116.252 764.932 116.694 764.932 117.157V117.351C764.932 117.819 764.876 118.268 764.765 118.695C764.653 119.117 764.486 119.489 764.264 119.812C764.035 120.134 763.751 120.389 763.411 120.576C763.077 120.764 762.688 120.857 762.242 120.857C761.791 120.857 761.396 120.764 761.056 120.576C760.716 120.389 760.435 120.134 760.212 119.812C759.983 119.489 759.813 119.117 759.702 118.695C759.591 118.268 759.535 117.819 759.535 117.351ZM769.177 122H770.803V115.18C770.914 114.975 771.043 114.787 771.189 114.617C771.342 114.447 771.506 114.298 771.682 114.169C771.898 114.022 772.136 113.908 772.394 113.826C772.651 113.738 772.93 113.694 773.229 113.694C773.574 113.694 773.879 113.735 774.143 113.817C774.412 113.899 774.641 114.031 774.828 114.213C775.01 114.395 775.147 114.632 775.241 114.925C775.335 115.218 775.382 115.575 775.382 115.997V122H777.008V115.962C777.008 115.329 776.929 114.784 776.771 114.327C776.618 113.864 776.398 113.483 776.111 113.185C775.824 112.886 775.476 112.666 775.065 112.525C774.661 112.385 774.21 112.314 773.712 112.314C773.343 112.32 772.991 112.376 772.657 112.481C772.329 112.581 772.024 112.725 771.743 112.912C771.556 113.035 771.377 113.182 771.207 113.352C771.043 113.516 770.891 113.697 770.75 113.896L770.636 112.49H769.177V122ZM701.562 141.351V141.166C701.562 140.668 701.521 140.196 701.439 139.751C701.357 139.3 701.237 138.89 701.079 138.521C700.927 138.192 700.751 137.896 700.552 137.633C700.353 137.363 700.127 137.135 699.875 136.947C699.594 136.748 699.28 136.593 698.935 136.481C698.589 136.37 698.211 136.314 697.801 136.314C697.473 136.314 697.168 136.347 696.887 136.411C696.605 136.476 696.348 136.569 696.113 136.692C695.926 136.792 695.75 136.912 695.586 137.053C695.422 137.188 695.272 137.34 695.138 137.51V132.5H693.512V146H695.006L695.085 144.919C695.19 145.054 695.302 145.177 695.419 145.288C695.536 145.399 695.659 145.502 695.788 145.596C696.058 145.783 696.359 145.927 696.693 146.026C697.033 146.126 697.408 146.176 697.818 146.176C698.176 146.176 698.507 146.132 698.812 146.044C699.122 145.956 699.406 145.833 699.664 145.675C700.021 145.446 700.326 145.159 700.578 144.813C700.836 144.462 701.044 144.066 701.202 143.627C701.319 143.293 701.407 142.936 701.466 142.555C701.53 142.168 701.562 141.767 701.562 141.351ZM699.937 141.166V141.351C699.937 141.632 699.919 141.907 699.884 142.177C699.849 142.446 699.793 142.698 699.717 142.933C699.623 143.243 699.497 143.524 699.339 143.776C699.181 144.028 698.984 144.236 698.75 144.4C698.574 144.529 698.375 144.629 698.152 144.699C697.93 144.764 697.684 144.796 697.414 144.796C697.133 144.796 696.875 144.761 696.641 144.69C696.406 144.614 696.195 144.509 696.008 144.374C695.82 144.239 695.653 144.084 695.507 143.908C695.366 143.727 695.243 143.53 695.138 143.319V139.162C695.237 138.951 695.357 138.758 695.498 138.582C695.645 138.4 695.812 138.242 695.999 138.107C696.181 137.979 696.389 137.879 696.623 137.809C696.857 137.732 697.115 137.694 697.396 137.694C697.654 137.694 697.889 137.724 698.1 137.782C698.311 137.841 698.501 137.923 698.671 138.028C698.917 138.175 699.125 138.377 699.295 138.635C699.465 138.893 699.603 139.177 699.708 139.487C699.784 139.739 699.84 140.009 699.875 140.296C699.916 140.577 699.937 140.867 699.937 141.166ZM704.568 132.5V133.915H707.803V144.594H704.568V146H712.531V144.594H709.429V132.5H704.568ZM714.667 141.157V141.351C714.667 142.036 714.767 142.672 714.966 143.258C715.165 143.844 715.452 144.354 715.827 144.787C716.196 145.221 716.647 145.561 717.181 145.807C717.72 146.053 718.326 146.176 719 146.176C719.668 146.176 720.269 146.053 720.802 145.807C721.335 145.561 721.789 145.221 722.164 144.787C722.533 144.354 722.817 143.844 723.017 143.258C723.216 142.672 723.315 142.036 723.315 141.351V141.157C723.315 140.472 723.216 139.836 723.017 139.25C722.817 138.658 722.533 138.146 722.164 137.712C721.789 137.278 721.332 136.938 720.793 136.692C720.26 136.44 719.656 136.314 718.982 136.314C718.314 136.314 717.714 136.44 717.181 136.692C716.647 136.938 716.196 137.278 715.827 137.712C715.452 138.146 715.165 138.658 714.966 139.25C714.767 139.836 714.667 140.472 714.667 141.157ZM716.293 141.351V141.157C716.293 140.694 716.349 140.252 716.46 139.83C716.571 139.402 716.741 139.027 716.97 138.705C717.192 138.383 717.471 138.128 717.805 137.94C718.139 137.747 718.531 137.65 718.982 137.65C719.434 137.65 719.826 137.747 720.16 137.94C720.5 138.128 720.784 138.383 721.013 138.705C721.235 139.027 721.402 139.402 721.514 139.83C721.631 140.252 721.689 140.694 721.689 141.157V141.351C721.689 141.819 721.634 142.268 721.522 142.695C721.411 143.117 721.244 143.489 721.021 143.812C720.793 144.134 720.509 144.389 720.169 144.576C719.835 144.764 719.445 144.857 719 144.857C718.549 144.857 718.153 144.764 717.813 144.576C717.474 144.389 717.192 144.134 716.97 143.812C716.741 143.489 716.571 143.117 716.46 142.695C716.349 142.268 716.293 141.819 716.293 141.351ZM729.986 144.857C729.477 144.857 729.049 144.758 728.703 144.559C728.363 144.354 728.091 144.087 727.886 143.759C727.675 143.437 727.522 143.073 727.429 142.669C727.341 142.259 727.297 141.846 727.297 141.43V141.061C727.297 140.65 727.341 140.243 727.429 139.839C727.522 139.435 727.675 139.068 727.886 138.74C728.097 138.418 728.372 138.157 728.712 137.958C729.058 137.753 729.482 137.65 729.986 137.65C730.314 137.65 730.619 137.706 730.9 137.817C731.188 137.929 731.434 138.081 731.639 138.274C731.844 138.468 732.005 138.693 732.122 138.951C732.245 139.203 732.31 139.473 732.315 139.76H733.854C733.854 139.279 733.757 138.828 733.563 138.406C733.37 137.984 733.104 137.618 732.764 137.308C732.418 137.003 732.008 136.763 731.533 136.587C731.064 136.405 730.549 136.314 729.986 136.314C729.266 136.314 728.636 136.443 728.097 136.701C727.558 136.959 727.109 137.305 726.752 137.738C726.389 138.178 726.116 138.685 725.935 139.259C725.753 139.833 725.662 140.434 725.662 141.061V141.43C725.662 142.062 725.753 142.666 725.935 143.24C726.116 143.809 726.389 144.31 726.752 144.743C727.109 145.183 727.558 145.531 728.097 145.789C728.636 146.047 729.266 146.176 729.986 146.176C730.49 146.176 730.974 146.091 731.437 145.921C731.899 145.745 732.31 145.511 732.667 145.218C733.024 144.931 733.309 144.597 733.52 144.216C733.736 143.829 733.848 143.425 733.854 143.003H732.315C732.31 143.267 732.239 143.513 732.104 143.741C731.976 143.964 731.803 144.157 731.586 144.321C731.369 144.491 731.12 144.623 730.839 144.717C730.563 144.811 730.279 144.857 729.986 144.857ZM739.593 141.562L743.082 146H745.147L740.709 140.454L744.559 136.49H742.581L739.461 139.619L738.397 140.762V132.5H736.763V146H738.397V142.713L739.593 141.562Z" fill="#ABB2BF"/>
<rect x="244" y="131" width="367" height="49" stroke="#ABB2BF" stroke-width="2"/>
</svg>
